SplineFontDB: 3.2
FontName: MononokiFork-Bold
FullName: Mononoki Fork Bold
FamilyName: MononokiFork
Weight: Bold
Copyright: Modifications:\nCopyright (c) 2020, Marvin Dostal\n\nOriginal author:\nCopyright (c) 2013-2017, Matthias Tellen matthias.tellen@googlemail.com\n\nLicensed under SIL OPEN FONT LICENSE Version 1.1 - 26 February 2007
Version: 2.0
ItalicAngle: 0
UnderlinePosition: 0
UnderlineWidth: 0
Ascent: 819
Descent: 205
InvalidEm: 1
UFOAscent: 750
UFODescent: -250
LayerCount: 2
Layer: 0 0 "Back" 1
Layer: 1 0 "Fore" 0
FSType: 0
OS2Version: 3
OS2_WeightWidthSlopeOnly: 0
OS2_UseTypoMetrics: 0
CreationTime: 1593379938
ModificationTime: 1611064690
PfmFamily: 17
TTFWeight: 700
TTFWidth: 5
LineGap: 0
VLineGap: 0
OS2TypoAscent: 0
OS2TypoAOffset: 1
OS2TypoDescent: 0
OS2TypoDOffset: 1
OS2TypoLinegap: 0
OS2WinAscent: 900
OS2WinAOffset: 0
OS2WinDescent: 250
OS2WinDOffset: 0
HheadAscent: 0
HheadAOffset: 1
HheadDescent: 0
HheadDOffset: 1
OS2CapHeight: 700
OS2XHeight: 500
OS2Vendor: 'PfEd'
Lookup: 260 0 0 "'mark' Mark Positioning lookup 0" { "'mark' Mark Positioning lookup 0-1"  } ['mark' ('DFLT' <'dflt' > 'cyrl' <'dflt' > 'grek' <'dflt' > 'latn' <'dflt' > 'mong' <'dflt' > ) ]
MarkAttachClasses: 1
DEI: 91125
LangName: 1033
Encoding: UnicodeBmp
UnicodeInterp: none
NameList: Adobe Glyph List
DisplaySize: -48
AntiAlias: 1
FitToEm: 0
WinInfo: 42 21 15
BeginPrivate: 3
BlueValues 31 [-15 0 500 516 700 716 750 766]
StemSnapH 5 [102]
StemSnapV 5 [110]
EndPrivate
Grid
-650 272 m 25
 1300 272 l 1049
-651 349 m 1
 1300 349 l 1049
EndSplineSet
TeXData: 1 0 0 588800 294400 196266 512000 1048576 196266 783286 444596 497025 792723 393216 433062 380633 303038 157286 324010 404750 52429 2506097 1059062 262144

StartChar: A
Encoding: 65 65 0
GlifName: A_
Width: 575
VWidth: 0
Flags: W
AnchorPoint: "mark-ogonek" 527 0 basechar 0
AnchorPoint: "mark-bottom" 288 0 basechar 0
AnchorPoint: "mark-top" 288 700 basechar 0
LayerCount: 2
Fore
SplineSet
571.168420363 42.1076974235 m 0
 572.033340379 38.557950703 572.509457699 35.0415399692 572.509457699 31.530906131 c 0
 572.509457699 21.9400958208 568.510058664 12.4833841447 560.041109408 6.59707660269 c 0
 553.481023761 1.87546304723 545.493046947 0 537 0 c 2
 502 0 l 2
 493.616533163 0 485.563087211 1.76054014058 478.662321447 6.2516517767 c 0
 469.914925423 11.6116532669 464.508469317 20.159189366 461.879375391 29.9615538049 c 2
 414.261756859 207.5 l 1
 161.738243141 207.5 l 1
 114.079350823 29.8118521039 l 2
 111.354884632 20.1925791598 106.085074577 11.6116532669 97.337678553 6.2516517767 c 0
 90.436912789 1.76054014058 82.3834668373 0 74 0 c 2
 39 0 l 2
 30.5069530533 0 22.5189762391 1.87546304723 15.9588905916 6.59707660269 c 0
 7.48994133634 12.4833841447 3.49054230104 21.9400958208 3.49054230104 31.530906131 c 0
 3.49054230104 35.0415399692 3.91604940798 38.5698061893 4.87100463175 42.2647439125 c 2
 152.896943333 615.0105767 l 2
 169.48675829 676.956219692 224.546014622 710 288 710 c 0
 351.33483904 710 407.567447804 677.168573424 423.128995368 614.911997481 c 2
 423.128995368 614.911997481 571.128995368 42.2647439125 571.168420363 42.1076974235 c 0
314.792801522 592.467075033 m 2
 312.516460178 602.30152418 301.437916146 609 288 609 c 0
 274.562083854 609 263.759925276 602.238778126 261.207198478 592.467075033 c 2
 187.024596385 308.5 l 1
 388.975403615 308.5 l 1
 314.792801522 592.467075033 l 2
EndSplineSet
PickledDataWithLists: "(dp0
Vcom.schriftgestaltung.Glyphs.lastChange
p1
V2016-06-09 18:44:34 +0000
p2
s."
EndChar

StartChar: A.hex
Encoding: 65537 -1 1
GlifName: A_.hex
Width: 575
VWidth: 0
Flags: W
AnchorPoint: "ogonek" 517 10 basechar 0
AnchorPoint: "top" 288 700 basechar 0
LayerCount: 2
Fore
SplineSet
113.871981446 892.05741299 m 0
 122.73117335 884.876804815 126.5 873.93135984 126.5 862.5 c 2
 126.5 816.5 l 2
 126.5 804.711960809 122.807914482 793.571005345 113.681479294 786.461992673 c 0
 106.587996051 780.936542567 97.8952918412 779 89 779 c 2
 54 779 l 2
 42.2119608085 779 31.071005345 782.692085518 23.9619926725 791.818520706 c 0
 18.4365425671 798.912003949 16.5 807.604708159 16.5 816.5 c 2
 16.5 862.5 l 2
 16.5 873.93135984 20.2688266499 884.876804815 29.1280185537 892.05741299 c 0
 36.0808100669 897.69283348 44.8360512123 900 54 900 c 2
 89 900 l 2
 98.1639487877 900 106.919189933 897.69283348 113.871981446 892.05741299 c 0
406.55741299 887.371981446 m 0
 412.19283348 880.419189933 414.5 871.663948788 414.5 862.5 c 2
 414.5 816.5 l 2
 414.5 804.711960809 410.807914482 793.571005345 401.681479294 786.461992673 c 0
 394.587996051 780.936542567 385.895291841 779 377 779 c 2
 342 779 l 2
 330.211960809 779 319.071005345 782.692085518 311.961992673 791.818520706 c 0
 306.436542567 798.912003949 304.5 807.604708159 304.5 816.5 c 2
 304.5 862.5 l 2
 304.5 871.663948788 306.80716652 880.419189933 312.44258701 887.371981446 c 0
 319.623195185 896.23117335 330.56864016 900 342 900 c 2
 377 900 l 2
 388.43135984 900 399.376804815 896.23117335 406.55741299 887.371981446 c 0
97.52514007 -6.339254484 m 0
 90.5044074758 -10.7751973139 82.3817640477 -12.5 74 -12.5 c 2
 39 -12.5 l 2
 30.5069530533 -12.5 22.5189762391 -10.6245369528 15.9588905916 -5.90292339731 c 0
 7.48994133634 0.192592385997 3.49054230104 9.98540984737 3.49054230104 19.9170920104 c 0
 3.49054230104 23.552499066 3.91604940798 27.2061651851 4.87100463175 31.0324265636 c 2
 152.896943333 624.134509437 l 2
 169.48675829 688.281793939 224.546014622 722.5 288 722.5 c 0
 351.417234888 722.5 406.598249479 688.374088104 422.128995368 624.032426564 c 2
 570.070864125 31.2653443165 l 2
 571.238627183 27.2177947486 571.875577146 23.1908559678 571.875577146 19.1696227449 c 0
 571.875577146 9.10077882814 567.424699817 -0.389720105104 559.186309039 -6.16177262113 c 0
 552.784659976 -10.6469512895 545.081979656 -12.5 537 -12.5 c 2
 501 -12.5 l 2
 492.616533163 -12.5 484.563087211 -10.7394598594 477.662321447 -6.2483482233 c 0
 468.914925423 -0.555424653415 463.458813349 8.51061239286 460.918698989 18.7747479724 c 2
 414.213964901 207.5 l 1
 161.738243141 207.5 l 1
 114.191073673 19.2132089068 l 2
 111.981534394 8.53726730333 106.389744448 -0.738289384667 97.52514007 -6.339254484 c 0
314.792801522 604.279349369 m 2
 312.516460178 614.522885419 301.437916146 621.5 288 621.5 c 0
 274.562083854 621.5 263.759925276 614.457529296 261.207198478 604.279349369 c 2
 187.024596385 308.5 l 1
 388.975403615 308.5 l 1
 314.792801522 604.279349369 l 2
EndSplineSet
Validated: 33
PickledDataWithLists: "(dp0
Vcom.schriftgestaltung.Glyphs.lastChange
p1
V2016-06-09 18:35:33 +0000
p2
s."
EndChar

StartChar: AE
Encoding: 198 198 2
GlifName: A_E_
Width: 575
VWidth: 0
Flags: W
LayerCount: 2
Fore
SplineSet
475 313.5 m 2
 385.5 313.5 l 1
 385.5 102 l 1
 493 102 l 2
 504.788039191 102 515.928994655 98.3079144816 523.038007327 89.1814792941 c 0
 528.563457433 82.0879960506 530.5 73.3952918412 530.5 64.5 c 2
 530.5 37.5 l 2
 530.5 28.6047081588 528.563457433 19.9120039494 523.038007327 12.8185207059 c 0
 515.928994655 3.69208551836 504.788039191 1.7763568394e-15 493 0 c 2
 313 0 l 2
 301.56864016 0 290.623195185 3.49170704329 283.44258701 11.6994877777 c 0
 277.80716652 18.1410446208 275.5 26.2525180349 275.5 34.7426470588 c 2
 275.5 157.5 l 1
 148.762103016 157.5 l 1
 114.194273315 29.7779936337 l 2
 111.986935952 19.9105519683 106.39402657 11.3368881178 97.52514007 6.160745516 c 0
 90.5044074758 1.72480268612 82.3817640477 -8.881784197e-16 74 0 c 2
 39 0 l 2
 30.5069530533 0 22.5189762391 1.87546304723 15.9588905916 6.59707660269 c 0
 7.48994133634 12.4804720151 3.49054230104 21.9325051776 3.49054230104 31.5185706317 c 0
 3.49054230104 35.0274676559 3.91604940798 38.5539883389 4.87100463175 42.2470980676 c 2
 152.896943333 614.709576634 l 2
 168.570345329 673.204420289 213.989653592 700 288 700 c 2
 482 700 l 2
 490.895291841 700 499.587996051 698.063457433 506.681479294 692.538007327 c 0
 515.807914482 685.428994655 519.5 674.288039191 519.5 662.5 c 2
 519.5 636.5 l 2
 519.5 624.711960809 515.807914482 613.571005345 506.681479294 606.461992673 c 0
 499.587996051 600.936542567 490.895291841 599 482 599 c 2
 385.5 599 l 1
 385.5 415.5 l 1
 475 415.5 l 2
 486.43135984 415.5 497.376804815 411.73117335 504.55741299 402.871981446 c 0
 510.19283348 395.919189933 512.5 387.163948788 512.5 378 c 2
 512.5 351 l 2
 512.5 339.56864016 508.73117335 328.623195185 499.871981446 321.44258701 c 0
 492.919189933 315.80716652 484.163948788 313.5 475 313.5 c 2
174.044406945 258.5 m 1
 275.5 258.5 l 1
 275.5 619.838755151 l 1
 267.213656044 617.225944256 263.062362677 611.637165047 261.121901481 603.939291513 c 2
 174.044406945 258.5 l 1
EndSplineSet
Validated: 33
PickledDataWithLists: "(dp0
Vcom.schriftgestaltung.Glyphs.lastChange
p1
V2016-06-09 18:35:33 +0000
p2
s."
EndChar

StartChar: B
Encoding: 66 66 13
GlifName: B_
Width: 575
VWidth: 0
Flags: W
AnchorPoint: "mark-top" 288 700 basechar 0
AnchorPoint: "mark-bottom" 288 0 basechar 0
LayerCount: 2
Fore
SplineSet
409.051802155 371.441226027 m 1
 481.16287483 337.806528103 525.5 272.047275101 525.5 201.310344828 c 0
 525.5 96.7816472425 429.05612976 0 264 0 c 2
 127 0 l 2
 117.836051212 0 109.080810067 2.30716652042 102.128018554 7.94258701007 c 0
 93.2688266499 14.8318015571 89.5 25.3330734428 89.5 36.3005414606 c 2
 89.5 599 l 1
 64 599 l 2
 54.8360512123 599 46.0808100669 601.30716652 39.1280185537 606.94258701 c 0
 30.2688266499 614.123195185 26.5 625.06864016 26.5 636.5 c 2
 26.5 662.5 l 2
 26.5 671.663948788 28.8071665204 680.419189933 34.4425870101 687.371981446 c 0
 41.6231951847 696.23117335 52.5686401598 700 64 700 c 2
 244 700 l 2
 411.547964716 700 485.5 604.329379351 485.5 515.103448276 c 0
 485.5 454.246786313 451.590160538 401.590619971 409.051802155 371.441226027 c 1
199.5 599 m 1
 199.5 415.5 l 1
 244 415.5 l 2
 340.452004416 415.5 385.5 458.459992741 385.5 504.909438776 c 0
 385.5 547.080395733 349.02163436 599 244 599 c 2
 199.5 599 l 1
264 313.5 m 2
 199.5 313.5 l 1
 199.5 102 l 1
 264 102 l 2
 375.716128784 102 424.5 157.085658165 424.5 207.277901786 c 0
 424.5 257.551095507 375.596609104 313.5 264 313.5 c 2
EndSplineSet
PickledDataWithLists: "(dp0
Vcom.schriftgestaltung.Glyphs.lastChange
p1
V2016-06-09 18:35:33 +0000
p2
s."
EndChar

StartChar: B.hex
Encoding: 65538 -1 14
GlifName: B_.hex
Width: 575
VWidth: 0
Flags: W
LayerCount: 2
Fore
SplineSet
113.871981446 892.05741299 m 0
 122.73117335 884.876804815 126.5 873.93135984 126.5 862.5 c 2
 126.5 816.5 l 2
 126.5 804.711960809 122.807914482 793.571005345 113.681479294 786.461992673 c 0
 106.587996051 780.936542567 97.8952918412 779 89 779 c 2
 54 779 l 2
 42.2119608085 779 31.071005345 782.692085518 23.9619926725 791.818520706 c 0
 18.4365425671 798.912003949 16.5 807.604708159 16.5 816.5 c 2
 16.5 862.5 l 2
 16.5 873.93135984 20.2688266499 884.876804815 29.1280185537 892.05741299 c 0
 36.0808100669 897.69283348 44.8360512123 900 54 900 c 2
 89 900 l 2
 98.1639487877 900 106.919189933 897.69283348 113.871981446 892.05741299 c 0
406.55741299 887.371981446 m 0
 412.19283348 880.419189933 414.5 871.663948788 414.5 862.5 c 2
 414.5 816.5 l 2
 414.5 804.711960809 410.807914482 793.571005345 401.681479294 786.461992673 c 0
 394.587996051 780.936542567 385.895291841 779 377 779 c 2
 342 779 l 2
 330.211960809 779 319.071005345 782.692085518 311.961992673 791.818520706 c 0
 306.436542567 798.912003949 304.5 807.604708159 304.5 816.5 c 2
 304.5 862.5 l 2
 304.5 871.663948788 306.80716652 880.419189933 312.44258701 887.371981446 c 0
 319.623195185 896.23117335 330.56864016 900 342 900 c 2
 377 900 l 2
 388.43135984 900 399.376804815 896.23117335 406.55741299 887.371981446 c 0
550.55741299 887.371981446 m 0
 556.19283348 880.419189933 558.5 871.663948788 558.5 862.5 c 2
 558.5 816.5 l 2
 558.5 804.711960809 554.807914482 793.571005345 545.681479294 786.461992673 c 0
 538.587996051 780.936542567 529.895291841 779 521 779 c 2
 486 779 l 2
 474.211960809 779 463.071005345 782.692085518 455.961992673 791.818520706 c 0
 450.436542567 798.912003949 448.5 807.604708159 448.5 816.5 c 2
 448.5 862.5 l 2
 448.5 871.663948788 450.80716652 880.419189933 456.44258701 887.371981446 c 0
 463.623195185 896.23117335 474.56864016 900 486 900 c 2
 521 900 l 2
 532.43135984 900 543.376804815 896.23117335 550.55741299 887.371981446 c 0
409.051802155 372.206984099 m 1
 481.16287483 337.371046964 525.5 269.263249211 525.5 196 c 0
 525.5 87.738134644 429.05612976 -12.5 264 -12.5 c 2
 127 -12.5 l 2
 117.836051212 -12.5 109.080810067 -10.1928334796 102.128018554 -4.55741298993 c 0
 93.2688266499 2.6231951847 89.5 13.5686401598 89.5 25 c 2
 89.5 611.5 l 1
 64 611.5 l 2
 52.2119608085 611.5 41.071005345 615.192085518 33.9619926725 624.318520706 c 0
 28.4365425671 631.412003949 26.5 640.104708159 26.5 649 c 2
 26.5 675 l 2
 26.5 683.895291841 28.4365425671 692.587996051 33.9619926725 699.681479294 c 0
 41.071005345 708.807914482 52.2119608085 712.5 64 712.5 c 2
 244 712.5 l 2
 411.547964716 712.5 485.5 613.41257147 485.5 521 c 0
 485.5 457.969885824 451.590160538 403.433142113 409.051802155 372.206984099 c 1
199.5 611.5 m 1
 199.5 415.5 l 1
 244 415.5 l 2
 340.452004416 415.5 385.5 461.386422764 385.5 511 c 0
 385.5 556.043637949 349.02163436 611.5 244 611.5 c 2
 199.5 611.5 l 1
264 313.5 m 2
 199.5 313.5 l 1
 199.5 89.5 l 1
 264 89.5 l 2
 375.716128784 89.5 424.5 147.841311721 424.5 201 c 0
 424.5 254.244422665 375.596609104 313.5 264 313.5 c 2
EndSplineSet
Validated: 1
PickledDataWithLists: "(dp0
Vcom.schriftgestaltung.Glyphs.lastChange
p1
V2016-06-09 18:35:33 +0000
p2
s."
EndChar

StartChar: C
Encoding: 67 67 16
GlifName: C_
Width: 575
VWidth: 0
Flags: W
AnchorPoint: "mark-top" 288 700 basechar 0
AnchorPoint: "mark-bottom" 288 0 basechar 0
LayerCount: 2
Fore
SplineSet
444.559796589 584.811355122 m 0
 401.571948206 600.427279072 367.031330862 606.999999972 338 607 c 0
 227.471283047 607 183.5 519.19849291 183.5 388.14471243 c 2
 183.5 311.85528757 l 2
 183.5 230.299750881 200.6567282 178.071266832 224.83244489 145.590786957 c 0
 254.784181932 105.350127097 296.768430529 93 338 93 c 0
 367.031330867 93 401.571948202 99.5727208969 444.559796562 115.188644868 c 0
 449.775455737 117.253203663 455.068642388 118.475217768 460.49229045 118.475217796 c 0
 475.814641679 118.475217796 487.058043187 107.942593356 492.575743118 94.2232306291 c 2
 492.575743118 94.2232306291 502.544027982 70.299346956 502.611086961 70.1351113864 c 0
 504.840054983 64.5626913316 506.173589889 58.885203405 506.173589889 53.0607300001 c 0
 506.173589889 38.4474479825 496.779228391 26.5982837331 482.7697588 20.9430182901 c 0
 434.497686392 0.417445130559 386.860095912 -9.99999926425 340 -10 c 0
 285.408101855 -10 226.278943139 3.88471694886 177.263461945 42.0959306437 c 0
 115.78124073 90.0258955446 72.5 174.712088779 72.5 311.342281879 c 2
 72.5 388.657718121 l 2
 72.5 525.287911221 115.78124073 609.974104455 177.263461945 657.904069356 c 0
 226.278943139 696.115283051 285.408101855 710 340 710 c 0
 386.860095724 710 434.497685703 699.582555821 482.769757284 679.056982338 c 0
 496.779228021 673.401717877 506.173589889 661.552553296 506.173589889 646.93927 c 0
 506.173589889 641.114796595 504.920594975 635.404413827 502.544027982 629.700653044 c 2
 492.575743118 605.776769371 l 2
 487.058043187 592.057406644 475.814641679 581.524782204 460.49229045 581.524782204 c 0
 455.068642387 581.524782204 449.775455745 582.746796305 444.559796589 584.811355122 c 0
EndSplineSet
EndChar

StartChar: C.hex
Encoding: 65539 -1 17
GlifName: C_.hex
Width: 575
VWidth: 0
Flags: W
AnchorPoint: "top" 288 700 basechar 0
AnchorPoint: "bottom" 328 0 basechar 0
LayerCount: 2
Fore
SplineSet
113.871981446 892.05741299 m 0
 122.73117335 884.876804815 126.5 873.93135984 126.5 862.5 c 2
 126.5 806.5 l 2
 126.5 794.711960809 122.807914482 783.571005345 113.681479294 776.461992673 c 0
 106.587996051 770.936542567 97.8952918412 769 89 769 c 2
 54 769 l 2
 42.2119608085 769 31.071005345 772.692085518 23.9619926725 781.818520706 c 0
 18.4365425671 788.912003949 16.5 797.604708159 16.5 806.5 c 2
 16.5 862.5 l 2
 16.5 873.93135984 20.2688266499 884.876804815 29.1280185537 892.05741299 c 0
 36.0808100669 897.69283348 44.8360512123 900 54 900 c 2
 89 900 l 2
 98.1639487877 900 106.919189933 897.69283348 113.871981446 892.05741299 c 0
262.55741299 887.371981446 m 0
 268.19283348 880.419189933 270.5 871.663948788 270.5 862.5 c 2
 270.5 816.5 l 2
 270.5 804.711960809 266.807914482 793.571005345 257.681479294 786.461992673 c 0
 250.587996051 780.936542567 241.895291841 779 233 779 c 2
 198 779 l 2
 186.211960809 779 175.071005345 782.692085518 167.961992673 791.818520706 c 0
 162.436542567 798.912003949 160.5 807.604708159 160.5 816.5 c 2
 160.5 862.5 l 2
 160.5 871.663948788 162.80716652 880.419189933 168.44258701 887.371981446 c 0
 175.623195185 896.23117335 186.56864016 900 198 900 c 2
 233 900 l 2
 244.43135984 900 255.376804815 896.23117335 262.55741299 887.371981446 c 0
444.559796589 609.811355122 m 0
 401.571948206 625.427279072 367.031330862 631.999999972 338 632 c 0
 227.471283047 632 183.5 539.927991593 183.5 402.5 c 2
 183.5 322.5 l 2
 183.5 236.977754329 200.6567282 182.208974363 224.83244489 148.14870461 c 0
 254.784181932 105.950814213 296.768430529 93 338 93 c 0
 367.031330867 93 401.571948202 99.5727208969 444.559796562 115.188644868 c 0
 449.775455737 117.253203663 455.068642388 118.475217768 460.49229045 118.475217796 c 0
 475.814641679 118.475217796 487.058043187 107.942593356 492.575743118 94.2232306291 c 2
 492.575743118 94.2232306291 502.544027982 70.299346956 502.611086961 70.1351113864 c 0
 504.840054983 64.5626913316 506.173589889 58.885203405 506.173589889 53.0607300001 c 0
 506.173589889 38.4474479825 496.779228391 26.5982837331 482.7697588 20.9430182901 c 0
 434.497686392 0.417445130559 386.860095912 -9.99999926425 340 -10 c 0
 285.408101855 -10 226.278943139 4.36682517625 177.263461945 43.9048171243 c 0
 115.78124073 93.4990169177 72.5 181.125702972 72.5 322.5 c 2
 72.5 402.5 l 2
 72.5 543.874297028 115.78124073 631.500983082 177.263461945 681.095182876 c 0
 226.278943139 720.633174824 285.408101855 735 340 735 c 0
 386.860095724 735 434.497685703 724.582555821 482.769757284 704.056982338 c 0
 496.779228021 698.401717877 506.173589889 686.552553296 506.173589889 671.93927 c 0
 506.173589889 666.114796595 504.920594975 660.404413827 502.544027982 654.700653044 c 2
 492.575743118 630.776769371 l 2
 487.058043187 617.057406644 475.814641679 606.524782204 460.49229045 606.524782204 c 0
 455.068642387 606.524782204 449.775455745 607.746796305 444.559796589 609.811355122 c 0
EndSplineSet
Validated: 33
PickledDataWithLists: "(dp0
Vcom.schriftgestaltung.Glyphs.lastChange
p1
V2016-06-09 18:35:33 +0000
p2
s."
EndChar

StartChar: D
Encoding: 68 68 23
GlifName: D_
Width: 575
VWidth: 0
Flags: W
AnchorPoint: "mark-top" 288 700 basechar 0
AnchorPoint: "mark-bottom" 288 0 basechar 0
LayerCount: 2
Fore
SplineSet
34.4425870101 687.371981446 m 0
 41.6231951847 696.23117335 52.5686401598 700 64 700 c 2
 144 700 l 2
 255.532300473 700 343.901562614 687.020574293 408.58808025 648.290627421 c 0
 490.225165773 599.411817731 529.443278849 511.309739869 529.499938516 369.617942524 c 0
 530.166625678 356.743983549 530.833312839 343.870024574 531.5 330.996065599 c 2
 531.5 330.689655172 l 2
 531.5 231.725642808 515.128151177 155.051084631 472.357987523 99.9981495777 c 0
 418.556846504 30.7463518458 325.940277037 0 185 0 c 2
 127 0 l 2
 117.836051212 0 109.080810067 2.30716652042 102.128018554 7.94258701007 c 0
 93.2688266499 14.8318015571 89.5 25.3330734428 89.5 36.3005414606 c 2
 89.5 599 l 1
 64 599 l 2
 54.8360512123 599 46.0808100669 601.30716652 39.1280185537 606.94258701 c 0
 30.2688266499 614.123195185 26.5 625.06864016 26.5 636.5 c 2
 26.5 662.5 l 2
 26.5 671.663948788 28.8071665204 680.419189933 34.4425870101 687.371981446 c 0
376.857732511 156.77809878 m 0
 405.322401541 193.946465298 419.5 249.955984414 419.5 330 c 2
 419.5 370 l 2
 419.5 442.456644743 406.730734128 497.831292021 378.932528757 536.535727602 c 0
 346.010145397 582.37473947 290.07797334 608.205071254 199.5 610.354079317 c 1
 199.5 89.6280215059 l 1
 286.918985622 91.4510083234 343.171766599 112.791909226 376.857732511 156.77809878 c 0
EndSplineSet
PickledDataWithLists: "(dp0
Vcom.schriftgestaltung.Glyphs.lastChange
p1
V2016-06-09 18:46:00 +0000
p2
s."
EndChar

StartChar: D.hex
Encoding: 65540 -1 24
GlifName: D_.hex
Width: 575
VWidth: 0
Flags: W
AnchorPoint: "center" 288 350 basechar 0
AnchorPoint: "top" 288 700 basechar 0
LayerCount: 2
Fore
SplineSet
113.871981446 892.05741299 m 0
 122.73117335 884.876804815 126.5 873.93135984 126.5 862.5 c 2
 126.5 816.5 l 2
 126.5 804.711960809 122.807914482 793.571005345 113.681479294 786.461992673 c 0
 106.587996051 780.936542567 97.8952918412 779 89 779 c 2
 54 779 l 2
 42.2119608085 779 31.071005345 782.692085518 23.9619926725 791.818520706 c 0
 18.4365425671 798.912003949 16.5 807.604708159 16.5 816.5 c 2
 16.5 862.5 l 2
 16.5 873.93135984 20.2688266499 884.876804815 29.1280185537 892.05741299 c 0
 36.0808100669 897.69283348 44.8360512123 900 54 900 c 2
 89 900 l 2
 98.1639487877 900 106.919189933 897.69283348 113.871981446 892.05741299 c 0
262.55741299 887.371981446 m 0
 268.19283348 880.419189933 270.5 871.663948788 270.5 862.5 c 2
 270.5 816.5 l 2
 270.5 804.711960809 266.807914482 793.571005345 257.681479294 786.461992673 c 0
 250.587996051 780.936542567 241.895291841 779 233 779 c 2
 198 779 l 2
 186.211960809 779 175.071005345 782.692085518 167.961992673 791.818520706 c 0
 162.436542567 798.912003949 160.5 807.604708159 160.5 816.5 c 2
 160.5 862.5 l 2
 160.5 871.663948788 162.80716652 880.419189933 168.44258701 887.371981446 c 0
 175.623195185 896.23117335 186.56864016 900 198 900 c 2
 233 900 l 2
 244.43135984 900 255.376804815 896.23117335 262.55741299 887.371981446 c 0
550.55741299 887.371981446 m 0
 556.19283348 880.419189933 558.5 871.663948788 558.5 862.5 c 2
 558.5 816.5 l 2
 558.5 804.711960809 554.807914482 793.571005345 545.681479294 786.461992673 c 0
 538.587996051 780.936542567 529.895291841 779 521 779 c 2
 486 779 l 2
 474.211960809 779 463.071005345 782.692085518 455.961992673 791.818520706 c 0
 450.436542567 798.912003949 448.5 807.604708159 448.5 816.5 c 2
 448.5 862.5 l 2
 448.5 871.663948788 450.80716652 880.419189933 456.44258701 887.371981446 c 0
 463.623195185 896.23117335 474.56864016 900 486 900 c 2
 521 900 l 2
 532.43135984 900 543.376804815 896.23117335 550.55741299 887.371981446 c 0
33.9619926725 699.681479294 m 0
 41.071005345 708.807914482 52.2119608085 712.5 64 712.5 c 2
 144 712.5 l 2
 255.532300473 712.5 343.901562614 699.057023375 408.58808025 658.943864115 c 0
 490.284224732 608.282759231 529.5 516.938756284 529.5 370 c 2
 529.5 330 l 2
 529.5 227.501558622 513.128151177 148.088623368 470.357987523 91.0695120626 c 0
 416.556846504 19.3444358403 323.940277037 -12.5 183 -12.5 c 2
 127 -12.5 l 2
 117.836051212 -12.5 109.080810067 -10.1928334796 102.128018554 -4.55741298993 c 0
 93.2688266499 2.6231951847 89.5 13.5686401598 89.5 25 c 2
 89.5 611.5 l 1
 64 611.5 l 2
 52.2119608085 611.5 41.071005345 615.192085518 33.9619926725 624.318520706 c 0
 28.4365425671 631.412003949 26.5 640.104708159 26.5 649 c 2
 26.5 675 l 2
 26.5 683.895291841 28.4365425671 692.587996051 33.9619926725 699.681479294 c 0
376.857732511 156.77809878 m 0
 405.322401541 193.946465298 419.5 249.955984414 419.5 330 c 2
 419.5 370 l 2
 419.5 442.461852292 406.742003448 496.777873737 378.987954952 534.813075235 c 0
 346.115388029 579.862888664 290.109661463 605.44231613 199.5 610.00521106 c 1
 199.5 89.6280215059 l 1
 286.918985622 91.4510083234 343.171766599 112.791909226 376.857732511 156.77809878 c 0
EndSplineSet
Validated: 1
PickledDataWithLists: "(dp0
Vcom.schriftgestaltung.Glyphs.lastChange
p1
V2016-06-09 18:35:33 +0000
p2
s."
EndChar

StartChar: E
Encoding: 69 69 27
GlifName: E_
Width: 575
VWidth: 0
Flags: W
AnchorPoint: "mark-top" 288 700 basechar 0
AnchorPoint: "mark-ogonek" 483 0 basechar 0
AnchorPoint: "mark-bottom" 288 -0 basechar 0
LayerCount: 2
Fore
SplineSet
448 313.5 m 2
 182.5 313.5 l 1
 182.5 102 l 1
 491 102 l 2
 500.163948788 102 508.919189933 99.6928334796 515.871981446 94.0574129899 c 0
 524.73117335 86.8768048153 528.5 75.9313598402 528.5 64.5 c 2
 528.5 37.5 l 2
 528.5 28.3360512123 526.19283348 19.5808100669 520.55741299 12.6280185537 c 0
 513.376804815 3.7688266499 502.43135984 0 491 0 c 2
 110 0 l 2
 100.836051212 0 92.0808100669 2.30716652042 85.1280185537 7.94258701007 c 0
 76.2688266499 14.8728453506 72.5 25.4366805418 72.5 36.4694893165 c 2
 72.5 663.80742669 l 2
 72.5 672.651877045 74.8071665204 681.101869232 80.4425870101 687.812253673 c 0
 87.6231951847 696.362572405 98.5686401598 700 110 700 c 2
 469 700 l 2
 480.43135984 700 491.376804815 696.23117335 498.55741299 687.371981446 c 0
 504.19283348 680.419189933 506.5 671.663948788 506.5 662.5 c 2
 506.5 636.5 l 2
 506.5 627.336051212 504.19283348 618.580810067 498.55741299 611.628018554 c 0
 491.376804815 602.76882665 480.43135984 599 469 599 c 2
 182.5 599 l 1
 182.5 415.5 l 1
 448 415.5 l 2
 459.43135984 415.5 470.376804815 411.73117335 477.55741299 402.871981446 c 0
 483.19283348 395.919189933 485.5 387.163948788 485.5 378 c 2
 485.5 351 l 2
 485.5 339.56864016 481.73117335 328.623195185 472.871981446 321.44258701 c 0
 465.919189933 315.80716652 457.163948788 313.5 448 313.5 c 2
EndSplineSet
PickledDataWithLists: "(dp0
Vcom.schriftgestaltung.Glyphs.lastChange
p1
V2016-06-09 18:35:33 +0000
p2
s."
EndChar

StartChar: E.hex
Encoding: 65541 -1 28
GlifName: E_.hex
Width: 575
VWidth: 0
Flags: W
AnchorPoint: "ogonek" 518 1 basechar 0
AnchorPoint: "bottom" 288 0 basechar 0
AnchorPoint: "top" 288 700 basechar 0
LayerCount: 2
Fore
SplineSet
29.9292122443 892.917841859 m 0
 36.8511016265 897.945723227 45.2519888909 900 54 900 c 2
 89 900 l 2
 100.481801688 900 111.259273193 896.081981727 118.240398412 887.253936525 c 0
 123.652903498 880.409504137 125.928592489 872.038755556 126.475381059 863.290138438 c 0
 127.515215092 847.948153393 127.816007328 832.507951517 128.484121255 817.1413312 c 0
 128.540048869 816.158730425 128.56865882 815.183361187 128.56865882 814.214233512 c 0
 128.56865882 802.630768227 124.006681488 791.983611726 114.861360853 785.622606818 c 0
 107.823946891 780.727751128 99.5014276406 779 91 779 c 2
 56 779 l 2
 44.1656214707 779 33.188138645 782.840988906 26.2785175459 791.942049626 c 0
 20.9809606459 798.919767553 19.0552666582 807.219498093 18.5246189414 815.709861562 c 0
 17.4852495073 831.04499179 17.1845904873 846.478298736 16.5167750083 861.838054753 c 0
 16.4601950651 862.783016553 16.4313411796 863.723644381 16.4313411796 864.660333138 c 0
 16.4313411796 875.984863507 21.0356066936 886.457756878 29.9292122443 892.917841859 c 0
262.55741299 887.371981446 m 0
 268.19283348 880.419189933 270.5 871.663948788 270.5 862.5 c 2
 270.5 816.5 l 2
 270.5 804.711960809 266.807914482 793.571005345 257.681479294 786.461992673 c 0
 250.587996051 780.936542567 241.895291841 779 233 779 c 2
 198 779 l 2
 186.211960809 779 175.071005345 782.692085518 167.961992673 791.818520706 c 0
 162.436542567 798.912003949 160.5 807.604708159 160.5 816.5 c 2
 160.5 862.5 l 2
 160.5 871.663948788 162.80716652 880.419189933 168.44258701 887.371981446 c 0
 175.623195185 896.23117335 186.56864016 900 198 900 c 2
 233 900 l 2
 244.43135984 900 255.376804815 896.23117335 262.55741299 887.371981446 c 0
406.55741299 887.371981446 m 0
 412.19283348 880.419189933 414.5 871.663948788 414.5 862.5 c 2
 414.5 816.5 l 2
 414.5 804.711960809 410.807914482 793.571005345 401.681479294 786.461992673 c 0
 394.587996051 780.936542567 385.895291841 779 377 779 c 2
 342 779 l 2
 330.211960809 779 319.071005345 782.692085518 311.961992673 791.818520706 c 0
 306.436542567 798.912003949 304.5 807.604708159 304.5 816.5 c 2
 304.5 862.5 l 2
 304.5 871.663948788 306.80716652 880.419189933 312.44258701 887.371981446 c 0
 319.623195185 896.23117335 330.56864016 900 342 900 c 2
 377 900 l 2
 388.43135984 900 399.376804815 896.23117335 406.55741299 887.371981446 c 0
448 313.5 m 2
 182.5 313.5 l 1
 182.5 89.5 l 1
 491 89.5 l 2
 500.163948788 89.5 508.919189933 87.1928334796 515.871981446 81.5574129899 c 0
 524.73117335 74.3768048153 528.5 63.4313598402 528.5 52 c 2
 528.5 25 l 2
 528.5 15.8360512123 526.19283348 7.08081006687 520.55741299 0.128018553675 c 0
 513.376804815 -8.7311733501 502.43135984 -12.5 491 -12.5 c 2
 110 -12.5 l 2
 100.836051212 -12.5 92.0808100669 -10.1928334796 85.1280185537 -4.55741298993 c 0
 76.2688266499 2.6231951847 72.5 13.5686401598 72.5 25 c 2
 72.5 675 l 2
 72.5 684.163948788 74.8071665204 692.919189933 80.4425870101 699.871981446 c 0
 87.6231951847 708.73117335 98.5686401598 712.5 110 712.5 c 2
 469 712.5 l 2
 477.895291841 712.5 486.587996051 710.563457433 493.681479294 705.038007327 c 0
 502.807914482 697.928994655 506.5 686.788039191 506.5 675 c 2
 506.5 649 l 2
 506.5 637.211960809 502.807914482 626.071005345 493.681479294 618.961992673 c 0
 486.587996051 613.436542567 477.895291841 611.5 469 611.5 c 2
 182.5 611.5 l 1
 182.5 415.5 l 1
 448 415.5 l 2
 459.43135984 415.5 470.376804815 411.73117335 477.55741299 402.871981446 c 0
 483.19283348 395.919189933 485.5 387.163948788 485.5 378 c 2
 485.5 351 l 2
 485.5 339.56864016 481.73117335 328.623195185 472.871981446 321.44258701 c 0
 465.919189933 315.80716652 457.163948788 313.5 448 313.5 c 2
EndSplineSet
Validated: 33
PickledDataWithLists: "(dp0
Vcom.schriftgestaltung.Glyphs.lastChange
p1
V2016-06-09 18:35:33 +0000
p2
s."
EndChar

StartChar: Eth
Encoding: 208 208 39
GlifName: E_th
Width: 575
VWidth: 0
Flags: W
LayerCount: 2
Fore
SplineSet
33.9619926725 687.181479294 m 0
 41.071005345 696.307914482 52.2119608085 700 64 700 c 2
 144 700 l 2
 255.532300473 700 343.901562614 687.020574293 408.58808025 648.290627421 c 0
 490.284224732 599.376457189 529.5 511.182247447 529.5 369.310344828 c 2
 529.5 330.689655172 l 2
 529.5 231.725642808 513.128151177 155.051084631 470.357987523 99.9981495777 c 0
 416.556846504 30.7463518458 323.940277037 0 183 0 c 2
 127 0 l 2
 117.836051212 0 109.080810067 2.30716652042 102.128018554 7.94258701007 c 0
 93.2688266499 14.8279956653 89.5 25.3234662068 89.5 36.2848753341 c 2
 89.5 299.5 l 1
 67 299.5 l 2
 57.8360512123 299.5 49.0808100669 301.80716652 42.1280185537 307.44258701 c 0
 33.2688266499 314.623195185 29.5 325.56864016 29.5 337 c 2
 29.5 363 l 2
 29.5 372.470676747 31.7152215925 381.404376452 37.3189140988 388.545445636 c 0
 44.4948648267 397.690123106 55.5692122926 401.5 67 401.5 c 2
 89.5 401.5 l 1
 89.5 599 l 1
 64 599 l 2
 52.2119608085 599 41.071005345 602.692085518 33.9619926725 611.818520706 c 0
 28.4365425671 618.912003949 26.5 627.604708159 26.5 636.5 c 2
 26.5 662.5 l 2
 26.5 671.395291841 28.4365425671 680.087996051 33.9619926725 687.181479294 c 0
290 299.5 m 2
 199.5 299.5 l 1
 199.5 89.6280215059 l 1
 286.918985622 91.4510083234 343.171766599 112.791909226 376.857732511 156.77809878 c 0
 405.322401541 193.946465298 419.5 249.955984414 419.5 330 c 2
 419.5 370 l 2
 419.5 442.461852292 406.742003448 496.777873737 378.987954952 534.813075235 c 0
 346.115388029 579.862888664 290.109661463 605.44231613 199.5 610.00521106 c 1
 199.5 401.5 l 1
 290 401.5 l 2
 301.43135984 401.5 312.376804815 397.73117335 319.55741299 388.871981446 c 0
 325.19283348 381.919189933 327.5 373.163948788 327.5 364 c 2
 327.5 337 l 2
 327.5 325.56864016 323.73117335 314.623195185 314.871981446 307.44258701 c 0
 307.919189933 301.80716652 299.163948788 299.5 290 299.5 c 2
EndSplineSet
PickledDataWithLists: "(dp0
Vcom.schriftgestaltung.Glyphs.lastChange
p1
V2016-06-09 18:35:33 +0000
p2
s."
EndChar

StartChar: Euro
Encoding: 8364 8364 40
GlifName: E_uro
Width: 575
VWidth: 0
Flags: HMW
LayerCount: 2
Fore
SplineSet
448 372.5 m 2
 68 372.5 l 2
 58.8360512123 372.5 50.0808100669 374.80716652 43.1280185537 380.44258701 c 0
 34.2688266499 387.623195185 30.5 398.56864016 30.5 410 c 2
 30.5 431 l 2
 30.5 442.788039191 34.1920855184 453.928994655 43.3185207059 461.038007327 c 0
 50.4120039494 466.563457433 59.1047081588 468.5 68 468.5 c 2
 74.4293863008 468.5 l 1
 78.736855211 518.186536765 89.5512885379 571.402850394 118.105137308 616.719145506 c 0
 156.963857478 678.389754084 227.918511234 722.5 351 722.5 c 0
 384.520851592 722.5 439.187852476 720.489133746 501.18350276 709.309590252 c 0
 508.984385402 707.932963903 516.105871892 705.195751446 521.785815627 700.160954521 c 0
 529.090153763 693.686267288 532.240988809 684.500889645 532.240988809 675.370414634 c 0
 532.240988809 672.057964666 531.929876616 668.55234211 531.202790567 665.28045489 c 0
 527.372128018 648.042473419 525.627140109 629.801032429 514.847360919 618.809706048 c 0
 508.310300451 612.144359392 499.340765776 608.818093403 489.893741179 608.818093403 c 0
 486.874490169 608.818093403 483.837287725 609.127547041 480.761779911 609.699999904 c 0
 424.735763945 619.523797434 353.204535317 621.494547152 351 621.5 c 0
 272.479845944 621.694217115 232.978339724 597.626034579 211.025755399 563.04736598 c 0
 195.030516018 537.852424305 187.720227713 505.072880252 184.474251117 468.5 c 1
 448 468.5 l 2
 456.895291841 468.5 465.587996051 466.563457433 472.681479294 461.038007327 c 0
 481.807914482 453.928994655 485.5 442.788039191 485.5 431 c 2
 485.5 410 l 2
 485.5 398.56864016 481.73117335 387.623195185 472.871981446 380.44258701 c 0
 465.919189933 374.80716652 457.163948788 372.5 448 372.5 c 2
351 79.5 m 0
 378.388694772 79.5 426.764380978 81.475490067 480.835587254 90.3137076243 c 0
 484.065691976 90.9114684509 487.253213098 91.2454329608 490.436317047 91.2454335052 c 0
 499.52236472 91.2454335052 508.475410823 88.202335162 515.042443981 81.4299815037 c 0
 520.179468584 76.1323460978 523.458455864 69.2801527173 525.180504947 61.8179400265 c 0
 527.213889164 53.0066084167 529.617389099 44.2124212619 531.285821592 35.3141146364 c 0
 531.898484737 32.0465778636 532.240988809 28.8037516223 532.240988809 25.5579744621 c 0
 532.240988809 16.3767837024 529.221217563 7.11657414799 522.04652171 0.388510732328 c 0
 516.434758508 -4.87391424921 509.210800969 -7.88297926234 501.252698887 -9.29733506257 c 0
 440.525905844 -20.6782687034 359.854863991 -22.5253030323 351.623364161 -22.5253030323 c 0
 351.171497701 -22.5253030323 351 -22.5 351 -22.5 c 1
 226.757055176 -22.5 155.608240965 22.5841907404 117.000529188 84.5707315944 c 0
 88.6997193326 130.009044967 78.2682552307 182.970744447 74.3541558727 231.5 c 1
 68 231.5 l 2
 58.8360512123 231.5 50.0808100669 233.80716652 43.1280185537 239.44258701 c 0
 34.2688266499 246.623195185 30.5 257.56864016 30.5 269 c 2
 30.5 290 l 2
 30.5 301.788039191 34.1920855184 312.928994655 43.3185207059 320.038007327 c 0
 50.4120039494 325.563457433 59.1047081588 327.5 68 327.5 c 2
 448 327.5 l 2
 456.895291841 327.5 465.587996051 325.563457433 472.681479294 320.038007327 c 0
 481.807914482 312.928994655 485.5 301.788039191 485.5 290 c 2
 485.5 269 l 2
 485.5 257.56864016 481.73117335 246.623195185 472.871981446 239.44258701 c 0
 465.919189933 233.80716652 457.163948788 231.5 448 231.5 c 2
 185.592600512 231.5 l 1
 190.36986223 182.896750086 201.761962806 148.49930567 220.285051285 125.306115534 c 0
 245.170615344 94.1463216622 285.366635025 79.5 351 79.5 c 0
EndSplineSet
Validated: 33
PickledDataWithLists: "(dp0
Vcom.schriftgestaltung.Glyphs.lastChange
p1
V2015-12-22 14:04:06 +0000
p2
s."
EndChar

StartChar: F
Encoding: 70 70 41
GlifName: F_
Width: 575
VWidth: 0
Flags: W
AnchorPoint: "mark-top" 288 700 basechar 0
AnchorPoint: "mark-bottom" 288 0 basechar 0
LayerCount: 2
Fore
SplineSet
80.4425870101 687.812253673 m 0
 87.6231951847 696.362572405 98.5686401598 700 110 700 c 2
 491 700 l 2
 502.43135984 700 513.376804815 696.23117335 520.55741299 687.371981446 c 0
 526.19283348 680.419189933 528.5 671.663948788 528.5 662.5 c 2
 528.5 636.5 l 2
 528.5 627.336051212 526.19283348 618.580810067 520.55741299 611.628018554 c 0
 513.376804815 602.76882665 502.43135984 599 491 599 c 2
 182.5 599 l 1
 182.5 381.5 l 1
 469 381.5 l 2
 480.43135984 381.5 491.376804815 377.73117335 498.55741299 368.871981446 c 0
 504.19283348 361.919189933 506.5 353.163948788 506.5 344 c 2
 506.5 317 l 2
 506.5 305.56864016 502.73117335 294.623195185 493.871981446 287.44258701 c 0
 486.919189933 281.80716652 478.163948788 279.5 469 279.5 c 2
 182.5 279.5 l 1
 182.5 35.8946917808 l 2
 182.5 27.1230353213 180.19283348 18.7425904578 174.55741299 12.0874355676 c 0
 167.376804815 3.60748989263 156.43135984 0 145 0 c 2
 110 0 l 2
 100.836051212 0 92.0808100669 2.30716652042 85.1280185537 7.94258701007 c 0
 76.2688266499 14.8728453506 72.5 25.4366805418 72.5 36.4694893165 c 2
 72.5 663.80742669 l 2
 72.5 672.651877045 74.8071665204 681.101869232 80.4425870101 687.812253673 c 0
EndSplineSet
PickledDataWithLists: "(dp0
Vcom.schriftgestaltung.Glyphs.lastChange
p1
V2016-06-09 18:35:33 +0000
p2
s."
EndChar

StartChar: F.hex
Encoding: 65542 -1 42
GlifName: F_.hex
Width: 575
VWidth: 0
Flags: W
LayerCount: 2
Fore
SplineSet
144.55741299 887.371981446 m 0
 150.19283348 880.419189933 152.5 871.663948788 152.5 862.5 c 2
 152.5 816.5 l 2
 152.5 804.711960809 148.807914482 793.571005345 139.681479294 786.461992673 c 0
 132.587996051 780.936542567 123.895291841 779 115 779 c 2
 80 779 l 2
 68.2119608085 779 57.071005345 782.692085518 49.9619926725 791.818520706 c 0
 44.4365425671 798.912003949 42.5 807.604708159 42.5 816.5 c 2
 42.5 862.5 l 2
 42.5 871.663948788 44.8071665204 880.419189933 50.4425870101 887.371981446 c 0
 57.6231951847 896.23117335 68.5686401598 900 80 900 c 2
 115 900 l 2
 126.43135984 900 137.376804815 896.23117335 144.55741299 887.371981446 c 0
268.55741299 887.371981446 m 0
 274.19283348 880.419189933 276.5 871.663948788 276.5 862.5 c 2
 276.5 816.5 l 2
 276.5 804.711960809 272.807914482 793.571005345 263.681479294 786.461992673 c 0
 256.587996051 780.936542567 247.895291841 779 239 779 c 2
 204 779 l 2
 192.211960809 779 181.071005345 782.692085518 173.961992673 791.818520706 c 0
 168.436542567 798.912003949 166.5 807.604708159 166.5 816.5 c 2
 166.5 862.5 l 2
 166.5 871.663948788 168.80716652 880.419189933 174.44258701 887.371981446 c 0
 181.623195185 896.23117335 192.56864016 900 204 900 c 2
 239 900 l 2
 250.43135984 900 261.376804815 896.23117335 268.55741299 887.371981446 c 0
392.55741299 887.371981446 m 0
 398.19283348 880.419189933 400.5 871.663948788 400.5 862.5 c 2
 400.5 816.5 l 2
 400.5 804.711960809 396.807914482 793.571005345 387.681479294 786.461992673 c 0
 380.587996051 780.936542567 371.895291841 779 363 779 c 2
 328 779 l 2
 316.211960809 779 305.071005345 782.692085518 297.961992673 791.818520706 c 0
 292.436542567 798.912003949 290.5 807.604708159 290.5 816.5 c 2
 290.5 862.5 l 2
 290.5 871.663948788 292.80716652 880.419189933 298.44258701 887.371981446 c 0
 305.623195185 896.23117335 316.56864016 900 328 900 c 2
 363 900 l 2
 374.43135984 900 385.376804815 896.23117335 392.55741299 887.371981446 c 0
511.871981446 892.05741299 m 0
 520.73117335 884.876804815 524.5 873.93135984 524.5 862.5 c 2
 524.5 816.5 l 2
 524.5 804.711960809 520.807914482 793.571005345 511.681479294 786.461992673 c 0
 504.587996051 780.936542567 495.895291841 779 487 779 c 2
 452 779 l 2
 440.211960809 779 429.071005345 782.692085518 421.961992673 791.818520706 c 0
 416.436542567 798.912003949 414.5 807.604708159 414.5 816.5 c 2
 414.5 862.5 l 2
 414.5 871.663948788 416.80716652 880.419189933 422.44258701 887.371981446 c 0
 429.623195185 896.23117335 440.56864016 900 452 900 c 2
 487 900 l 2
 496.163948788 900 504.919189933 897.69283348 511.871981446 892.05741299 c 0
80.4425870101 699.871981446 m 0
 87.6231951847 708.73117335 98.5686401598 712.5 110 712.5 c 2
 491 712.5 l 2
 499.895291841 712.5 508.587996051 710.563457433 515.681479294 705.038007327 c 0
 524.807914482 697.928994655 528.5 686.788039191 528.5 675 c 2
 528.5 649 l 2
 528.5 637.211960809 524.807914482 626.071005345 515.681479294 618.961992673 c 0
 508.587996051 613.436542567 499.895291841 611.5 491 611.5 c 2
 182.5 611.5 l 1
 182.5 380.5 l 1
 469 380.5 l 2
 480.43135984 380.5 491.376804815 376.73117335 498.55741299 367.871981446 c 0
 504.19283348 360.919189933 506.5 352.163948788 506.5 343 c 2
 506.5 316 l 2
 506.5 304.563073045 502.63368643 293.657650508 493.549590751 286.772862204 c 0
 486.505340345 281.434061897 477.904320447 279.5 469 279.5 c 2
 182.5 279.5 l 1
 182.5 25 l 2
 182.5 16.1047081588 180.563457433 7.41200394941 175.038007327 0.318520705919 c 0
 167.928994655 -8.80791448164 156.788039191 -12.5 145 -12.5 c 2
 110 -12.5 l 2
 100.836051212 -12.5 92.0808100669 -10.1928334796 85.1280185537 -4.55741298993 c 0
 76.2688266499 2.6231951847 72.5 13.5686401598 72.5 25 c 2
 72.5 675 l 2
 72.5 684.163948788 74.8071665204 692.919189933 80.4425870101 699.871981446 c 0
EndSplineSet
Validated: 1
PickledDataWithLists: "(dp0
Vcom.schriftgestaltung.Glyphs.lastChange
p1
V2016-06-09 18:35:33 +0000
p2
s."
EndChar

StartChar: G
Encoding: 71 71 43
GlifName: G_
Width: 575
VWidth: 0
Flags: W
AnchorPoint: "mark-top" 288 700 basechar 0
AnchorPoint: "mark-bottom" 288 0 basechar 0
LayerCount: 2
Fore
SplineSet
444.559796589 584.811355122 m 0
 401.571948206 600.427279072 367.031330862 606.999999972 338 607 c 0
 227.471283047 607 183.5 519.19849291 183.5 388.14471243 c 2
 183.5 311.85528757 l 2
 183.5 230.299750881 200.6567282 178.071266832 224.83244489 145.590786957 c 0
 254.784181932 105.350127097 296.768430529 93 338 93 c 0
 356.224159822 93 378.042154306 95.8202226758 402.5 101.612111668 c 1
 402.5 299.5 l 1
 343 299.5 l 2
 331.56864016 299.5 320.623195185 303.26882665 313.44258701 312.128018554 c 0
 307.80716652 319.080810067 305.5 327.836051212 305.5 337 c 2
 305.5 364 l 2
 305.5 375.43135984 309.26882665 386.376804815 318.128018554 393.55741299 c 0
 325.080810067 399.19283348 333.836051212 401.5 343 401.5 c 2
 475 401.5 l 2
 486.43135984 401.5 497.376804815 397.842282626 504.55741299 389.244269729 c 0
 510.19283348 382.496454381 512.5 373.999327656 512.5 365.105542453 c 2
 512.5 61.3331367925 l 2
 512.5 43.8953218558 503.281924826 28.2848496322 485.914941489 21.0612846293 c 0
 435.585670109 0.127495707941 386.897432153 -10 340 -10 c 0
 285.408101855 -10 226.278943139 3.88471694886 177.263461945 42.0959306437 c 0
 115.78124073 90.0258955446 72.5 174.712088779 72.5 311.342281879 c 2
 72.5 388.657718121 l 2
 72.5 525.287911221 115.78124073 609.974104455 177.263461945 657.904069356 c 0
 226.278943139 696.115283051 285.408101855 710 340 710 c 0
 386.860095724 710 434.497685703 699.582555821 482.769757284 679.056982338 c 0
 496.779228021 673.401717877 506.173589889 661.552553296 506.173589889 646.93927 c 0
 506.173589889 641.114796595 504.920594975 635.404413827 502.544027982 629.700653044 c 2
 492.575743118 605.776769371 l 2
 487.058043187 592.057406644 475.814641679 581.524782204 460.49229045 581.524782204 c 0
 455.068642387 581.524782204 449.775455745 582.746796305 444.559796589 584.811355122 c 0
EndSplineSet
EndChar

StartChar: Gamma
Encoding: 915 915 44
GlifName: G_amma
Width: 575
VWidth: 0
Flags: W
LayerCount: 2
Fore
SplineSet
70.3185207059 692.538007327 m 0
 77.4120039494 698.063457433 86.1047081588 700 95 700 c 2
 480 700 l 2
 491.41506486 700 502.648192991 696.893631753 509.962716711 687.688699031 c 0
 515.643333014 680.539950473 517.5 671.697084736 517.5 662.5 c 2
 517.5 636.5 l 2
 517.5 627.302915264 515.643333014 618.460049527 509.962716711 611.311300969 c 0
 502.648192991 602.106368247 491.41506486 599 480 599 c 2
 167.5 599 l 1
 167.5 35.9975961538 l 2
 167.5 27.4586861973 165.563457433 19.1142473809 160.038007327 12.3049581776 c 0
 152.928994655 3.54416542548 141.788039191 0 130 0 c 2
 95 0 l 2
 85.8360512123 0 77.0808100669 2.30716652042 70.1280185537 7.94258701007 c 0
 61.2688266499 14.8702127116 57.5 25.4300349549 57.5 36.4586526299 c 2
 57.5 663.558279354 l 2
 57.5 674.931010088 61.1920855184 685.679454722 70.3185207059 692.538007327 c 0
EndSplineSet
Validated: 1
PickledDataWithLists: "(dp0
Vcom.schriftgestaltung.Glyphs.lastChange
p1
V2015-12-22 16:32:37 +0000
p2
s."
EndChar

StartChar: H
Encoding: 72 72 46
GlifName: H_
Width: 575
VWidth: 0
Flags: W
AnchorPoint: "mark-bottom" 288 -0 basechar 0
AnchorPoint: "mark-top" 288 700 basechar 0
LayerCount: 2
Fore
SplineSet
417.44258701 687.916292591 m 0
 424.623195185 696.393622775 435.56864016 700 447 700 c 2
 482 700 l 2
 493.43135984 700 504.376804815 696.36113289 511.55741299 687.807430362 c 0
 517.19283348 681.09439028 519.5 672.641054002 519.5 663.793103448 c 2
 519.5 36.2068965517 l 2
 519.5 27.358945998 517.19283348 18.9056097197 511.55741299 12.192569638 c 0
 504.376804815 3.63886711025 493.43135984 0 482 0 c 2
 447 0 l 2
 435.56864016 0 424.623195185 3.62735417806 417.44258701 12.1539938332 c 0
 411.80716652 18.845794674 409.5 27.2723856262 409.5 36.0923423423 c 2
 409.5 320.5 l 1
 165.5 320.5 l 1
 165.5 36.0923423423 l 2
 165.5 27.2723856262 163.19283348 18.845794674 157.55741299 12.1539938332 c 0
 150.376804815 3.62735417806 139.43135984 0 128 0 c 2
 93 0 l 2
 81.5686401598 0 70.6231951847 3.63886711025 63.4425870101 12.192569638 c 0
 57.8071665204 18.9056097197 55.5 27.358945998 55.5 36.2068965517 c 2
 55.5 663.793103448 l 2
 55.5 672.641054002 57.8071665204 681.09439028 63.4425870101 687.807430362 c 0
 70.6231951847 696.36113289 81.5686401598 700 93 700 c 2
 128 700 l 2
 139.43135984 700 150.376804815 696.393622775 157.55741299 687.916292591 c 0
 163.19283348 681.263190367 165.5 672.885330306 165.5 664.11637931 c 2
 165.5 422.5 l 1
 409.5 422.5 l 1
 409.5 664.11637931 l 2
 409.5 672.885330306 411.80716652 681.263190367 417.44258701 687.916292591 c 0
EndSplineSet
PickledDataWithLists: "(dp0
Vcom.schriftgestaltung.Glyphs.lastChange
p1
V2016-06-09 18:35:33 +0000
p2
s."
EndChar

StartChar: I
Encoding: 73 73 48
GlifName: I_
Width: 575
VWidth: 0
Flags: W
AnchorPoint: "mark-bottom" 288 0 basechar 0
AnchorPoint: "mark-top" 288 700 basechar 0
AnchorPoint: "mark-ogonek" 456 0 basechar 0
LayerCount: 2
Fore
SplineSet
90.4425870101 687.371981446 m 0
 97.6231951847 696.23117335 108.56864016 700 120 700 c 2
 455 700 l 2
 466.43135984 700 477.376804815 696.23117335 484.55741299 687.371981446 c 0
 490.19283348 680.419189933 492.5 671.663948788 492.5 662.5 c 2
 492.5 636.5 l 2
 492.5 627.336051212 490.19283348 618.580810067 484.55741299 611.628018554 c 0
 477.376804815 602.76882665 466.43135984 599 455 599 c 2
 342.5 599 l 1
 342.5 102 l 1
 465 102 l 2
 476.43135984 102 487.376804815 98.2311733501 494.55741299 89.3719814463 c 0
 500.19283348 82.4191899331 502.5 73.6639487877 502.5 64.5 c 2
 502.5 37.5 l 2
 502.5 28.3360512123 500.19283348 19.5808100669 494.55741299 12.6280185537 c 0
 487.376804815 3.7688266499 476.43135984 0 465 0 c 2
 110 0 l 2
 100.836051212 0 92.0808100669 2.30716652042 85.1280185537 7.94258701007 c 0
 76.2688266499 15.1231951847 72.5 26.0686401598 72.5 37.5 c 2
 72.5 64.5 l 2
 72.5 73.6639487877 74.8071665204 82.4191899331 80.4425870101 89.3719814463 c 0
 87.6231951847 98.2311733501 98.5686401598 102 110 102 c 2
 232.5 102 l 1
 232.5 599 l 1
 120 599 l 2
 110.836051212 599 102.080810067 601.30716652 95.1280185537 606.94258701 c 0
 86.2688266499 614.123195185 82.5 625.06864016 82.5 636.5 c 2
 82.5 662.5 l 2
 82.5 671.663948788 84.8071665204 680.419189933 90.4425870101 687.371981446 c 0
EndSplineSet
PickledDataWithLists: "(dp0
Vcom.schriftgestaltung.Glyphs.lastChange
p1
V2016-06-09 18:35:33 +0000
p2
s."
EndChar

StartChar: IJ
Encoding: 306 306 49
GlifName: I_J_
Width: 575
VWidth: 0
Flags: W
LayerCount: 2
Fore
SplineSet
65.3185207059 692.538007327 m 0
 72.4120039494 698.063457433 81.1047081588 700 90 700 c 2
 225 700 l 2
 233.895291841 700 242.587996051 698.063457433 249.681479294 692.538007327 c 0
 258.807914482 685.428994655 262.5 674.288039191 262.5 662.5 c 2
 262.5 636.5 l 2
 262.5 624.711960809 258.807914482 613.571005345 249.681479294 606.461992673 c 0
 242.587996051 600.936542567 233.895291841 599 225 599 c 2
 212.5 599 l 1
 212.5 102 l 1
 235 102 l 2
 246.788039191 102 257.928994655 98.3079144816 265.038007327 89.1814792941 c 0
 270.563457433 82.0879960506 272.5 73.3952918412 272.5 64.5 c 2
 272.5 37.5 l 2
 272.5 28.6047081588 270.563457433 19.9120039494 265.038007327 12.8185207059 c 0
 257.928994655 3.69208551836 246.788039191 1.7763568394e-15 235 0 c 2
 80 0 l 2
 68.5686401598 0 57.6231951847 3.7688266499 50.4425870101 12.6280185537 c 0
 44.8071665204 19.5808100669 42.5 28.3360512123 42.5 37.5 c 2
 42.5 64.5 l 2
 42.5 73.6639487877 44.8071665204 82.4191899331 50.4425870101 89.3719814463 c 0
 57.6231951847 98.2311733501 68.5686401598 102 80 102 c 2
 102.5 102 l 1
 102.5 599 l 1
 90 599 l 2
 80.8360512123 599 72.0808100669 601.30716652 65.1280185537 606.94258701 c 0
 56.2688266499 614.123195185 52.5 625.06864016 52.5 636.5 c 2
 52.5 662.5 l 2
 52.5 674.288039191 56.1920855184 685.428994655 65.3185207059 692.538007327 c 0
322.44258701 687.371981446 m 0
 329.623195185 696.23117335 340.56864016 700 352 700 c 2
 465 700 l 2
 476.41506486 700 487.648192991 696.893631753 494.962716711 687.688699031 c 0
 500.643333014 680.791069697 502.5 672.258833655 502.5 663.384821519 c 2
 502.5 132.705066478 l 2
 502.5 76.3435911967 484.769179072 39.847137209 448.743661355 20.3446107572 c 0
 420.711741924 5.16944368627 384.416924615 1 341 1 c 0
 331.771723842 1 322.999962882 2.85725922683 315.778024947 8.15641368614 c 0
 306.413790131 15.0274955385 302.5 26.0611502506 302.5 37.5 c 2
 302.5 64.5 l 2
 302.5 73.6639487877 304.80716652 82.4191899331 310.44258701 89.3719814463 c 0
 317.623195185 98.2311733501 328.56864016 102 340 102 c 0
 355.607369518 102 368.514374822 103.810447166 376.923599502 107.662955865 c 0
 386.601894988 112.096862554 392.5 118.728118069 392.5 135.799808429 c 2
 392.5 599 l 1
 352 599 l 2
 343.104708159 599 334.412003949 600.936542567 327.318520706 606.461992673 c 0
 318.192085518 613.571005345 314.5 624.711960809 314.5 636.5 c 2
 314.5 662.5 l 2
 314.5 671.663948788 316.80716652 680.419189933 322.44258701 687.371981446 c 0
EndSplineSet
Validated: 1
PickledDataWithLists: "(dp0
Vcom.schriftgestaltung.Glyphs.lastChange
p1
V2016-06-09 18:35:33 +0000
p2
s."
EndChar

StartChar: J
Encoding: 74 74 57
GlifName: J_
Width: 575
VWidth: 0
Flags: W
AnchorPoint: "mark-top" 288 700 basechar 0
AnchorPoint: "mark-bottom" 288 0 basechar 0
LayerCount: 2
Fore
SplineSet
155.44258701 687.371981446 m 0
 162.623195185 696.23117335 173.56864016 700 185 700 c 2
 465 700 l 2
 476.43135984 700 487.376804815 696.359364733 494.55741299 687.801505887 c 0
 500.19283348 681.085203881 502.5 672.627760053 502.5 663.775510204 c 2
 502.5 272.551020408 l 2
 502.5 157.260847808 463.659937329 82.0706843653 405.055002749 38.5070031833 c 0
 358.374142789 3.80702245317 300.584969702 -10 243 -10 c 0
 194.265635185 -10 140.849531611 0.273716213636 92.2302465371 20.9430183968 c 0
 78.220774144 26.5982823784 68.8264106208 38.447447607 68.8264101108 53.0607300001 c 0
 68.8264101108 58.885203405 70.0794050252 64.595586173 72.4559720181 70.299346956 c 2
 82.4242568819 94.2232306291 l 2
 87.9419568132 107.942593356 99.1853583207 118.475217796 114.50770955 118.475217796 c 0
 119.931357613 118.475217796 125.224544256 117.253203695 130.440203411 115.188644878 c 0
 173.428051794 99.5727209276 207.968669138 93.0000000279 237 93 c 0
 270.002951952 93 304.018922699 101.172741975 331.416934834 121.774136838 c 0
 365.430459649 147.349935985 391.5 193.453670664 391.5 273.578154426 c 2
 391.5 599 l 1
 185 599 l 2
 173.56864016 599 162.623195185 602.76882665 155.44258701 611.628018554 c 0
 149.80716652 618.580810067 147.5 627.336051212 147.5 636.5 c 2
 147.5 662.5 l 2
 147.5 671.663948788 149.80716652 680.419189933 155.44258701 687.371981446 c 0
EndSplineSet
EndChar

StartChar: K
Encoding: 75 75 59
GlifName: K_
Width: 575
VWidth: 0
Flags: W
AnchorPoint: "mark-bottom" 288 -0 basechar 0
AnchorPoint: "mark-top" 288 700 basechar 0
LayerCount: 2
Fore
SplineSet
529.060189959 26.5766612083 m 0
 529.060189959 8.63166727381 511.771663542 0 495 0 c 2
 443 0 l 2
 423.200483783 0 411.49069796 9.32538790329 402.864334583 21.1866375475 c 2
 184.614932418 323 l 1
 182.5 323 l 1
 182.5 37.5 l 2
 182.5 28.3360512123 180.19283348 19.5808100669 174.55741299 12.6280185537 c 0
 167.376804815 3.7688266499 156.43135984 0 145 0 c 2
 110 0 l 2
 100.836051212 0 92.0808100669 2.30716652042 85.1280185537 7.94258701007 c 0
 76.2688266499 14.8728453506 72.5 25.4366805418 72.5 36.4694893165 c 2
 72.5 663.80742669 l 2
 72.5 672.651877045 74.8071665204 681.101869232 80.4425870101 687.812253673 c 0
 87.6231951847 696.362572405 98.5686401598 700 110 700 c 2
 145 700 l 2
 156.43135984 700 167.376804815 696.23117335 174.55741299 687.371981446 c 0
 180.19283348 680.419189933 182.5 671.663948788 182.5 662.5 c 2
 182.5 399 l 1
 185.581901244 399 l 1
 386.884356662 679.840971578 l 2
 397.049488783 693.818028245 410.973120677 700 427 700 c 2
 480 700 l 2
 496.19064944 700 514.060189959 692.255475872 514.060189959 674.126516836 c 0
 514.060189959 665.983175868 510.490421273 658.659177486 505.013722875 651.744300995 c 2
 278.619858562 359.666604466 l 1
 519.935063304 49.3216070898 l 2
 525.473372412 42.3289409479 529.060189959 34.7528546788 529.060189959 26.5766612083 c 0
EndSplineSet
EndChar

StartChar: L
Encoding: 76 76 61
GlifName: L_
Width: 575
VWidth: 0
Flags: W
AnchorPoint: "mark-centerright" 370 400 basechar 0
AnchorPoint: "mark-bottom" 288 0 basechar 0
AnchorPoint: "mark-topright" 390 700 basechar 0
AnchorPoint: "mark-top" 288 700 basechar 0
LayerCount: 2
Fore
SplineSet
182.5 664.004815409 m 2
 182.5 102 l 1
 529 102 l 2
 538.163948788 102 546.919189933 99.6928334796 553.871981446 94.0574129899 c 0
 562.73117335 86.8768048153 566.5 75.9313598402 566.5 64.5 c 2
 566.5 37.5 l 2
 566.5 28.3360512123 564.19283348 19.5808100669 558.55741299 12.6280185537 c 0
 551.376804815 3.7688266499 540.43135984 0 529 0 c 2
 110 0 l 2
 100.836051212 0 92.0808100669 2.30716652042 85.1280185537 7.94258701007 c 0
 76.2688266499 14.8728453506 72.5 25.4366805418 72.5 36.4694893165 c 2
 72.5 663.80742669 l 2
 72.5 672.651877045 74.8071665204 681.101869232 80.4425870101 687.812253673 c 0
 87.6231951847 696.362572405 98.5686401598 700 110 700 c 2
 145 700 l 2
 156.43135984 700 167.376804815 696.382410375 174.55741299 687.878723764 c 0
 180.19283348 681.204936726 182.5 672.801029494 182.5 664.004815409 c 2
EndSplineSet
PickledDataWithLists: "(dp0
Vcom.schriftgestaltung.Glyphs.lastChange
p1
V2016-06-09 18:35:33 +0000
p2
s."
EndChar

StartChar: Lambda
Encoding: 923 923 63
GlifName: L_ambda
Width: 575
VWidth: 0
Flags: W
LayerCount: 2
Fore
SplineSet
152.896943333 615.0105767 m 2
 169.340511703 676.410141336 218.474921086 710 288 710 c 0
 356.482070727 710 406.712552188 676.587637196 422.128995368 614.910796925 c 2
 570.070864125 42.4812397311 l 2
 571.238627183 38.5725594479 571.875577146 34.6837828067 571.875577146 30.8005159687 c 0
 571.875577146 21.0771287609 567.424699817 11.9122438261 559.186309039 6.33822737887 c 0
 552.784659976 1.8530487105 545.081979656 0 537 0 c 2
 501 0 l 2
 492.616533163 0 484.563087211 1.76054014058 477.662321447 6.2516517767 c 0
 468.914925423 11.7178553725 463.479474773 20.427765318 460.870988334 30.4634151904 c 2
 460.870988334 30.4634151904 314.870988334 592.165862849 314.831579637 592.321951658 c 0
 312.322356062 602.561451404 304.809958777 609 288 609 c 0
 271.190041223 609 263.839690742 602.523550347 261.124165822 592.147181951 c 2
 114.192649024 30.7030440691 l 2
 111.984193055 20.4491324779 106.391851969 11.5399637541 97.52514007 6.160745516 c 0
 90.5044074758 1.72480268612 82.3817640477 -8.881784197e-16 74 0 c 2
 39 0 l 2
 30.5069530533 0 22.5189762391 1.87546304723 15.9588905916 6.59707660269 c 0
 7.48994133634 12.4833841447 3.49054230104 21.9400958208 3.49054230104 31.530906131 c 0
 3.49054230104 35.0415399692 3.91604940798 38.5698061893 4.87100463175 42.2647439125 c 2
 152.896943333 615.0105767 l 2
EndSplineSet
Validated: 33
PickledDataWithLists: "(dp0
Vcom.schriftgestaltung.Glyphs.lastChange
p1
V2015-12-22 12:18:02 +0000
p2
s."
EndChar

StartChar: Lslash
Encoding: 321 321 66
GlifName: L_slash
Width: 575
VWidth: 0
Flags: W
LayerCount: 2
Fore
SplineSet
182.5 339.138841662 m 1
 182.5 102 l 1
 529 102 l 2
 538.163948788 102 546.919189933 99.6928334796 553.871981446 94.0574129899 c 0
 562.73117335 86.8768048153 566.5 75.9313598402 566.5 64.5 c 2
 566.5 37.5 l 2
 566.5 28.3360512123 564.19283348 19.5808100669 558.55741299 12.6280185537 c 0
 551.376804815 3.7688266499 540.43135984 0 529 0 c 2
 110 0 l 2
 100.836051212 0 92.0808100669 2.30716652042 85.1280185537 7.94258701007 c 0
 76.2688266499 14.8728453506 72.5 25.4366805418 72.5 36.4694893165 c 2
 72.5 258.452722606 l 1
 66.4142471372 254.922478258 59.6475564479 253.203784309 52.9341474549 253.203784309 c 0
 42.228337806 253.203784309 31.6188032505 257.595676402 24.413370963 266.150765241 c 0
 17.7442797046 273.552826853 10.9001103833 280.839304807 4.39353789876 288.37497206 c 0
 -1.60740712072 295.325040621 -4.51979415206 303.677156439 -4.51979415206 311.927122565 c 0
 -4.51979415206 323.716456814 1.25220502074 334.99745364 11.4620403773 342.387857933 c 2
 72.5 387.016561536 l 1
 72.5 663.80742669 l 2
 72.5 672.651877045 74.8071665204 681.101869232 80.4425870101 687.812253673 c 0
 87.6231951847 696.362572405 98.5686401598 700 110 700 c 2
 145 700 l 2
 156.41506486 700 167.648192991 696.893631753 174.962716711 687.688699031 c 0
 180.643333014 680.832601564 182.5 672.351739649 182.5 663.531159536 c 2
 182.5 467.880534544 l 1
 250.659028422 516.905489047 l 2
 257.188544561 521.459827088 264.72183099 523.582863468 272.098876178 523.582863468 c 0
 283.445928405 523.582863468 294.377902034 518.694820483 301.697623299 509.970340593 c 0
 308.092225995 502.546395306 314.791109439 495.283109202 320.913277452 487.650104019 c 0
 326.768706912 480.349663502 329.902780991 471.891683771 329.902780991 463.344962615 c 0
 329.902780991 452.087631881 324.35126826 441.403044809 314.50122136 434.317936026 c 2
 182.5 339.138841662 l 1
EndSplineSet
PickledDataWithLists: "(dp0
Vcom.schriftgestaltung.Glyphs.lastChange
p1
V2016-06-09 18:35:33 +0000
p2
s."
EndChar

StartChar: M
Encoding: 77 77 67
GlifName: M_
Width: 575
VWidth: 0
Flags: W
AnchorPoint: "mark-top" 288 700 basechar 0
AnchorPoint: "mark-bottom" 288 0 basechar 0
LayerCount: 2
Fore
SplineSet
481 700 m 2
 498 700 l 2
 507.793363933 700 516.90205608 697.865252204 524.223152992 692.297603194 c 0
 533.588151053 685.423804118 537.452585581 674.704585178 537.499565976 663.741223985 c 2
 557.5 37.3472518664 l 1
 557.5 37.1581580704 l 2
 557.5 16.236044966 540.677644866 0 519 0 c 2
 485 0 l 2
 462.358206769 0 448.834940013 18.0534157551 447.527986227 37.6577225312 c 0
 442.081787729 192.759094859 436.661858392 347.886736349 431.225732675 502.998181458 c 1
 342.269355394 325.085426897 l 2
 335.371768376 310.279811041 322.769781002 300 302 300 c 2
 274 300 l 2
 253.250549209 300 240.625713135 310.285216959 233.730644606 325.085426897 c 2
 144.774267325 502.998181458 l 1
 139.338229092 347.886648865 133.918147539 192.759159591 128.472013773 37.6577225312 c 0
 127.165059987 18.0534157551 113.641793231 0 91 0 c 2
 57 0 l 2
 35.3223551342 0 18.5 16.236044966 18.5 37.1581580704 c 2
 18.5 37.3472518664 l 1
 38.5004340244 663.741223985 l 2
 38.5474144194 674.704585178 42.4118489475 685.423804118 51.7768470076 692.297603194 c 0
 59.0979439201 697.865252204 68.2066360669 700 78 700 c 2
 95 700 l 2
 126.794798951 700 151.233906195 686.050461213 165.218392721 657.017468989 c 2
 288 414.203096385 l 1
 410.781607279 657.017468989 l 2
 424.766093805 686.050461213 449.205201049 700 481 700 c 2
EndSplineSet
EndChar

StartChar: N
Encoding: 78 78 69
GlifName: N_
Width: 575
VWidth: 0
Flags: W
AnchorPoint: "mark-top" 288 700 basechar 0
AnchorPoint: "mark-bottom" 288 0 basechar 0
LayerCount: 2
Fore
SplineSet
416.44258701 687.371981446 m 0
 423.623195185 696.23117335 434.56864016 700 446 700 c 2
 481 700 l 2
 492.43135984 700 503.376804815 696.36113289 510.55741299 687.807430362 c 0
 516.19283348 681.09439028 518.5 672.641054002 518.5 663.793103448 c 2
 518.5 36.2068965517 l 2
 518.5 27.358945998 516.19283348 18.9056097197 510.55741299 12.192569638 c 0
 503.376804815 3.63886711025 492.43135984 0 481 0 c 2
 463 0 l 2
 426.559164361 0 406.093115576 17.3796699655 392.853375586 42.8407084088 c 2
 166.5 487.398738059 l 1
 166.5 37.5 l 2
 166.5 28.3360512123 164.19283348 19.5808100669 158.55741299 12.6280185537 c 0
 151.376804815 3.7688266499 140.43135984 0 129 0 c 2
 94 0 l 2
 84.8360512123 0 76.0808100669 2.30716652042 69.1280185537 7.94258701007 c 0
 60.2688266499 14.8728453506 56.5 25.4366805418 56.5 36.4694893165 c 2
 56.5 663.80742669 l 2
 56.5 672.651877045 58.8071665204 681.101869232 64.4425870101 687.812253673 c 0
 71.6231951847 696.362572405 82.5686401598 700 94 700 c 2
 112 700 l 2
 148.288807615 700 169.44095725 688.553154026 182.230761865 661.991760162 c 2
 408.5 209.453283891 l 1
 408.5 662.5 l 2
 408.5 671.663948788 410.80716652 680.419189933 416.44258701 687.371981446 c 0
EndSplineSet
EndChar

StartChar: O
Encoding: 79 79 74
GlifName: O_
Width: 575
VWidth: 0
Flags: W
AnchorPoint: "mark-top" 288 700 basechar 0
AnchorPoint: "mark-bottom" 288 0 basechar 0
LayerCount: 2
Fore
SplineSet
62.5 246.590604027 m 2
 62.5 453.409395973 l 2
 62.5 527.176051485 81.8075732048 586.122108857 114.954637657 629.009696284 c 0
 156.49229359 682.753515829 219.002026443 710 288 710 c 0
 413.566825604 710 512.5 617.970782868 512.5 453.409395973 c 2
 512.5 246.590604027 l 2
 512.5 82.0292171323 413.566825604 -10 288 -10 c 0
 219.002026443 -10 156.49229359 17.2464841712 114.954637657 70.9903037165 c 0
 81.8075732048 113.877891143 62.5 172.823948515 62.5 246.590604027 c 2
172.5 452.087638376 m 2
 172.5 248.912361624 l 2
 172.5 146.043921485 232.260346982 92 288 92 c 0
 343.656153633 92 402.5 145.930496991 402.5 248.912361624 c 2
 402.5 452.087638376 l 2
 402.5 555.069503009 343.656153633 609 288 609 c 0
 232.260346982 609 172.5 554.956078515 172.5 452.087638376 c 2
EndSplineSet
PickledDataWithLists: "(dp0
Vcom.schriftgestaltung.Glyphs.lastChange
p1
V2016-06-09 18:35:33 +0000
p2
s."
EndChar

StartChar: OE
Encoding: 338 338 75
GlifName: O_E_
Width: 575
VWidth: 0
Flags: W
LayerCount: 2
Fore
SplineSet
475 313.5 m 2
 385.5 313.5 l 1
 385.5 102 l 1
 493 102 l 2
 504.788039191 102 515.928994655 98.3079144816 523.038007327 89.1814792941 c 0
 528.563457433 82.0879960506 530.5 73.3952918412 530.5 64.5 c 2
 530.5 37.5 l 2
 530.5 28.6047081588 528.563457433 19.9120039494 523.038007327 12.8185207059 c 0
 515.928994655 3.69208551836 504.788039191 1.7763568394e-15 493 0 c 2
 288 0 l 2
 204.166555717 0 145.647567897 34.8273473412 111.452554557 91.1751956679 c 0
 84.302110588 135.914733669 72.5 193.126019778 72.5 256.344827586 c 2
 72.5 443.655172414 l 2
 72.5 508.179230899 84.7077075809 565.573871623 112.155273418 610.089192307 c 0
 146.722627393 666.151608061 205.35384024 700 288 700 c 2
 482 700 l 2
 490.895291841 700 499.587996051 698.063457433 506.681479294 692.538007327 c 0
 515.807914482 685.428994655 519.5 674.288039191 519.5 662.5 c 2
 519.5 636.5 l 2
 519.5 624.711960809 515.807914482 613.571005345 506.681479294 606.461992673 c 0
 499.587996051 600.936542567 490.895291841 599 482 599 c 2
 385.5 599 l 1
 385.5 415.5 l 1
 475 415.5 l 2
 486.43135984 415.5 497.376804815 411.73117335 504.55741299 402.871981446 c 0
 510.19283348 395.919189933 512.5 387.163948788 512.5 378 c 2
 512.5 351 l 2
 512.5 339.56864016 508.73117335 328.623195185 499.871981446 321.44258701 c 0
 492.919189933 315.80716652 484.163948788 313.5 475 313.5 c 2
182.5 447 m 2
 182.5 253 l 2
 182.5 166.229487585 204.857238689 97.2705525659 275.5 90.1133625226 c 1
 275.5 610.877608477 l 1
 204.927204466 603.623602163 182.5 533.825161869 182.5 447 c 2
EndSplineSet
Validated: 1
PickledDataWithLists: "(dp0
Vcom.schriftgestaltung.Glyphs.lastChange
p1
V2016-06-09 18:35:33 +0000
p2
s."
EndChar

StartChar: Oslash
Encoding: 216 216 83
GlifName: O_slash
Width: 575
VWidth: 0
Flags: W
LayerCount: 2
Fore
SplineSet
525.578025562 765.687629164 m 2
 537.984938998 759.484172446 546.873841463 748.277052233 546.873841463 734.33602134 c 0
 546.873841463 727.965524525 545.126125441 721.79896699 542.187629164 715.921974438 c 2
 476.790726724 589.482610141 l 1
 493.145757176 551.972814982 502.5 506.612703411 502.5 453.536290842 c 2
 502.5 246.660865941 l 2
 502.5 173.965301213 485.52563077 115.296205488 454.924495077 72.2022520777 c 0
 416.514279023 18.1111857279 357.157565826 -10 288 -10 c 0
 248.168272413 -10 211.819889523 -0.971424117995 180.883945692 17.4231429849 c 1
 129.187629164 -85.0780255625 l 2
 122.984172446 -97.4849389984 111.777052233 -106.373841463 97.8360213396 -106.373841463 c 0
 91.4655245252 -106.373841463 85.2989669904 -104.626125441 79.4219744375 -101.687629164 c 2
 47.4219744375 -85.6876291644 l 2
 35.0150610016 -79.4841724464 26.1261585369 -68.2770522325 26.1261585369 -54.3360213396 c 0
 26.1261585369 -47.9655245252 27.8738745592 -41.7989669904 30.8123708356 -35.9219744375 c 2
 102.035369381 101.904683674 l 1
 82.7369142315 140.854088249 72.5 189.235052972 72.5 246.049563247 c 2
 72.5 453.109820734 l 2
 72.5 526.727570666 89.6733102476 585.578909771 120.530910733 628.574467758 c 0
 159.266449893 682.546782321 218.943298959 710 288 710 c 0
 329.933687156 710 368.277628063 699.239217257 400.366609592 678.186503076 c 1
 443.812370836 765.078025562 l 2
 450.015827554 777.484938998 461.222947767 786.373841463 475.16397866 786.373841463 c 0
 481.534475475 786.373841463 487.70103301 784.626125441 493.578025562 781.687629164 c 2
 525.578025562 765.687629164 l 2
351.099780948 579.652845788 m 1
 333.067359136 599.218043825 311.564681937 609 288 609 c 0
 233.10777321 609 182.5 553.575748068 182.5 444.5 c 2
 182.5 242.453283891 l 1
 351.099780948 579.652845788 l 1
288 91 m 1
 342.806057032 91 392.5 146.295471162 392.5 255.5 c 2
 392.5 441.546716109 l 1
 229.173054928 114.892825964 l 1
 245.978239105 99.1849660723 280.440593651 94.0702865849 288 91 c 1
EndSplineSet
PickledDataWithLists: "(dp0
Vcom.schriftgestaltung.Glyphs.lastChange
p1
V2016-06-09 18:35:33 +0000
p2
s."
EndChar

StartChar: P
Encoding: 80 80 85
GlifName: P_
Width: 575
VWidth: 0
Flags: W
AnchorPoint: "mark-top" 288 700 basechar 0
AnchorPoint: "mark-bottom" 288 0 basechar 0
LayerCount: 2
Fore
SplineSet
80.4425870101 687.812253673 m 0
 87.6231951847 696.362572405 98.5686401598 700 110 700 c 2
 245 700 l 2
 432.263352852 700 529.5 594.086298756 529.5 473.75 c 0
 529.5 350.379948206 430.103344479 247.5 245 247.5 c 2
 182.5 247.5 l 1
 182.5 35.6971153846 l 2
 182.5 26.9737410578 180.19283348 18.6394249675 174.55741299 12.0209022771 c 0
 167.376804815 3.58763306096 156.43135984 0 145 0 c 2
 110 0 l 2
 100.836051212 0 92.0808100669 2.30716652042 85.1280185537 7.94258701007 c 0
 76.2688266499 14.8728453506 72.5 25.4366805418 72.5 36.4694893165 c 2
 72.5 663.80742669 l 2
 72.5 672.651877045 74.8071665204 681.101869232 80.4425870101 687.812253673 c 0
245 599 m 2
 182.5 599 l 1
 182.5 349.5 l 1
 245 349.5 l 2
 299.961893997 349.5 340.593080967 361.693806632 368.494353933 380.31199557 c 0
 403.198444396 403.469624039 419.5 437.090068919 419.5 473.773854962 c 0
 419.5 538.502594411 367.208385664 599 245 599 c 2
EndSplineSet
PickledDataWithLists: "(dp0
Vcom.schriftgestaltung.Glyphs.lastChange
p1
V2016-06-09 18:35:33 +0000
p2
s."
EndChar

StartChar: Phi
Encoding: 934 934 86
GlifName: P_hi
Width: 575
VWidth: 0
Flags: W
LayerCount: 2
Fore
SplineSet
566.5 662.5 m 2
 566.5 636.5 l 2
 566.5 627.336051212 564.19283348 618.580810067 558.55741299 611.628018554 c 0
 551.376804815 602.76882665 540.43135984 599 529 599 c 2
 342.5 599 l 1
 342.5 550.988934715 l 1
 464.80342702 534.992210646 542.5 460.912332518 542.5 350 c 0
 542.5 240.791719789 464.708081647 166.897702615 342.5 149.17225142 c 1
 342.5 101 l 1
 529 101 l 2
 538.163948788 101 546.919189933 98.6928334796 553.871981446 93.0574129899 c 0
 562.73117335 85.8768048153 566.5 74.9313598402 566.5 63.5 c 2
 566.5 37.5 l 2
 566.5 25.7119608085 562.807914482 14.571005345 553.681479294 7.46199267255 c 0
 546.587996051 1.93654256709 537.895291841 0 529 0 c 2
 47 0 l 2
 35.2119608085 0 24.071005345 3.69208551836 16.9619926725 12.8185207059 c 0
 11.4365425671 19.9120039494 9.5 28.6047081588 9.5 37.5 c 2
 9.5 63.5 l 2
 9.5 72.4043204466 11.4340618969 81.0053403454 16.7728622041 88.0495907508 c 0
 23.6576505083 97.1336864299 34.5630730446 101 46 101 c 2
 232.5 101 l 1
 232.5 149.013311818 l 1
 110.1449372 165.065753819 32.5 240.017840451 32.5 350 c 0
 32.5 459.144054861 109.340084918 533.127983042 232.5 549.967033653 c 1
 232.5 599 l 1
 46 599 l 2
 34.5630730446 599 23.6576505083 602.86631357 16.7728622041 611.950409249 c 0
 11.4340618969 618.994659655 9.5 627.595679553 9.5 636.5 c 2
 9.5 662.5 l 2
 9.5 671.395291841 11.4365425671 680.087996051 16.9619926725 687.181479294 c 0
 24.071005345 696.307914482 35.2119608085 700 47 700 c 2
 529 700 l 2
 537.895291841 700 546.587996051 698.063457433 553.681479294 692.538007327 c 0
 562.807914482 685.428994655 566.5 674.288039191 566.5 662.5 c 2
232.5 456.49177576 m 1
 174.108161707 441.461408722 142.5 403.824859109 142.5 350 c 0
 142.5 296.056985757 174.243562843 257.657357353 232.5 243.317923589 c 1
 232.5 456.49177576 l 1
342.5 243.50822424 m 1
 400.891838293 258.538591278 432.5 296.175140891 432.5 350 c 0
 432.5 403.943014243 400.756437157 442.342642647 342.5 456.682076411 c 1
 342.5 243.50822424 l 1
EndSplineSet
Validated: 1
PickledDataWithLists: "(dp0
Vcom.schriftgestaltung.Glyphs.lastChange
p1
V2015-12-22 12:22:42 +0000
p2
s."
EndChar

StartChar: Pi
Encoding: 928 928 87
GlifName: P_i
Width: 575
VWidth: 0
Flags: W
LayerCount: 2
Fore
SplineSet
85.3185207059 692.538007327 m 0
 92.4120039494 698.063457433 101.104708159 700 110 700 c 2
 465 700 l 2
 476.41506486 700 487.648192991 696.893631753 494.962716711 687.688699031 c 0
 500.643333014 680.790717343 502.5 672.258045444 502.5 663.383579993 c 2
 502.5 36.1845589087 l 2
 502.5 27.6012999317 500.563457433 19.2135221306 495.038007327 12.3688671362 c 0
 487.928994655 3.56257295827 476.788039191 0 465 0 c 2
 430 0 l 2
 418.56864016 0 407.623195185 3.61783199245 400.44258701 12.1220883232 c 0
 394.80716652 18.7963224841 392.5 27.2007927502 392.5 35.9975961538 c 2
 392.5 599 l 1
 182.5 599 l 1
 182.5 35.9975961538 l 2
 182.5 27.4586861973 180.563457433 19.1142473809 175.038007327 12.3049581776 c 0
 167.928994655 3.54416542548 156.788039191 0 145 0 c 2
 110 0 l 2
 100.836051212 0 92.0808100669 2.30716652042 85.1280185537 7.94258701007 c 0
 76.2688266499 14.8702127116 72.5 25.4300349549 72.5 36.4586526299 c 2
 72.5 663.558279354 l 2
 72.5 674.931010088 76.1920855184 685.679454722 85.3185207059 692.538007327 c 0
EndSplineSet
Validated: 1
PickledDataWithLists: "(dp0
Vcom.schriftgestaltung.Glyphs.lastChange
p1
V2015-12-22 12:20:26 +0000
p2
s."
EndChar

StartChar: Psi
Encoding: 936 936 88
GlifName: P_si
Width: 575
VWidth: 0
Flags: W
LayerCount: 2
Fore
SplineSet
232.5 36.2068965517 m 2
 232.5 215.778165502 l 1
 114.31812142 232.068035868 42.5 302.637345669 42.5 430.137931034 c 2
 42.5 663.793103448 l 2
 42.5 672.641054002 44.8071665204 681.09439028 50.4425870101 687.807430362 c 0
 57.6231951847 696.36113289 68.5686401598 700 80 700 c 2
 115 700 l 2
 123.895291841 700 132.587996051 698.063457433 139.681479294 692.538007327 c 0
 148.807914482 685.428994655 152.5 674.288039191 152.5 662.5 c 2
 152.5 420.5 l 2
 152.5 391.121899989 158.675999802 366.58176848 170.661802129 347.584853627 c 0
 183.474123087 327.277946866 203.332566942 312.229691852 232.5 304.142528478 c 1
 232.5 662.5 l 2
 232.5 671.663948788 234.80716652 680.419189933 240.44258701 687.371981446 c 0
 247.623195185 696.23117335 258.56864016 700 270 700 c 2
 305 700 l 2
 316.788039191 700 327.928994655 696.307914482 335.038007327 687.181479294 c 0
 340.563457433 680.087996051 342.5 671.395291841 342.5 662.5 c 2
 342.5 304.142528478 l 1
 371.667433058 312.229691852 391.525876913 327.277946866 404.338197871 347.584853627 c 0
 416.324000198 366.58176848 422.5 391.121899989 422.5 420.5 c 2
 422.5 662.5 l 2
 422.5 671.663948788 424.80716652 680.419189933 430.44258701 687.371981446 c 0
 437.623195185 696.23117335 448.56864016 700 460 700 c 2
 495 700 l 2
 504.197084736 700 513.039950473 698.143333014 520.188699031 692.462716711 c 0
 529.393631753 685.403067689 532.5 674.561358089 532.5 663.54405135 c 2
 532.5 429.976545275 l 2
 532.5 374.963610009 519.418435053 328.613236542 492.351852565 292.830508028 c 0
 460.169634007 250.284775105 409.319011831 224.345277893 342.5 215.616057318 c 1
 342.5 36.1933118918 l 2
 342.5 27.6079766391 340.563457433 19.2181698488 335.038007327 12.371859144 c 0
 327.928994655 3.5634347386 316.788039191 1.7763568394e-15 305 0 c 2
 270 0 l 2
 258.56864016 0 247.623195185 3.63886711025 240.44258701 12.192569638 c 0
 234.80716652 18.9056097197 232.5 27.358945998 232.5 36.2068965517 c 2
EndSplineSet
Validated: 1
PickledDataWithLists: "(dp0
Vcom.schriftgestaltung.Glyphs.lastChange
p1
V2015-12-22 12:24:48 +0000
p2
s."
EndChar

StartChar: Q
Encoding: 81 81 89
GlifName: Q_
Width: 575
VWidth: 0
Flags: W
AnchorPoint: "mark-top" 288 700 basechar 0
LayerCount: 2
Fore
SplineSet
232.5 7.5 m 2
 232.5 20 l 1
 343.5 20 l 1
 343.5 7.5 l 2
 343.5 -39.3103873734 351.03476892 -69.3114615592 362.502173583 -87.3932352523 c 0
 376.371825467 -109.262866082 397.015633182 -117 427 -117 c 0
 450.559723678 -117 471.733051309 -113.362619317 497.52401794 -103.825531217 c 0
 502.396099883 -101.893314616 513.012230688 -100.502237401 513.513359553 -100.524782204 c 0
 528.666460398 -100.524782204 540.747473086 -110.999231692 546.517819078 -124.638231308 c 0
 550.214031996 -133.37473457 554.087464763 -142.055833119 557.611086961 -150.864888614 c 0
 559.808404296 -156.358181951 561.148293678 -161.965708781 561.148293678 -167.75377367 c 0
 561.148293678 -182.725917554 550.96642496 -194.560029883 536.018843359 -199.341736844 c 0
 501.96193484 -211.699139097 463.824426948 -220 427 -220 c 0
 371.689063561 -220 317.176769032 -202.379950543 279.894736151 -156.262075869 c 0
 250.171807133 -119.494812674 232.5 -66.0169929338 232.5 7.5 c 2
EndSplineSet
Refer: 74 79 N 1 0 0 1 0 0 2
EndChar

StartChar: R
Encoding: 82 82 90
GlifName: R_
Width: 575
VWidth: 0
Flags: W
AnchorPoint: "mark-bottom" 288 0 basechar 0
AnchorPoint: "mark-top" 288 700 basechar 0
LayerCount: 2
Fore
SplineSet
307.273358054 299.5 m 1
 182.5 299.5 l 1
 182.5 35.9975961538 l 2
 182.5 27.2007927502 180.19283348 18.7963224841 174.55741299 12.1220883232 c 0
 167.376804815 3.61783199245 156.43135984 0 145 0 c 2
 110 0 l 2
 100.836051212 0 92.0808100669 2.30716652042 85.1280185537 7.94258701007 c 0
 76.2688266499 14.8728453506 72.5 25.4366805418 72.5 36.4694893165 c 2
 72.5 663.80742669 l 2
 72.5 672.651877045 74.8071665204 681.101869232 80.4425870101 687.812253673 c 0
 87.6231951847 696.362572405 98.5686401598 700 110 700 c 2
 268 700 l 2
 338.050874388 700 394.172579713 683.305392282 435.110614967 654.204572517 c 0
 486.444018204 617.714201002 512.5 562.440999645 512.5 500.674099855 c 0
 512.5 431.130520221 477.403343356 365.474765866 414.635611973 330.516085408 c 1
 562.187629164 46.5952451196 l 2
 565.324107825 40.5402191411 567.193432413 34.4380443123 567.193432413 28.1720667984 c 0
 567.193432413 18.9394304512 562.430613544 10.3025749233 554.30089008 5.39752659414 c 0
 548.047404119 1.48870347072 540.753332682 0 533 0 c 2
 491 0 l 2
 472.702504597 0 458.590115664 8.99122497305 450.812370836 23.9234978975 c 2
 307.273358054 299.5 l 1
268 599 m 2
 182.5 599 l 1
 182.5 401.5 l 1
 268 401.5 l 2
 363.534543754 401.5 402.5 452.32094574 402.5 499.779761905 c 0
 402.5 548.083615994 361.534789893 599 268 599 c 2
EndSplineSet
EndChar

StartChar: S
Encoding: 83 83 94
GlifName: S_
Width: 575
VWidth: 0
Flags: W
AnchorPoint: "mark-bottom" 288 0 basechar 0
AnchorPoint: "mark-top" 288 700 basechar 0
LayerCount: 2
Back
SplineSet
467 652 m 258
 458 625 l 258
 453 610 442 605 427 611 c 256
 392 624 354 634 316 634 c 256
 239 634 168 593 168 524 c 256
 168 474 206 421 292 403 c 256
 441 372 514 291 514 195 c 256
 514 69 387 -10 250 -10 c 256
 202 -10 147 0 101 20 c 256
 86 26 82 38 88 53 c 258
 98 77 l 258
 104 92 115 97 130 91 c 256
 169 75 221 69 255 69 c 256
 348 69 428 113 428 190 c 256
 428 246 385 297 284 318 c 256
 138 349 82 434 82 521 c 256
 82 646 196 710 316 710 c 256
 359 710 415 701 456 683 c 256
 471 676 472 668 467 652 c 258
EndSplineSet
Fore
SplineSet
86.3889130391 95.1351113864 m 2
 91.8938552487 108.89746691 103.152569522 119.475217796 118.50770955 119.475217796 c 0
 123.998930245 119.475217796 129.457817123 118.181485575 134.736510049 116.070008405 c 0
 171.458293306 101.004661428 222.595567444 94 255 94 c 0
 345.785081796 94 415.5 134.685863898 415.5 198.268330733 c 0
 415.5 264.69972391 354.88772002 285.016996424 274.886115875 310.217628334 c 0
 182.282638079 339.387870388 69.5 374.923718491 69.5 516.358814353 c 0
 69.5 645.832560354 192.675680285 710 316 710 c 0
 360.732254666 710 417.844305584 700.904761859 461.145842189 681.894331155 c 0
 473.234615454 676.252903631 482.649105056 666.505728957 482.649105056 652.844713459 c 0
 482.649105056 646.670864449 481.032660973 640.983526135 478.750299672 635.214812666 c 0
 475.728417136 626.149165057 473.153087043 616.719888818 469.611086961 607.864888614 c 0
 464.296804232 594.57918179 453.745618613 583.524782204 438.305578111 583.524782204 c 0
 432.860796744 583.524782204 427.591438569 584.798293057 422.364888614 586.888913039 c 0
 388.864765659 600.288962221 351.971553011 609 316 609 c 0
 241.860038197 609 180.5 571.579157346 180.5 515.284937888 c 0
 180.5 447.353640658 242.915958533 425.966163397 323.962853487 399.819859886 c 0
 415.698318142 370.225347932 526.5 334.653311175 526.5 199.056677019 c 0
 526.5 63.5856655142 392.208388553 -10 250 -10 c 0
 200.339170995 -10 144.040291754 0.18582640048 96.1825015593 20.962321856 c 0
 82.1994337398 26.6252164871 72.8264101959 38.4640536074 72.8264101108 53.0607300001 c 0
 72.8264101108 58.885203405 74.1599450172 64.5626913316 76.3889130391 70.1351113864 c 2
 86.3889130391 95.1351113864 l 2
EndSplineSet
EndChar

StartChar: T
Encoding: 84 84 100
GlifName: T_
Width: 575
VWidth: 0
Flags: W
AnchorPoint: "mark-bottom" 288 -0 basechar 0
AnchorPoint: "mark-top" 288 700 basechar 0
LayerCount: 2
Fore
SplineSet
558.55741299 687.371981446 m 0
 564.19283348 680.419189933 566.5 671.663948788 566.5 662.5 c 2
 566.5 636.5 l 2
 566.5 627.336051212 564.19283348 618.580810067 558.55741299 611.628018554 c 0
 551.376804815 602.76882665 540.43135984 599 529 599 c 2
 342.5 599 l 1
 342.5 35.9975961538 l 2
 342.5 27.2007927502 340.19283348 18.7963224841 334.55741299 12.1220883232 c 0
 327.376804815 3.61783199245 316.43135984 0 305 0 c 2
 270 0 l 2
 258.56864016 0 247.623195185 3.61783199245 240.44258701 12.1220883232 c 0
 234.80716652 18.7963224841 232.5 27.2007927502 232.5 35.9975961538 c 2
 232.5 599 l 1
 47 599 l 2
 37.8360512123 599 29.0808100669 601.30716652 22.1280185537 606.94258701 c 0
 13.2688266499 614.123195185 9.5 625.06864016 9.5 636.5 c 2
 9.5 662.5 l 2
 9.5 673.93135984 13.2688266499 684.876804815 22.1280185537 692.05741299 c 0
 29.0808100669 697.69283348 37.8360512123 700 47 700 c 2
 529 700 l 2
 540.43135984 700 551.376804815 696.23117335 558.55741299 687.371981446 c 0
EndSplineSet
PickledDataWithLists: "(dp0
Vcom.schriftgestaltung.Glyphs.lastChange
p1
V2016-06-09 18:35:33 +0000
p2
s."
EndChar

StartChar: Theta
Encoding: 920 920 104
GlifName: T_heta
Width: 575
VWidth: 0
Flags: W
LayerCount: 2
Fore
SplineSet
221.44258701 312.128018554 m 0
 215.80716652 319.080810067 213.5 327.836051212 213.5 337 c 2
 213.5 364 l 2
 213.5 375.43135984 217.26882665 386.376804815 226.128018554 393.55741299 c 0
 233.080810067 399.19283348 241.836051212 401.5 251 401.5 c 2
 320 401.5 l 2
 331.43135984 401.5 342.376804815 397.73117335 349.55741299 388.871981446 c 0
 355.19283348 381.919189933 357.5 373.163948788 357.5 364 c 2
 357.5 337 l 2
 357.5 325.56864016 353.73117335 314.623195185 344.871981446 307.44258701 c 0
 337.919189933 301.80716652 329.163948788 299.5 320 299.5 c 2
 251 299.5 l 2
 239.56864016 299.5 228.623195185 303.26882665 221.44258701 312.128018554 c 0
EndSplineSet
Refer: 74 79 N 1 0 0 1 0 0 2
PickledDataWithLists: "(dp0
Vcom.schriftgestaltung.Glyphs.lastChange
p1
V2016-05-30 08:32:14 +0000
p2
s."
EndChar

StartChar: Thorn
Encoding: 222 222 105
GlifName: T_horn
Width: 575
VWidth: 0
Flags: W
LayerCount: 2
Fore
SplineSet
182.5 120.412429599 m 1
 182.5 36.2068965517 l 2
 182.5 27.358945998 180.19283348 18.9056097197 174.55741299 12.192569638 c 0
 167.376804815 3.63886711025 156.43135984 0 145 0 c 2
 110 0 l 2
 100.836051212 0 92.0808100669 2.30716652042 85.1280185537 7.94258701007 c 0
 76.2688266499 14.8728453506 72.5 25.4366805418 72.5 36.4694893165 c 2
 72.5 663.80742669 l 2
 72.5 672.651877045 74.8071665204 681.101869232 80.4425870101 687.812253673 c 0
 87.6231951847 696.362572405 98.5686401598 700 110 700 c 2
 145 700 l 2
 156.43135984 700 167.376804815 696.36113289 174.55741299 687.807430362 c 0
 180.19283348 681.09439028 182.5 672.641054002 182.5 663.793103448 c 2
 182.5 640.474059222 l 1
 213.131322835 643.25653375 239.503474922 644 259 644 c 0
 353.040673512 644 419.337842504 620.947051374 458.619937387 565.924697561 c 0
 489.706673706 522.381566531 502.5 461.391824562 502.5 380.896551724 c 0
 502.5 300.42038326 489.915154543 239.26710862 458.981610304 195.51145861 c 0
 419.881936256 140.204777944 353.616310891 116.827586207 259 116.827586207 c 0
 241.082258871 116.827586207 214.701577397 117.583971014 182.5 120.412429599 c 1
182.5 213.579674096 m 1
 214.251198631 211.289943526 241.482187562 210.5 259 210.5 c 0
 319.520603464 210.5 351.707921398 224.728151808 370.219044034 256.059636347 c 0
 385.523640547 281.963831269 392.5 322.766142532 392.5 382 c 0
 392.5 439.933384978 385.908859062 480.428763531 370.832595668 506.365376456 c 0
 352.609967836 537.714871503 320.570676169 552.5 259 552.5 c 0
 242.869903093 552.5 215.751080115 550.352332967 182.5 550.352332967 c 1
 182.5 213.579674096 l 1
EndSplineSet
Validated: 1
PickledDataWithLists: "(dp0
Vcom.schriftgestaltung.Glyphs.lastChange
p1
V2016-06-09 18:35:33 +0000
p2
s."
EndChar

StartChar: U
Encoding: 85 85 106
GlifName: U_
Width: 575
VWidth: 0
Flags: W
AnchorPoint: "mark-top" 288 700 basechar 0
AnchorPoint: "mark-bottom" 288 0 basechar 0
AnchorPoint: "mark-ogonek" 355 5 basechar 0
AnchorPoint: "topright" 555 700 basechar 0
LayerCount: 2
Fore
SplineSet
512.5 217.489795918 m 2
 512.5 67.7747326764 432.807160449 -10 288 -10 c 0
 143.197990811 -10 62.5 67.7753014252 62.5 217.489795918 c 2
 62.5 663.775510204 l 2
 62.5 672.627760053 64.8071665204 681.085203881 70.4425870101 687.801505887 c 0
 77.6231951847 696.359364733 88.5686401598 700 100 700 c 2
 135 700 l 2
 146.43135984 700 157.376804815 696.379786388 164.55741299 687.869931705 c 0
 170.19283348 681.191303895 172.5 672.781300965 172.5 663.978706625 c 2
 172.5 220.19637224 l 2
 172.5 174.485866776 180.952971162 144.085244018 195.505181753 124.887656481 c 0
 213.32688422 101.376885313 242.517085157 91 288 91 c 0
 332.891715328 91 361.830030605 101.345841849 379.564342145 124.863494662 c 0
 394.048618332 144.071242188 402.5 174.488606404 402.5 220.19637224 c 2
 402.5 663.978706625 l 2
 402.5 672.781300965 404.80716652 681.191303895 410.44258701 687.869931705 c 0
 417.623195185 696.379786388 428.56864016 700 440 700 c 2
 475 700 l 2
 486.43135984 700 497.376804815 696.359364733 504.55741299 687.801505887 c 0
 510.19283348 681.085203881 512.5 672.627760053 512.5 663.775510204 c 2
 512.5 217.489795918 l 2
EndSplineSet
EndChar

StartChar: V
Encoding: 86 86 117
GlifName: V_
Width: 575
VWidth: 0
Flags: W
AnchorPoint: "mark-bottom" 288 0 basechar 0
AnchorPoint: "mark-top" 288 700 basechar 0
LayerCount: 2
Fore
SplineSet
261.207345671 107.534977196 m 2
 263.483687016 97.6993296297 274.562083854 91 288 91 c 0
 301.437916146 91 312.252210096 97.7590849713 314.793168784 107.53474715 c 2
 460.920649177 669.721330324 l 2
 463.645115368 679.531197812 468.914925423 688.282144628 477.662321447 693.748348223 c 0
 484.563087211 698.239459859 492.616533163 700 501 700 c 2
 537 700 l 2
 545.081979656 700 552.784659976 698.146951289 559.186309039 693.661772621 c 0
 567.424699817 688.087756174 571.875577146 678.922871239 571.875577146 669.199484031 c 0
 571.875577146 665.31621596 571.238626778 661.427438082 570.070863012 657.518756544 c 2
 422.151860264 85.1791528756 l 2
 406.621114375 23.0450197097 351.417234888 -10 288 -10 c 0
 224.546014622 -10 169.460819589 23.1423595278 152.871004632 85.0880025192 c 2
 152.871004632 85.0880025192 4.87100463175 657.735256088 4.83157963701 657.892302576 c 0
 3.96665962083 661.442049297 3.49054230104 664.958460031 3.49054230104 668.469093869 c 0
 3.49054230104 678.059904179 7.48994133634 687.516615855 15.9588905916 693.402923397 c 0
 22.5189762391 698.124536953 30.5069530533 700 39 700 c 2
 74 700 l 2
 82.3817640477 700 90.5044074758 698.275197314 97.52514007 693.839254484 c 0
 106.391851969 688.460036246 111.984193055 679.550867522 114.192649024 669.296955931 c 2
 261.207345671 107.534977196 l 2
EndSplineSet
EndChar

StartChar: W
Encoding: 87 87 118
GlifName: W_
Width: 575
VWidth: 0
Flags: W
AnchorPoint: "mark-top" 288 700 basechar 0
AnchorPoint: "mark-bottom" 288 0 basechar 0
LayerCount: 2
Back
SplineSet
545 675 m 262
 525 20 l 262
 525 4 516 -5 498 -5 c 262
 482 -5 l 262
 454 -5 435 6 423 31 c 262
 288 301 l 261
 153 31 l 262
 141 6 122 -5 94 -5 c 262
 78 -5 l 262
 60 -5 51 4 51 20 c 262
 31 675 l 262
 31 690 42 700 57 700 c 262
 91 700 l 262
 106 700 115 690 116 675 c 262
 134 160 l 261
 245 382 l 262
 251 395 260 400 274 400 c 262
 302 400 l 262
 316 400 325 395 331 382 c 262
 442 160 l 261
 460 675 l 262
 461 690 470 700 485 700 c 262
 519 700 l 262
 534 700 545 690 545 675 c 262
EndSplineSet
Fore
Refer: 67 77 N 1 0 0 -1 0 700 2
EndChar

StartChar: X
Encoding: 88 88 123
GlifName: X_
Width: 575
VWidth: 0
Flags: W
AnchorPoint: "mark-top" 288 700 basechar 0
AnchorPoint: "mark-bottom" 288 0 basechar 0
LayerCount: 2
Fore
SplineSet
437.727219978 675.918916442 m 2
 445.895037446 692.728913747 461.68346538 700 479 700 c 2
 510 700 l 2
 517.757624266 700 525.013612058 698.508629163 531.231173861 694.678722712 c 0
 539.291466256 689.887542253 544.193432413 681.3902755 544.193432413 672.199509983 c 0
 544.193432413 666.057152156 542.309009904 660.129198389 539.175157987 654.355292387 c 2
 539.175157987 654.355292387 404.274129189 383.391357641 404.187629164 383.221068444 c 0
 398.901747856 373.019402936 390.72815175 364.133064998 380.786628107 357.012146577 c 1
 390.917421781 349.792020638 398.87961022 340.786381845 404.147593366 331.345482527 c 0
 451.57330338 236.261041267 499.010330428 141.187520852 546.428882065 46.0961718156 c 0
 549.142152012 40.2050337709 550.759293918 34.3370560756 550.759293918 28.3442581471 c 0
 550.759293918 19.3949296506 546.468822668 10.6575604987 538.34183228 5.55786466358 c 0
 532.112074085 1.50686655111 524.789522958 0 517 0 c 2
 486 0 l 2
 467.970166262 0 452.834129287 8.53700636617 444.80433135 23.9789254754 c 2
 306.812370836 290.309590805 l 2
 296.901196924 309.369540636 289.172470498 312.5 288 312.5 c 0
 285.459878212 312.5 278.008072906 309.132424148 269.297528144 290.520146933 c 2
 130.187629164 23.9634369591 l 2
 122.409884336 9.00623536532 108.297495403 3.5527136788e-15 90 0 c 2
 59 0 l 2
 51.0569221254 0 43.5910164732 1.57365605457 37.2506906419 5.66045876963 c 0
 29.0143605365 10.7834731009 24.4169034682 19.61168874 24.4169034682 28.9119374958 c 0
 24.4169034682 34.7797799789 26.0235512337 40.5680883024 28.6548513368 46.281198893 c 2
 171.696707633 331.034551496 l 2
 176.45234851 340.917181565 184.685156597 349.931103042 194.620003359 357.011431182 c 1
 184.808292272 364.038203891 176.431838699 372.934396213 171.625237511 383.592046627 c 2
 171.625237511 383.592046627 35.7414845303 654.520535552 35.682979963 654.638824799 c 0
 32.9360052821 660.271741396 31.2610251933 665.995024795 31.2610251933 671.927025224 c 0
 31.2610251933 680.966709445 35.8901710738 689.660760425 44.1677621589 694.60246412 c 0
 50.5098004792 698.526038274 57.9414040508 700 66 700 c 2
 97 700 l 2
 117.74513132 700 130.369215834 690.13349039 137.265115162 675.934814888 c 2
 269.306458572 423.460601503 l 2
 278.024541928 405.797889614 285.397333157 402.5 288 402.5 c 0
 289.740802811 402.5 297.091485748 405.0299238 306.803903736 423.671500262 c 2
 437.727219978 675.918916442 l 2
EndSplineSet
EndChar

StartChar: Xi
Encoding: 926 926 124
GlifName: X_i
Width: 575
VWidth: 0
Flags: W
LayerCount: 2
Fore
SplineSet
493.681479294 606.461992673 m 0
 486.587996051 600.936542567 477.895291841 599 469 599 c 2
 106 599 l 2
 97.1047081588 599 88.4120039494 600.936542567 81.3185207059 606.461992673 c 0
 72.1920855184 613.571005345 68.5 624.711960809 68.5 636.5 c 2
 68.5 662.5 l 2
 68.5 674.288039191 72.1920855184 685.428994655 81.3185207059 692.538007327 c 0
 88.4120039494 698.063457433 97.1047081588 700 106 700 c 2
 469 700 l 2
 477.895291841 700 486.587996051 698.063457433 493.681479294 692.538007327 c 0
 502.807914482 685.428994655 506.5 674.288039191 506.5 662.5 c 2
 506.5 636.5 l 2
 506.5 624.711960809 502.807914482 613.571005345 493.681479294 606.461992673 c 0
102.128018554 407.55741299 m 0
 109.080810067 413.19283348 117.836051212 415.5 127 415.5 c 2
 448 415.5 l 2
 459.43135984 415.5 470.376804815 411.73117335 477.55741299 402.871981446 c 0
 483.19283348 395.919189933 485.5 387.163948788 485.5 378 c 2
 485.5 351 l 2
 485.5 339.56864016 481.73117335 328.623195185 472.871981446 321.44258701 c 0
 465.919189933 315.80716652 457.163948788 313.5 448 313.5 c 2
 127 313.5 l 2
 117.836051212 313.5 109.080810067 315.80716652 102.128018554 321.44258701 c 0
 93.2688266499 328.623195185 89.5 339.56864016 89.5 351 c 2
 89.5 378 l 2
 89.5 389.43135984 93.2688266499 400.376804815 102.128018554 407.55741299 c 0
54.4425870101 89.3719814463 m 0
 61.6231951847 98.2311733501 72.5686401598 102 84 102 c 2
 491 102 l 2
 500.163948788 102 508.919189933 99.6928334796 515.871981446 94.0574129899 c 0
 524.73117335 86.8768048153 528.5 75.9313598402 528.5 64.5 c 2
 528.5 37.5 l 2
 528.5 28.3360512123 526.19283348 19.5808100669 520.55741299 12.6280185537 c 0
 513.376804815 3.7688266499 502.43135984 0 491 0 c 2
 84 0 l 2
 72.5686401598 0 61.6231951847 3.7688266499 54.4425870101 12.6280185537 c 0
 48.8071665204 19.5808100669 46.5 28.3360512123 46.5 37.5 c 2
 46.5 64.5 l 2
 46.5 73.6639487877 48.8071665204 82.4191899331 54.4425870101 89.3719814463 c 0
EndSplineSet
Validated: 1
PickledDataWithLists: "(dp0
Vcom.schriftgestaltung.Glyphs.lastChange
p1
V2015-12-22 12:18:54 +0000
p2
s."
EndChar

StartChar: Y
Encoding: 89 89 125
GlifName: Y_
Width: 575
VWidth: 0
Flags: W
AnchorPoint: "mark-top" 288 700 basechar 0
AnchorPoint: "mark-bottom" 288 0 basechar 0
LayerCount: 2
Fore
SplineSet
454.731509509 674.916302909 m 2
 462.900564377 692.426057946 478.686496286 700 496 700 c 2
 532 700 l 2
 539.867160793 700 547.128768575 698.604844799 553.382640313 694.856343042 c 0
 561.545871136 690.133320525 566.366405033 681.630088267 566.366405033 672.620667773 c 0
 566.366405033 666.26346296 564.360873302 660.19440122 561.130605284 654.267828084 c 2
 416.254722519 373.616027685 l 2
 400.282976108 341.818338939 374.585899877 319.195794857 342.5 307.488180161 c 1
 342.5 36.1976568185 l 2
 342.5 27.3519641966 340.19283348 18.9007851475 334.55741299 12.1894581841 c 0
 327.376804815 3.63793849818 316.43135984 0 305 0 c 2
 270 0 l 2
 258.56864016 0 247.623195185 3.63790619432 240.44258701 12.1893499452 c 0
 234.80716652 18.9006173139 232.5 27.351721319 232.5 36.1973353937 c 2
 232.5 307.483591219 l 1
 200.422944924 319.174919387 174.776271381 341.698963449 158.804717849 373.495985846 c 2
 13.8690602052 654.262665677 l 2
 10.7087244876 660.063850335 8.8065675868 666.020289984 8.8065675868 672.193212094 c 0
 8.8065675868 681.386552542 13.7085337438 689.886199932 21.7688261388 694.678722712 c 0
 27.9863879419 698.508629163 35.2423757342 700 43 700 c 2
 80 700 l 2
 100.749450791 700 113.374286865 689.714783041 120.269355394 674.914573103 c 2
 256.127420177 403.198443537 l 2
 264.682596676 387.006901808 275.726641492 380 288 380 c 0
 300.324944752 380 310.858897835 387.171079561 318.693912149 402.841108189 c 2
 454.731509509 674.916302909 l 2
EndSplineSet
EndChar

StartChar: Z
Encoding: 90 90 130
GlifName: Z_
Width: 575
VWidth: 0
Flags: W
AnchorPoint: "mark-top" 288 700 basechar 0
AnchorPoint: "mark-bottom" 288 0 basechar 0
LayerCount: 2
Fore
SplineSet
163.308111048 102 m 1
 485 102 l 2
 494.163948788 102 502.919189933 99.6928334796 509.871981446 94.0574129899 c 0
 518.73117335 86.8768048153 522.5 75.9313598402 522.5 64.5 c 2
 522.5 37.5 l 2
 522.5 26.0686401598 518.73117335 15.1231951847 509.871981446 7.94258701007 c 0
 502.919189933 2.30716652042 494.163948788 0 485 0 c 2
 90 0 l 2
 78.5686401598 0 67.6231951847 3.61783199245 60.4425870101 12.1220883232 c 0
 54.8071665204 18.7963224841 52.5 27.2007927502 52.5 35.9975961538 c 2
 52.5 64.7956730769 l 2
 52.5 150.733069746 80.251763972 225.033901108 132.162898437 274.865262558 c 2
 371.162898438 504.289942045 l 2
 391.160000419 523.485878082 405.84124819 556.237882717 410.465051521 599 c 1
 121 599 l 2
 111.836051212 599 103.080810067 601.30716652 96.1280185537 606.94258701 c 0
 87.2688266499 614.123195185 83.5 625.06864016 83.5 636.5 c 2
 83.5 662.5 l 2
 83.5 671.663948788 85.8071665204 680.419189933 91.4425870101 687.371981446 c 0
 98.6231951847 696.23117335 109.56864016 700 121 700 c 2
 485 700 l 2
 494.163948788 700 502.919189933 697.69283348 509.871981446 692.05741299 c 0
 518.73117335 685.168672209 522.5 674.668122489 522.5 663.701408696 c 2
 522.5 634.920807055 l 2
 522.5 561.920073579 494.35626217 493.590841281 442.837101562 444.165760004 c 2
 204.837101563 215.83965365 l 2
 183.05427371 194.942223949 167.727778798 155.555478827 163.308111048 102 c 1
EndSplineSet
EndChar

StartChar: a
Encoding: 97 97 135
GlifName: a
Width: 575
VWidth: 0
Flags: W
AnchorPoint: "mark-bottom" 288 0 basechar 0
AnchorPoint: "mark-ogonek" 445 5 basechar 0
AnchorPoint: "mark-top" 288 500 basechar 0
LayerCount: 2
Fore
SplineSet
418.555855367 476.342120091 m 0
 464.614777784 444.666315708 488.5 391.460476575 488.5 316.104944499 c 2
 488.5 39.6581863044 l 2
 488.5 31.1428977029 486.507458071 23.0057075607 481.374902597 16.2782672416 c 0
 474.839786871 7.7124365829 464.54374455 3.40521243917 453.510714647 2.09053771938 c 0
 395.238152416 -4.94235772225 337.850407284 -10 288 -10 c 0
 146.740363893 -10 64.5 76.9445297242 64.5 160.178366762 c 0
 64.5 243.691629863 146.224984534 326.5 291 326.5 c 2
 378.374439995 326.5 l 1
 376.94809063 362.775995284 363.435433336 383.232251273 341.219229322 395.398530738 c 0
 321.878559182 405.990079041 293.623493378 411 257 411 c 0
 227.089871582 411 195.8363996 407.117715587 166.314114636 401.214178408 c 0
 162.783527298 400.552193282 159.295255513 400.175050354 155.80706159 400.175050354 c 0
 148.854911416 400.175050354 141.809256467 401.724636509 135.723796213 405.893166108 c 0
 127.97489155 411.201152211 123.497677739 419.674615053 121.724939232 429.129220423 c 2
 116.714178408 455.185885364 l 2
 116.098915252 458.467288864 115.754566495 461.702429453 115.754566495 464.931812546 c 0
 115.754566495 473.982629454 118.778413398 483.021062133 125.788809407 489.500774861 c 0
 131.245829534 494.544701442 138.141610746 497.360733974 145.608167112 498.771194331 c 0
 189.654812463 507.575437795 272.81185797 512.023136182 276.119030367 512.01790816 c 0
 333.592509859 512.003379152 382.052560555 501.446294594 418.555855367 476.342120091 c 0
378.5 94.5082103611 m 1
 378.5 224.5 l 1
 291 224.5 l 2
 211.595610687 224.5 175.5 185.596708927 175.5 159.079931973 c 0
 175.5 132.235863501 212.056268225 90 294 90 c 0
 318.935320998 90 349.057663972 92.1202293684 378.5 94.5082103611 c 1
EndSplineSet
EndChar

StartChar: a.hex
Encoding: 65543 -1 136
GlifName: a.hex
Width: 575
VWidth: 0
Flags: W
AnchorPoint: "ogonek" 518 5 basechar 0
AnchorPoint: "top" 288 550 basechar 0
LayerCount: 2
Fore
SplineSet
113.871981446 892.05741299 m 0
 122.73117335 884.876804815 126.5 873.93135984 126.5 862.5 c 2
 126.5 816.5 l 2
 126.5 804.711960809 122.807914482 793.571005345 113.681479294 786.461992673 c 0
 106.587996051 780.936542567 97.8952918412 779 89 779 c 2
 54 779 l 2
 42.2119608085 779 31.071005345 782.692085518 23.9619926725 791.818520706 c 0
 18.4365425671 798.912003949 16.5 807.604708159 16.5 816.5 c 2
 16.5 862.5 l 2
 16.5 873.93135984 20.2688266499 884.876804815 29.1280185537 892.05741299 c 0
 36.0808100669 897.69283348 44.8360512123 900 54 900 c 2
 89 900 l 2
 98.1639487877 900 106.919189933 897.69283348 113.871981446 892.05741299 c 0
406.55741299 887.371981446 m 0
 412.19283348 880.419189933 414.5 871.663948788 414.5 862.5 c 2
 414.5 816.5 l 2
 414.5 804.711960809 410.807914482 793.571005345 401.681479294 786.461992673 c 0
 394.587996051 780.936542567 385.895291841 779 377 779 c 2
 342 779 l 2
 330.211960809 779 319.071005345 782.692085518 311.961992673 791.818520706 c 0
 306.436542567 798.912003949 304.5 807.604708159 304.5 816.5 c 2
 304.5 862.5 l 2
 304.5 871.663948788 306.80716652 880.419189933 312.44258701 887.371981446 c 0
 319.623195185 896.23117335 330.56864016 900 342 900 c 2
 377 900 l 2
 388.43135984 900 399.376804815 896.23117335 406.55741299 887.371981446 c 0
414.400612969 487.023263837 m 0
 459.667550475 454.288024865 482.5 399.450345941 482.5 321.907303371 c 2
 482.5 40.0533707865 l 2
 482.5 31.3715269657 480.507458071 23.0751770401 475.374902597 16.2161510108 c 0
 468.839786871 7.48277655284 458.54374455 3.09130503999 447.510714647 1.75091587333 c 0
 389.295659804 -5.07768073799 334.861333654 -10 285 -10 c 0
 145.393890791 -10 64.5 58.2306016984 64.5 140.269904459 c 0
 64.5 222.253149634 144.39630922 291.5 288 291.5 c 2
 372.5 291.5 l 1
 372.5 319 l 2
 372.5 365.363928418 358.726387808 390.512435303 335.72010874 405.016144401 c 0
 316.792987935 416.948254474 289.289339057 422.5 254 422.5 c 0
 224.099777867 422.5 194.944527322 418.747786605 165.314114636 412.989061037 c 0
 161.971493412 412.379924655 158.65624529 412.051966292 155.361111111 412.051966292 c 0
 148.081130694 412.051966292 140.874504326 413.667695711 134.678428143 417.693149452 c 0
 126.762631099 422.953589577 121.912450664 431.624681502 120.610119747 441.3351024 c 0
 119.352506278 450.349708978 118.59158342 459.474816863 117.585966219 468.525371671 c 0
 117.263352407 471.131119501 117.082429649 473.699264986 117.082429649 476.255308316 c 0
 117.082429649 483.398810189 118.516709003 490.635723376 122.757162264 496.939579628 c 0
 128.16463715 504.978329798 136.940906477 509.443451201 146.607607971 511.271082971 c 0
 190.430422423 520.031364991 269.905727901 524.525792771 273.131867746 524.520286484 c 0
 330.590889699 524.503401935 378.520149353 513.42745142 414.400612969 487.023263837 c 0
372.5 94.3682511388 m 1
 372.5 189.5 l 1
 288 189.5 l 2
 206.319893148 189.5 175.5 161.957702249 175.5 139.305803571 c 0
 175.5 116.871899157 205.927944186 90 291 90 c 0
 315.891064124 90 343.582289881 92.0483202747 372.5 94.3682511388 c 1
EndSplineSet
Validated: 33
PickledDataWithLists: "(dp0
Vcom.schriftgestaltung.Glyphs.lastChange
p1
V2016-06-09 18:35:34 +0000
p2
s."
EndChar

StartChar: acute
Encoding: 180 180 140
GlifName: acute
Width: 575
VWidth: 0
GlyphClass: 2
Flags: HMW
LayerCount: 2
Fore
SplineSet
161.826410111 574.254590181 m 0
 161.826410111 588.901661735 171.421116853 600.101848495 184.654697949 606.301187166 c 2
 394.513098027 707.233084346 l 2
 400.27437495 710.100240011 406.342391654 711.840909091 412.659560481 711.840909091 c 0
 426.964906887 711.840909091 438.271417793 702.265342118 444.377602161 689.180661329 c 2
 465.333998981 643.275125418 l 2
 467.995037446 637.572900136 469.587775537 631.680692557 469.587775537 625.599318469 c 0
 469.587775537 610.12319608 458.470317376 598.729102304 443.882834373 594.114980634 c 2
 222.950765242 519.138226297 l 2
 217.866863139 517.443592263 212.765148033 516.437618775 207.565087658 516.437618775 c 0
 192.711638009 516.437618775 181.209616253 525.438098899 173.826526328 538.358506269 c 0
 171.01623163 544.696210116 168.188049414 551.016026444 165.388913039 557.364888614 c 0
 163.182139379 562.881822763 161.826410111 568.472886913 161.826410111 574.254590181 c 0
EndSplineSet
EndChar

StartChar: ae
Encoding: 230 230 142
GlifName: ae
Width: 575
VWidth: 0
Flags: W
LayerCount: 2
Fore
SplineSet
134.665957266 498.782068245 m 0
 172.499093951 505.939688699 215.071768772 510 252 510 c 0
 415.08150158 510 496.5 420.258658324 496.5 267.583865815 c 2
 496.5 245.502396166 l 2
 496.5 234.527560281 492.73117335 224.019233716 483.871981446 217.125391043 c 0
 476.919189933 211.715027282 468.163948788 209.5 459 209.5 c 2
 337.5 209.5 l 1
 337.5 87.8327305921 l 1
 358.42715033 89.1275298684 383.160562407 91.6762144079 409.911860841 95.4851021405 c 0
 412.994658996 96.0182812798 419.241624097 96.3485885876 419.436317047 96.3485561342 c 0
 428.522357923 96.3470415806 437.475410823 93.4852056487 444.042443981 87.1128772029 c 0
 449.179468584 82.1281592606 452.458455864 75.6807070163 454.180504947 68.6592677062 c 2
 460.156724466 44.291981614 l 2
 461.08238067 40.776254512 461.596995376 37.2714292582 461.596995376 33.7545922048 c 0
 461.596995376 24.9167660333 457.990574884 16.3511071319 450.738328455 10.3772870485 c 0
 445.063416164 5.40930272985 438.060285186 2.58087977146 430.286772912 1.20908348774 c 0
 376.567089546 -8.73900602444 359.253799906 -9.06158804383 290 -10 c 0
 215.505146777 -10 161.043677868 0.513222535377 122.510046242 22.5426490737 c 0
 73.6400936405 50.4812830753 53.6633366625 96.1568048998 52.5023955939 153.098225141 c 0
 52.5023955939 153.176618417 52.5023955939 153.255011694 52.5023955939 153.333404971 c 0
 52.5023955939 206.151901875 73.4816941003 246.499809208 113.536113201 272.271561108 c 0
 142.830051992 291.119821541 181.187530661 301.914301223 227.5 306.188571394 c 1
 227.5 411.301968179 l 1
 206.806785526 410.202989704 181.875408765 408.251413051 157.149299607 404.460655265 c 0
 154.018413606 403.909594197 147.699693742 403.571575149 147.5 403.571609964 c 0
 138.491960926 403.573180407 129.689855126 406.355600872 123.135645137 412.515575368 c 0
 117.989192403 417.352469156 114.780456121 423.621246821 112.898803402 430.34143805 c 2
 105.872197258 456.155251031 l 2
 104.92572775 459.760850737 104.39676158 463.331629583 104.39676158 466.909363279 c 0
 104.39676158 475.735800534 108.020237671 484.197478721 115.098052623 490.004605332 c 0
 120.614555824 494.757028169 127.373285629 497.414692313 134.665957266 498.782068245 c 0
337.5 396.983081983 m 1
 337.5 311.5 l 1
 385.319553191 311.5 l 1
 380.959561874 347.721202617 367.599431099 381.522053347 337.5 396.983081983 c 1
186.511359657 190.39304686 m 0
 171.376046204 179.768846678 163.02111016 164.512816339 162.500139155 139.875816357 c 0
 162.566955754 110.694077179 186.190578496 89.6175380507 227.5 81.5601932105 c 1
 227.5 205.635445861 l 1
 210.117914791 202.542792891 196.445211395 197.366092365 186.511359657 190.39304686 c 0
EndSplineSet
Validated: 33
PickledDataWithLists: "(dp0
Vcom.schriftgestaltung.Glyphs.lastChange
p1
V2016-06-09 18:35:33 +0000
p2
s."
EndChar

StartChar: alpha
Encoding: 945 945 144
GlifName: alpha
Width: 575
VWidth: 0
Flags: W
LayerCount: 2
Fore
SplineSet
456.454801075 494.37963264 m 0
 463.415639762 498.949195728 471.217881563 500 479 500 c 2
 506 500 l 2
 514.042893603 500 521.895179558 498.820146747 528.835597132 494.480646693 c 0
 538.08842539 488.976719674 542.43818527 479.135850304 542.43818527 468.796513488 c 0
 542.43818527 465.317957566 542.034576404 461.788364982 541.285821592 458.048611303 c 0
 540.909346558 456.138410705 540.189733474 450.911387726 539.246125957 443.797473956 c 0
 534.818867648 410.420107523 524.493342741 332.29876561 496.167029799 249.999993505 c 1
 524.493341592 167.701226865 534.818865646 89.5798914172 539.246125957 56.2025260444 c 0
 540.189733474 49.0886122735 540.902713514 43.8949798434 541.279188547 41.9847792454 c 0
 542.027943359 38.2450255669 542.43818527 34.6820424343 542.43818527 31.2034865122 c 0
 542.43818527 20.8641496962 538.08842539 11.0232803262 528.835597132 5.51935330723 c 0
 521.895179558 1.17985325298 514.042893603 0 506 0 c 2
 479 0 l 2
 471.217881563 0 463.415639762 1.05080427233 456.454801075 5.62036736022 c 0
 447.611363443 11.4257951242 442.890260048 21.3008780909 440.742655074 32.0389029656 c 0
 439.870911994 36.3976183608 438.981177432 43.2678131824 437.66018503 53.1187345764 c 0
 436.099019938 64.7606748086 434.023243697 80.2363416786 431.216786227 98.2931628601 c 1
 389.927411347 36.4923998122 332.186467172 -10 252 -10 c 0
 208.782641114 -10 160.407347744 -0.392411512431 119.759845225 29.6650696997 c 0
 68.6782760985 67.4381974238 32.5 135.841502083 32.5 250 c 0
 32.5 364.158497917 68.6782760985 432.561802576 119.759845225 470.3349303 c 0
 160.407347744 500.392411512 208.782641114 510 252 510 c 0
 332.186467188 510 389.92741137 463.507600169 431.216786235 401.706837092 c 1
 434.02324371 419.763658299 436.099019953 435.23932519 437.66018503 446.881265424 c 0
 439.01793581 457.00630186 439.743156941 463.744001948 440.831579637 468.369798406 c 0
 443.323545528 478.960653444 447.527594574 488.519213352 456.454801075 494.37963264 c 0
175.719274094 372.483876516 m 0
 157.155918574 349.659710052 142.5 311.783986576 142.5 250 c 0
 142.5 188.216013424 157.155918574 150.340289948 175.719274094 127.516123484 c 0
 198.74603008 99.2040809139 229.241253363 92 252 92 c 0
 282.606711633 92 308.260860119 105.756831685 331.893568661 129.925110772 c 0
 360.476529708 159.155826266 384.759721284 203.122686957 407.321352921 250.000001822 c 1
 384.759720902 296.877314959 360.476529844 340.844174129 331.893568661 370.074889228 c 0
 308.260860119 394.243168315 282.606711633 408 252 408 c 0
 229.241253363 408 198.74603008 400.795919086 175.719274094 372.483876516 c 0
EndSplineSet
Validated: 33
PickledDataWithLists: "(dp0
Vcom.schriftgestaltung.Glyphs.lastChange
p1
V2015-12-22 12:26:38 +0000
p2
s."
EndChar

StartChar: ampersand
Encoding: 38 38 146
GlifName: ampersand
Width: 575
VWidth: 0
Flags: HMW
LayerCount: 2
Fore
SplineSet
503 -12.5 m 2
 471 -12.5 l 2
 460.490276723 -12.5 450.744710154 -9.5315970389 443.338378393 -2.71993425123 c 0
 437.537867143 2.61484251903 433.314415146 9.7754770697 431.024884668 17.4072453285 c 0
 426.6853077 31.8725018868 420.672098967 46.9794394445 412.489512608 63.2058568687 c 1
 359.421906387 6.23151631639 295.010640079 -19.5 233 -19.5 c 0
 167.618360718 -19.5 114.622013533 5.08508165409 80.7680222467 48.2206593036 c 0
 53.7720512266 82.6179861745 39.5 127.936458648 39.5 180 c 0
 39.5 249.660044243 71.4800561146 323.632891294 146.207214743 381.600280812 c 1
 95.4875200271 436.449013433 70.5 490.60619895 70.5 541 c 0
 70.5 637.334044837 147.859844897 709.5 248 709.5 c 0
 350.417411818 709.5 428.5 634.042444192 428.5 534 c 0
 428.5 488.597092473 410.132799516 442.458596391 373.837101562 406.162898438 c 0
 367.390862893 399.716659768 359.029218666 395.232930994 349.534138012 395.232930994 c 0
 339.165879643 395.232930994 329.904289647 400.421507228 322.162898438 408.162898438 c 2
 302.162898438 428.162898438 l 2
 294.421507228 435.904289647 289.232930994 445.165879643 289.232930994 455.534138012 c 0
 289.232930994 465.029218666 293.716659768 473.390862893 300.162898438 479.837101562 c 0
 314.879361741 494.553564866 322.5 513.441055299 322.5 532 c 0
 322.5 573.998766001 290.505577324 605.5 247 605.5 c 0
 208.375669271 605.5 180.5 577.857889207 180.5 542 c 0
 180.5 515.985355677 195.965913445 480.70828968 239.837101563 436.837101562 c 0
 297.617575836 379.056627289 353.850828008 319.594706972 399.891610246 263.325610376 c 1
 404.079241814 278.631167116 406.016493169 295.855231795 416.152639081 306.190293952 c 0
 422.689699549 312.855640608 431.659234224 316.181906597 441.106258821 316.181906597 c 0
 444.150342723 316.181906597 447.145495726 315.879746681 450.246935793 315.298226668 c 2
 483.314114636 309.285821592 l 2
 490.794011963 307.883340843 497.694590588 304.959850181 503.166373156 299.971649653 c 0
 510.135162118 293.618744298 513.60323842 284.648105713 513.60323842 275.344557618 c 0
 513.60323842 271.55818136 513.096921244 267.840117409 512.144891085 264.031996772 c 0
 502.618861403 224.975275077 490.394291749 190.251038028 476.246231196 159.860776288 c 1
 504.807112196 114.30339066 525.123272617 72.0781095225 537.101361689 30.1547977699 c 0
 537.936626054 26.6049242195 538.44214294 22.9903817486 538.44214294 19.4476810187 c 0
 538.44214294 9.20201801047 533.976169678 -0.486702919397 525.498411294 -6.28645912967 c 0
 518.951921141 -10.765007019 511.157759711 -12.5 503 -12.5 c 2
148.5 180 m 0
 148.5 149.811008198 155.256710643 127.036685798 166.522995642 111.368342423 c 0
 180.39988878 92.0693519661 202.1197403 81.5 233 81.5 c 0
 269.345069501 81.5 313.392729645 101.64976631 351.582073847 156.47661493 c 1
 317.265245972 200.343534586 273.668231129 250.208300165 218.542322674 307.515853253 c 1
 169.672275487 270.343267142 148.5 222.153991097 148.5 180 c 0
EndSplineSet
Validated: 33
EndChar

StartChar: asciicircum
Encoding: 94 94 150
GlifName: asciicircum
Width: 575
VWidth: 0
Flags: HMW
LayerCount: 2
Fore
SplineSet
288 731.5 m 0
 323.641176038 731.5 346.046722509 709.642883818 365.692337098 690.979549958 c 2
 554.838240784 507.838278136 l 2
 562.211991693 500.464527227 567.378751001 491.363323974 567.378751001 480.992794234 c 0
 567.378751001 470.172830617 561.619674998 460.756534464 553.249015938 453.609013476 c 2
 531.44192851 433.784532784 l 2
 524.140544869 427.09159778 515.377032151 422.370922628 505.391489449 422.370922628 c 0
 494.920705338 422.370922628 485.613965732 427.713431017 478.044341949 435.2830548 c 0
 416.502677994 498.532427048 354.891040401 561.711825657 293.393537899 625.005359358 c 0
 289.916255254 629.178098532 289.253777503 629.388913039 289.253777503 629.388913039 c 1
 286.752895293 629.582072 284.371466779 627.698863528 280.955658051 624.2830548 c 2
 97.0789564776 435.409703727 l 2
 89.963773702 427.705267074 80.8950394042 422.370922628 70.4914904781 422.370922628 c 0
 60.6239931116 422.370922628 51.9525901057 427.044763693 44.6868508434 433.66682371 c 0
 36.9851876964 440.363922099 29.0809694133 446.888543021 21.5580714902 453.784532784 c 0
 13.6214861427 461.059736019 7.98439303756 470.491193729 7.98439303756 481.38992219 c 0
 7.98439303756 491.405341117 12.6762631741 500.59044101 20.1617589874 507.838278375 c 2
 209.382667143 691.051575485 l 2
 230.216454462 710.893277693 252.593903325 731.5 288 731.5 c 0
EndSplineSet
PickledDataWithLists: "(dp0
Vcom.schriftgestaltung.Glyphs.lastChange
p1
V2015-12-22 14:26:04 +0000
p2
s."
EndChar

StartChar: asciitilde
Encoding: 126 126 151
GlifName: asciitilde
Width: 575
VWidth: 0
Flags: HMW
LayerCount: 2
Fore
SplineSet
486 380.5 m 2
 515 380.5 l 2
 526.116214107 380.5 536.894179383 376.387660791 543.529814642 367.085922079 c 0
 548.641190038 359.920869069 550.5 351.238484576 550.5 342 c 0
 550.5 299.348915399 541.285319908 264.036420895 522.27422553 237.632123147 c 0
 498.287584354 204.317343737 459.882597797 187.5 412 187.5 c 0
 362.619171482 187.5 307.230388385 219.09540849 252.162898437 274.162898438 c 0
 230.476163605 295.84963327 210.78720264 311.542186188 194.530697231 320.885731044 c 0
 181.468545283 328.393297989 170.856521112 331.5 164 331.5 c 0
 150.722780158 331.5 142.626506763 326.661090994 136.706180776 316.164594666 c 0
 131.760002254 307.395222031 128.5 293.643369501 128.5 275 c 0
 128.5 264.165539919 124.10542934 253.549075893 114.623322178 247.180845898 c 0
 107.355257413 242.29957771 98.5885470264 240.5 89 240.5 c 2
 61 240.5 l 2
 49.9036258678 240.5 39.0828358781 244.488549996 32.1330910799 253.581132774 c 0
 26.7126930172 260.672820239 24.5 269.521170964 24.5 279 c 0
 24.5 321.229432482 33.7273191707 356.491979569 52.819386558 382.964431618 c 0
 76.9020441871 416.356677013 115.533473411 433.5 164 433.5 c 0
 212.558537828 433.5 268.795339502 400.878863623 323.837101562 345.837101562 c 0
 344.996775196 324.677427929 364.468048628 308.908026112 380.787614482 299.409331435 c 0
 393.903074698 291.775565118 404.723917765 288.5 412 288.5 c 0
 424.360228113 288.5 432.32588461 293.327439778 438.297569578 304.266948877 c 0
 443.249600133 313.338556576 446.5 327.366546847 446.5 346 c 0
 446.5 357.260122024 451.524167889 367.711044771 460.876494967 373.877912565 c 0
 468.095204788 378.637886071 476.737061254 380.5 486 380.5 c 2
EndSplineSet
EndChar

StartChar: asterisk
Encoding: 42 42 152
GlifName: asterisk
Width: 575
VWidth: 0
Flags: HMW
LayerCount: 2
Fore
SplineSet
544.359660852 350.649152129 m 0
 544.359660852 334.729845075 533.223090631 322.936898358 517.807253018 318.091139917 c 2
 393.075181239 277.39840728 l 1
 483.284491422 151.103039638 l 0
 488.204865345 143.995832859 491.404048981 136.045553348 491.404048981 127.496903082 c 0
 491.404048981 115.923568983 485.054497682 105.605004115 475.084515303 98.7027086217 c 2
 446.103039638 78.7155085783 l 2
 439.115002559 73.8776367547 431.335733276 70.5959510192 422.814353719 70.5959510192 c 0
 411.172936414 70.5959510192 401.242761136 77.0856515361 393.971025638 86.5389076834 c 2
 287.043583629 234.592288927 l 1
 251.665106339 185.192735082 216.300550899 135.779259387 180.913277452 86.3885017 c 0
 173.349149903 76.5551358863 162.825361806 69.9772727273 150.749154771 69.9772727273 c 0
 142.548263941 69.9772727273 134.459194845 72.9600655423 127.679890486 77.8692169744 c 2
 98.7789049727 98.7975168291 l 2
 88.8770271443 105.699295811 82.5959510192 115.969315316 82.5959510192 127.496903082 c 0
 82.5959510192 136.045553348 85.6223479712 144.11861439 90.7125637921 151.105185125 c 2
 182.742168656 277.420329055 l 1
 57.2059178425 318.087001854 l 2
 41.7832529531 322.930182181 30.6403391485 334.725311763 30.6403391485 350.649152129 c 0
 30.6403391485 355.500184992 31.535693319 360.141631266 33.1039935746 364.846532033 c 2
 44.138226297 398.950765242 l 2
 49.1340965559 413.938376018 61.1463873489 425.228783283 77.6767706016 425.228783283 c 0
 82.3649560831 425.228783283 87.0596518866 424.481784166 91.728764037 422.935326639 c 2
 232.5 376.310458676 l 1
 232.5 525 l 2
 232.5 534.163948788 234.80716652 542.919189933 240.44258701 549.871981446 c 0
 247.623195185 558.73117335 258.56864016 562.5 270 562.5 c 2
 305 562.5 l 2
 316.43135984 562.5 327.376804815 558.73117335 334.55741299 549.871981446 c 0
 340.19283348 542.919189933 342.5 534.163948788 342.5 525 c 2
 342.5 376.310458676 l 1
 483.271235963 422.935326639 l 2
 487.965893949 424.402407259 492.635043917 425.228783283 497.323229398 425.228783283 c 0
 513.853612651 425.228783283 525.900136166 413.83414281 530.896006425 398.846532033 c 2
 541.861773703 364.950765242 l 2
 543.430073959 360.245864475 544.359660852 355.500184992 544.359660852 350.649152129 c 0
EndSplineSet
EndChar

StartChar: at
Encoding: 64 64 153
GlifName: at
Width: 575
VWidth: 0
Flags: HMW
LayerCount: 2
Fore
SplineSet
38.5 88 m 2
 38.5 464 l 2
 38.5 538.190287357 54.6344482566 597.778871556 88.2460731132 641.293921593 c 0
 130.472984245 695.962690469 198.440507454 722.5 288 722.5 c 0
 377.024921381 722.5 444.746784054 695.944930596 486.852129671 641.280423778 c 0
 520.365670877 597.770480446 536.5 538.191300821 536.5 464 c 2
 536.5 112 l 2
 536.5 102.836051212 534.19283348 94.0808100669 528.55741299 87.1280185537 c 0
 521.376804815 78.2688266499 510.43135984 74.5 499 74.5 c 2
 439 74.5 l 2
 373.047008024 74.5 325.333379464 95.9392355709 297.118647555 139.35823446 c 0
 274.842013047 173.639232487 265.5 219.580424168 265.5 276 c 0
 265.5 332.419575832 274.842013047 378.360767513 297.118647555 412.64176554 c 0
 323.48609302 453.218018011 366.882740372 474.598423986 426.280606412 477.224141685 c 1
 424.739193475 519.336782347 415.118719633 551.501811031 398.785858023 574.296024487 c 0
 376.704747407 605.112519522 340.95622871 621.5 288 621.5 c 0
 234.453379111 621.5 198.47815304 605.089983001 176.303743809 574.127083897 c 0
 158.346226013 549.052377019 148.5 512.627249287 148.5 464 c 2
 148.5 88 l 2
 148.5 39.3727507134 158.346226013 2.94762298125 176.303743809 -22.1270838969 c 0
 198.47815304 -53.089983001 234.453379111 -69.5 288 -69.5 c 0
 319.33175016 -69.5 344.411816367 -63.9886577819 376.5599737 -52.3112867069 c 0
 381.775575758 -50.2467702324 387.06870414 -49.0247837118 392.49229045 -49.0247822044 c 0
 407.847430478 -49.0247822044 419.076538152 -59.5291948013 424.581480362 -73.2915503252 c 2
 435.472119649 -100.023119484 l 2
 438.084292604 -105.707289124 439.614026314 -111.556219699 439.614026314 -117.548203435 c 0
 439.614026314 -132.658146485 429.096690135 -144.091967835 415.095481368 -148.813255371 c 0
 374.941427795 -163.213283359 335.257013397 -170.499999688 288 -170.5 c 0
 198.440507454 -170.5 130.472984245 -143.962690469 88.2460731132 -89.2939215932 c 0
 54.6344482566 -45.7788715557 38.5 13.8097126435 38.5 88 c 2
EndSplineSet
EndChar

StartChar: b
Encoding: 98 98 155
GlifName: b
Width: 575
VWidth: 0
Flags: W
AnchorPoint: "mark-bottom" 288 0 basechar 0
LayerCount: 2
Fore
SplineSet
92.8645010785 19.0847159594 m 0
 80.1368636117 24.2969507404 72.5 36.8442600828 72.5 50.4096989967 c 2
 72.5 712.5 l 2
 72.5 721.663948788 74.8071665204 730.419189933 80.4425870101 737.371981446 c 0
 87.6231951847 746.23117335 98.5686401598 750 110 750 c 2
 145 750 l 2
 156.43135984 750 167.376804815 746.23117335 174.55741299 737.371981446 c 0
 180.19283348 730.419189933 182.5 721.663948788 182.5 712.5 c 2
 182.5 504.49232131 l 1
 203.555544054 507.975790355 225.217855016 510 247 510 c 0
 305.018833552 510 361.971176134 496.377787326 407.647914761 463.872574522 c 0
 465.013572389 423.049105839 502.5 353.478034011 502.5 250 c 0
 502.5 146.521965989 465.013572389 76.9508941615 407.647914761 36.1274254781 c 0
 361.971176134 3.62221267371 305.018833552 -10 247 -10 c 0
 194.14651461 -10 141.073690789 -0.65795946035 92.8645010785 19.0847159594 c 0
182.5 99.0913648408 m 1
 204.037503545 95.0054149731 224.317506102 93 247 93 c 0
 346.680677369 93 391.5 148.03650024 391.5 250.145772595 c 0
 391.5 322.566976694 368.171531721 363.187726094 335.43765569 385.609028152 c 0
 308.97548456 403.734481168 274.463316211 411 237 411 c 0
 219.436745453 411 200.82563902 409.108409204 182.5 406.338540534 c 1
 182.5 99.0913648408 l 1
EndSplineSet
EndChar

StartChar: b.hex
Encoding: 65545 -1 156
GlifName: b.hex
Width: 575
VWidth: 0
Flags: W
LayerCount: 2
Fore
SplineSet
113.871981446 892.05741299 m 0
 122.73117335 884.876804815 126.5 873.93135984 126.5 862.5 c 2
 126.5 816.5 l 2
 126.5 804.711960809 122.807914482 793.571005345 113.681479294 786.461992673 c 0
 106.587996051 780.936542567 97.8952918412 779 89 779 c 2
 54 779 l 2
 42.2119608085 779 31.071005345 782.692085518 23.9619926725 791.818520706 c 0
 18.4365425671 798.912003949 16.5 807.604708159 16.5 816.5 c 2
 16.5 862.5 l 2
 16.5 873.93135984 20.2688266499 884.876804815 29.1280185537 892.05741299 c 0
 36.0808100669 897.69283348 44.8360512123 900 54 900 c 2
 89 900 l 2
 98.1639487877 900 106.919189933 897.69283348 113.871981446 892.05741299 c 0
406.55741299 887.371981446 m 0
 412.19283348 880.419189933 414.5 871.663948788 414.5 862.5 c 2
 414.5 816.5 l 2
 414.5 804.711960809 410.807914482 793.571005345 401.681479294 786.461992673 c 0
 394.587996051 780.936542567 385.895291841 779 377 779 c 2
 342 779 l 2
 330.211960809 779 319.071005345 782.692085518 311.961992673 791.818520706 c 0
 306.436542567 798.912003949 304.5 807.604708159 304.5 816.5 c 2
 304.5 862.5 l 2
 304.5 871.663948788 306.80716652 880.419189933 312.44258701 887.371981446 c 0
 319.623195185 896.23117335 330.56864016 900 342 900 c 2
 377 900 l 2
 388.43135984 900 399.376804815 896.23117335 406.55741299 887.371981446 c 0
550.55741299 887.371981446 m 0
 556.19283348 880.419189933 558.5 871.663948788 558.5 862.5 c 2
 558.5 816.5 l 2
 558.5 804.711960809 554.807914482 793.571005345 545.681479294 786.461992673 c 0
 538.587996051 780.936542567 529.895291841 779 521 779 c 2
 486 779 l 2
 474.211960809 779 463.071005345 782.692085518 455.961992673 791.818520706 c 0
 450.436542567 798.912003949 448.5 807.604708159 448.5 816.5 c 2
 448.5 862.5 l 2
 448.5 871.663948788 450.80716652 880.419189933 456.44258701 887.371981446 c 0
 463.623195185 896.23117335 474.56864016 900 486 900 c 2
 521 900 l 2
 532.43135984 900 543.376804815 896.23117335 550.55741299 887.371981446 c 0
92.8645010785 19.1327919892 m 0
 80.1368636117 24.353642414 72.5 36.9216920248 72.5 50.5095541401 c 2
 72.5 713.694267516 l 2
 72.5 722.566370801 74.8071665204 731.04278261 80.4425870101 737.774147642 c 0
 87.6231951847 746.351199677 98.5686401598 750 110 750 c 2
 145 750 l 2
 156.43135984 750 167.376804815 746.427466405 174.55741299 738.029690746 c 0
 180.19283348 731.439023791 182.5 723.139784788 182.5 714.453125 c 2
 182.5 516.99232131 l 1
 203.555544054 520.475790355 225.217855016 522.5 247 522.5 c 0
 305.018833552 522.5 361.971176134 508.550330291 407.647914761 475.263742179 c 0
 465.013572389 433.458940113 502.5 362.215486751 502.5 256.25 c 0
 502.5 150.284513249 465.013572389 79.0410598865 407.647914761 37.2362578213 c 0
 361.971176134 3.94966970913 305.018833552 -10 247 -10 c 0
 194.14651461 -10 141.073690789 -0.642517390386 92.8645010785 19.1327919892 c 0
182.5 99.3308052826 m 1
 204.037503545 95.084244178 224.317506102 93 247 93 c 0
 346.680677369 93 391.5 150.199884684 391.5 256.322886297 c 0
 391.5 331.590835841 368.171531721 373.808312811 335.43765569 397.110955359 c 0
 308.97548456 415.948886875 274.463316211 423.5 237 423.5 c 0
 219.436745453 423.5 200.82563902 421.53405422 182.5 418.655307064 c 1
 182.5 99.3308052826 l 1
EndSplineSet
Validated: 1
PickledDataWithLists: "(dp0
Vcom.schriftgestaltung.Glyphs.lastChange
p1
V2016-06-09 18:35:34 +0000
p2
s."
EndChar

StartChar: backslash
Encoding: 92 92 157
GlifName: backslash
Width: 575
VWidth: 0
Flags: HMW
LayerCount: 2
Fore
SplineSet
55.3586688248 674.097490908 m 0
 55.3586688248 688.640624002 64.8210116431 700.122038444 77.5888337287 706.269508338 c 2
 104.510572597 719.231827052 l 2
 110.360932458 722.143642026 116.497529256 723.873841463 122.83602134 723.873841463 c 0
 136.777052233 723.873841463 148.039436906 714.873011518 154.242893624 702.466098082 c 2
 506.187629164 -19.4219744375 l 2
 509.012718318 -25.0721527457 510.641331175 -31.0134352368 510.641331175 -37.0974909081 c 0
 510.641331175 -51.6406240022 501.178988357 -63.1220384445 488.411166271 -69.2695083375 c 2
 461.489427403 -82.2318270519 l 2
 455.639067542 -85.1436420256 449.502470744 -86.8738414631 443.16397866 -86.8738414631 c 0
 429.222947767 -86.8738414631 417.960563094 -77.8730115181 411.757106376 -65.4660980822 c 2
 59.8123708356 656.421974438 l 2
 56.9872816815 662.072152746 55.3586688248 668.013435237 55.3586688248 674.097490908 c 0
EndSplineSet
PickledDataWithLists: "(dp0
Vcom.schriftgestaltung.Glyphs.lastChange
p1
V2015-12-22 16:32:37 +0000
p2
s."
EndChar

StartChar: bar
Encoding: 124 124 158
GlifName: bar
Width: 575
VWidth: 0
Flags: HMW
LayerCount: 2
Fore
SplineSet
270 712.5 m 2
 305 712.5 l 2
 316.43135984 712.5 327.376804815 708.73117335 334.55741299 699.871981446 c 0
 340.19283348 692.919189933 342.5 684.163948788 342.5 675 c 2
 342.5 -38 l 2
 342.5 -47.1639487877 340.19283348 -55.9191899331 334.55741299 -62.8719814463 c 0
 327.376804815 -71.7311733501 316.43135984 -75.5 305 -75.5 c 2
 270 -75.5 l 2
 260.836051212 -75.5 252.080810067 -73.1928334796 245.128018554 -67.5574129899 c 0
 236.26882665 -60.3768048153 232.5 -49.4313598402 232.5 -38 c 2
 232.5 675 l 2
 232.5 684.163948788 234.80716652 692.919189933 240.44258701 699.871981446 c 0
 247.623195185 708.73117335 258.56864016 712.5 270 712.5 c 2
EndSplineSet
PickledDataWithLists: "(dp0
Vcom.schriftgestaltung.Glyphs.lastChange
p1
V2015-12-22 16:32:56 +0000
p2
s."
EndChar

StartChar: beta
Encoding: 946 946 159
GlifName: beta
Width: 575
VWidth: 0
Flags: W
LayerCount: 2
Fore
SplineSet
450.873999215 320.819271277 m 0
 482.318351415 296.401054011 525.518842823 262.662782324 525.518842823 197.23688082 c 0
 525.518842823 96.8989664189 438.667641695 -11.5736320543 303.262055189 -11.5736320543 c 0
 270.927799613 -11.5736320543 236.142727112 -5.01637022866 199.5 9.53819002999 c 1
 199.5 -162.5 l 2
 199.5 -171.395291841 197.563457433 -180.087996051 192.038007327 -187.181479294 c 0
 184.928994655 -196.307914482 173.788039191 -200 162 -200 c 2
 127 -200 l 2
 117.836051212 -200 109.080810067 -197.69283348 102.128018554 -192.05741299 c 0
 93.2688266499 -184.876804815 89.5 -173.93135984 89.5 -162.5 c 2
 89.5 486.074749815 l 2
 89.5 546.827106123 103.278921946 595.636749692 131.287714111 631.339419293 c 0
 166.509477177 677.650347134 222.603622776 700 294 700 c 0
 347.290621562 700 391.090756262 688.628937025 423.655919364 665.268539582 c 0
 464.684593093 635.836900568 485.5 588.573267312 485.5 528.5 c 0
 485.5 483.03218153 459.59378995 443.788267179 438.574900449 413.171059388 c 0
 431.165319059 401.538565539 423.296346377 389.230534536 419.113278758 380.466147856 c 0
 415.910662273 373.756007878 414.5 368.428768797 414.5 365.065385744 c 0
 414.5 351.43161925 427.993934089 338.711111555 450.873999215 320.819271277 c 0
354.74350054 467.135552818 m 0
 369.788046715 489.609276614 380.5 507.474982513 380.5 520.5 c 0
 380.5 550.543797572 370.9397966 570.509553518 354.187976268 582.928236324 c 0
 340.557720939 593.032798941 320.643566368 599 294 599 c 0
 258.60637462 599 234.584800989 587.262797562 219.278274507 564.542172316 c 0
 206.80737434 546.03067988 199.5 518.613486335 199.5 481.5 c 2
 199.5 81.6614531408 l 1
 239.491231844 64.5314920058 272.774488918 57.6274218747 299.926439315 57.6274218747 c 0
 386.924039744 57.6274218747 419.5 128.738843194 419.5 184.5 c 0
 419.5 218.397530578 395.644139418 235.401794448 367.710461485 256.344115053 c 0
 339.119869027 276.065285259 304.5 300.738155898 304.5 350.5 c 0
 304.5 396.874323785 333.334014797 435.153805838 354.74350054 467.135552818 c 0
EndSplineSet
Validated: 33
PickledDataWithLists: "(dp0
Vcom.schriftgestaltung.Glyphs.lastChange
p1
V2015-12-22 12:27:37 +0000
p2
s."
EndChar

StartChar: block
Encoding: 9608 9608 160
GlifName: block
Width: 575
VWidth: 0
Flags: HMW
LayerCount: 2
Fore
SplineSet
-12.5 -262.5 m 1
 -12.5 912.5 l 1
 587.5 912.5 l 1
 587.5 -262.5 l 1
 -12.5 -262.5 l 1
EndSplineSet
Validated: 1
PickledDataWithLists: "(dp0
Vcom.schriftgestaltung.Glyphs.lastChange
p1
V2016-06-10 08:26:49 +0000
p2
s."
EndChar

StartChar: braceleft
Encoding: 123 123 161
GlifName: braceleft
Width: 575
VWidth: 0
Flags: HMW
LayerCount: 2
Fore
SplineSet
342.5 585 m 2
 342.5 409 l 2
 342.5 384.492651966 340.997129124 361.575761952 333.325918993 340.443053274 c 0
 325.70208252 319.440849914 311.866798668 301.129113578 289.546868449 286.17322589 c 1
 312.421422907 271.08600974 326.232004112 251.942118028 333.697616305 230.704159159 c 0
 341.19131745 209.386293646 342.5 186.710053608 342.5 164 c 2
 342.5 -13 l 2
 342.5 -39.9309022264 346.739960785 -57.9698838564 354.27006541 -69.0075652432 c 0
 363.235181902 -82.1486973204 378.951434603 -89.5 410 -89.5 c 2
 491 -89.5 l 2
 500.163948788 -89.5 508.919189933 -91.8071665204 515.871981446 -97.4425870101 c 0
 524.73117335 -104.623195185 528.5 -115.56864016 528.5 -127 c 2
 528.5 -153 l 2
 528.5 -164.43135984 524.73117335 -175.376804815 515.871981446 -182.55741299 c 0
 508.919189933 -188.19283348 500.163948788 -190.5 491 -190.5 c 2
 410 -190.5 l 2
 356.251555574 -190.5 314.763369569 -181.156569561 284.954611723 -157.90203549 c 0
 247.322892859 -128.544620028 232.5 -80.0281526415 232.5 -13 c 2
 232.5 164 l 2
 232.5 189.075901182 228.309047958 205.754507517 220.916234413 216.010793123 c 0
 212.062152783 228.29434247 196.161686292 235.5 165 235.5 c 2
 85 235.5 l 2
 75.8360512123 235.5 67.0808100669 237.80716652 60.1280185537 243.44258701 c 0
 51.2688266499 250.623195185 47.5 261.56864016 47.5 273 c 2
 47.5 299 l 2
 47.5 310.43135984 51.2688266499 321.376804815 60.1280185537 328.55741299 c 0
 67.0808100669 334.19283348 75.8360512123 336.5 85 336.5 c 2
 165 336.5 l 2
 196.046048462 336.5 211.935035466 343.911545933 220.860862968 356.494761273 c 0
 228.316400685 367.005230644 232.5 383.934083964 232.5 409 c 2
 232.5 585 l 2
 232.5 652.669077457 248.010459388 701.136818007 285.838166811 730.278162984 c 0
 315.791175721 753.353073552 357.140327329 762.5 410 762.5 c 2
 491 762.5 l 2
 502.43135984 762.5 513.376804815 758.73117335 520.55741299 749.871981446 c 0
 526.19283348 742.919189933 528.5 734.163948788 528.5 725 c 2
 528.5 699 l 2
 528.5 689.836051212 526.19283348 681.080810067 520.55741299 674.128018554 c 0
 513.376804815 665.26882665 502.43135984 661.5 491 661.5 c 2
 410 661.5 l 2
 378.56913592 661.5 362.923882909 653.683080763 354.021833825 640.304717225 c 0
 346.539966817 629.060661409 342.5 611.050873572 342.5 585 c 2
EndSplineSet
EndChar

StartChar: bracketleft
Encoding: 91 91 163
GlifName: bracketleft
Width: 575
VWidth: 0
Flags: HMW
LayerCount: 2
Fore
SplineSet
247.5 661.5 m 1
 247.5 -89.5 l 1
 470 -89.5 l 2
 481.43135984 -89.5 492.376804815 -93.2688266499 499.55741299 -102.128018554 c 0
 505.19283348 -109.080810067 507.5 -117.836051212 507.5 -127 c 2
 507.5 -153 l 2
 507.5 -164.43135984 503.73117335 -175.376804815 494.871981446 -182.55741299 c 0
 487.919189933 -188.19283348 479.163948788 -190.5 470 -190.5 c 2
 175 -190.5 l 2
 163.56864016 -190.5 152.623195185 -186.73117335 145.44258701 -177.871981446 c 0
 139.80716652 -170.919189933 137.5 -162.163948788 137.5 -153 c 2
 137.5 725 l 2
 137.5 734.163948788 139.80716652 742.919189933 145.44258701 749.871981446 c 0
 152.623195185 758.73117335 163.56864016 762.5 175 762.5 c 2
 470 762.5 l 2
 481.43135984 762.5 492.376804815 758.73117335 499.55741299 749.871981446 c 0
 505.19283348 742.919189933 507.5 734.163948788 507.5 725 c 2
 507.5 699 l 2
 507.5 689.836051212 505.19283348 681.080810067 499.55741299 674.128018554 c 0
 492.376804815 665.26882665 481.43135984 661.5 470 661.5 c 2
 247.5 661.5 l 1
EndSplineSet
PickledDataWithLists: "(dp0
Vcom.schriftgestaltung.Glyphs.lastChange
p1
V2015-12-22 13:51:23 +0000
p2
s."
EndChar

StartChar: breve
Encoding: 728 728 165
GlifName: breve
Width: 575
VWidth: 0
GlyphClass: 2
Flags: HMW
AnchorPoint: "top" 288 500 mark 0
LayerCount: 2
Fore
SplineSet
483.98 670.872 m 0
 483.98 666.721504265 483.267355062 662.597097671 481.994092682 658.466579962 c 0
 458.30003155 573.6683498 388.088365246 526.541896184 288.132616234 525.500690431 c 0
 288.044205411 525.500690431 287.955794589 525.500690431 287.867383766 525.500690431 c 0
 187.781322455 526.54325357 116.60880001 573.71044006 92.9122280537 658.802675723 c 0
 92.0074131466 662.421935351 91.4806640162 666.075845346 91.4806640162 669.700576851 c 0
 91.4806640162 688.491655971 106.047822359 700.16571263 122.791553514 703.305162222 c 2
 150.673293166 708.284044302 l 2
 153.586712429 708.858975663 156.485905326 709.178413548 159.39711294 709.178413548 c 0
 177.579364776 709.178413548 188.91566715 695.78570256 193.975115332 679.592754672 c 0
 207.51627491 634.455556078 239.00650046 610.5 288 610.5 c 0
 335.761904648 610.5 367.401607806 634.296198014 381.977196411 679.452051093 c 0
 383.799601895 686.564480394 386.634430731 693.120386148 391.424021862 698.510024775 c 0
 397.712136764 705.585923345 406.73307843 709.178413548 416.217992358 709.178413548 c 0
 419.231273852 709.178413548 422.145128617 708.879534322 425.208446486 708.305162222 c 2
 453.314114636 703.285821592 l 2
 469.283348009 700.291590334 483.98 689.344024828 483.98 670.872 c 0
EndSplineSet
Validated: 33
PickledDataWithLists: "(dp0
Vcom.schriftgestaltung.Glyphs.lastChange
p1
V2015-12-22 16:32:39 +0000
p2
s."
EndChar

StartChar: brokenbar
Encoding: 166 166 166
GlifName: brokenbar
Width: 575
VWidth: 0
Flags: HMW
LayerCount: 2
Fore
SplineSet
270 205.5 m 2
 305 205.5 l 2
 316.43135984 205.5 327.376804815 201.73117335 334.55741299 192.871981446 c 0
 340.19283348 185.919189933 342.5 177.163948788 342.5 168 c 2
 342.5 -153 l 2
 342.5 -164.43135984 338.73117335 -175.376804815 329.871981446 -182.55741299 c 0
 322.919189933 -188.19283348 314.163948788 -190.5 305 -190.5 c 2
 270 -190.5 l 2
 258.56864016 -190.5 247.623195185 -186.73117335 240.44258701 -177.871981446 c 0
 234.80716652 -170.919189933 232.5 -162.163948788 232.5 -153 c 2
 232.5 168 l 2
 232.5 179.43135984 236.26882665 190.376804815 245.128018554 197.55741299 c 0
 252.080810067 203.19283348 260.836051212 205.5 270 205.5 c 2
270 762.5 m 2
 305 762.5 l 2
 316.43135984 762.5 327.376804815 758.73117335 334.55741299 749.871981446 c 0
 340.19283348 742.919189933 342.5 734.163948788 342.5 725 c 2
 342.5 404 l 2
 342.5 392.56864016 338.73117335 381.623195185 329.871981446 374.44258701 c 0
 322.919189933 368.80716652 314.163948788 366.5 305 366.5 c 2
 270 366.5 l 2
 258.56864016 366.5 247.623195185 370.26882665 240.44258701 379.128018554 c 0
 234.80716652 386.080810067 232.5 394.836051212 232.5 404 c 2
 232.5 725 l 2
 232.5 734.163948788 234.80716652 742.919189933 240.44258701 749.871981446 c 0
 247.623195185 758.73117335 258.56864016 762.5 270 762.5 c 2
EndSplineSet
PickledDataWithLists: "(dp0
Vcom.schriftgestaltung.Glyphs.lastChange
p1
V2015-12-22 14:22:08 +0000
p2
s."
EndChar

StartChar: bullet
Encoding: 8226 8226 167
GlifName: bullet
Width: 575
VWidth: 0
Flags: HMW
LayerCount: 2
Fore
SplineSet
472.5 325 m 0
 472.5 220.335914208 391.007058638 137.5 288 137.5 c 0
 184.048884712 137.5 102.5 220.302510737 102.5 325 c 0
 102.5 429.697489263 184.048884712 512.5 288 512.5 c 0
 391.007058638 512.5 472.5 429.664085792 472.5 325 c 0
EndSplineSet
Validated: 1
PickledDataWithLists: "(dp0
Vcom.schriftgestaltung.Glyphs.lastChange
p1
V2015-12-22 16:32:38 +0000
p2
s."
EndChar

StartChar: c
Encoding: 99 99 168
GlifName: c
Width: 575
VWidth: 0
Flags: W
AnchorPoint: "mark-bottom" 288 -0 basechar 0
AnchorPoint: "mark-top" 288 500 basechar 0
LayerCount: 2
Fore
SplineSet
328 407 m 0
 228.319322631 407 183.5 352.01455308 183.5 250 c 0
 183.5 147.924139035 228.272110248 93 328 93 c 0
 367.927881425 93 400.722357823 97.6540746448 444.364888614 115.111086961 c 0
 449.64358154 117.222564131 455.001069755 118.475217796 460.49229045 118.475217796 c 0
 475.814641679 118.475217796 487.058043187 107.942593356 492.575743118 94.2232306291 c 2
 492.575743118 94.2232306291 502.544027982 70.299346956 502.611086961 70.1351113864 c 0
 504.840054983 64.5626913316 506.173589889 58.885203405 506.173589889 53.0607300001 c 0
 506.173589889 38.4474454992 496.779225198 26.598279706 482.769750867 20.9430173662 c 0
 437.627722142 1.75205502286 334.208970691 -10.2163751399 327.701893676 -10.2163751399 c 1
 327.7848758 -10.196960191 327.884147384 -10.0231623396 328 -10 c 1
 269.981166448 -10 213.028823866 3.62221267371 167.352085239 36.1274254781 c 0
 109.986427611 76.9508941615 72.5 146.521965989 72.5 250 c 0
 72.5 353.478034011 109.986427611 423.049105839 167.352085239 463.872574522 c 0
 213.028823866 496.377787326 269.981166448 510 328 510 c 0
 380.609633607 510 434.141141051 499.730173465 482.76975339 479.056981589 c 0
 496.779225815 473.401717616 506.173589363 461.552552375 506.173589889 446.93927 c 0
 506.173589889 441.114796595 504.920594975 435.404413827 502.544027982 429.700653044 c 2
 492.575743118 405.776769371 l 2
 487.058043187 392.057406644 475.814641679 381.524782204 460.49229045 381.524782204 c 0
 455.068642799 381.524782204 449.775456549 382.74679612 444.559797925 384.811355022 c 0
 401.578405891 400.425333249 367.440242247 406.999999601 328 407 c 0
EndSplineSet
EndChar

StartChar: c.hex
Encoding: 65548 -1 169
GlifName: c.hex
Width: 575
VWidth: 0
Flags: W
AnchorPoint: "top" 288 550 basechar 0
AnchorPoint: "bottom" 288 0 basechar 0
LayerCount: 2
Fore
SplineSet
113.871981446 892.05741299 m 0
 122.73117335 884.876804815 126.5 873.93135984 126.5 862.5 c 2
 126.5 816.5 l 2
 126.5 804.711960809 122.807914482 793.571005345 113.681479294 786.461992673 c 0
 106.587996051 780.936542567 97.8952918412 779 89 779 c 2
 54 779 l 2
 42.2119608085 779 31.071005345 782.692085518 23.9619926725 791.818520706 c 0
 18.4365425671 798.912003949 16.5 807.604708159 16.5 816.5 c 2
 16.5 862.5 l 2
 16.5 873.93135984 20.2688266499 884.876804815 29.1280185537 892.05741299 c 0
 36.0808100669 897.69283348 44.8360512123 900 54 900 c 2
 89 900 l 2
 98.1639487877 900 106.919189933 897.69283348 113.871981446 892.05741299 c 0
262.55741299 887.371981446 m 0
 268.19283348 880.419189933 270.5 871.663948788 270.5 862.5 c 2
 270.5 816.5 l 2
 270.5 804.711960809 266.807914482 793.571005345 257.681479294 786.461992673 c 0
 250.587996051 780.936542567 241.895291841 779 233 779 c 2
 198 779 l 2
 186.211960809 779 175.071005345 782.692085518 167.961992673 791.818520706 c 0
 162.436542567 798.912003949 160.5 807.604708159 160.5 816.5 c 2
 160.5 862.5 l 2
 160.5 871.663948788 162.80716652 880.419189933 168.44258701 887.371981446 c 0
 175.623195185 896.23117335 186.56864016 900 198 900 c 2
 233 900 l 2
 244.43135984 900 255.376804815 896.23117335 262.55741299 887.371981446 c 0
328 419.5 m 0
 228.319322631 419.5 183.5 362.325641976 183.5 256.25 c 0
 183.5 150.110609538 228.272110248 93 328 93 c 0
 367.415416725 93 400.518376868 99.547942411 444.603643923 115.205979509 c 0
 449.805121734 117.260041496 455.083840642 118.475216668 460.49229045 118.475217796 c 0
 475.814641679 118.475217796 487.058043187 107.942593356 492.575743118 94.2232306291 c 2
 492.575743118 94.2232306291 502.544027982 70.299346956 502.611086961 70.1351113864 c 0
 504.840054983 64.5626913316 506.173589889 58.885203405 506.173589889 53.0607300001 c 0
 506.173589889 38.4474454992 496.779225198 26.598279706 482.769750867 20.9430173662 c 0
 437.627722142 1.75205502286 334.208970691 -10.2163751399 327.701893676 -10.2163751399 c 1
 327.7848758 -10.196960191 327.884147384 -10.0231623396 328 -10 c 1
 269.981166448 -10 213.028823866 3.94966970913 167.352085239 37.2362578213 c 0
 109.986427611 79.0410598865 72.5 150.284513249 72.5 256.25 c 0
 72.5 362.215486751 109.986427611 433.458940113 167.352085239 475.263742179 c 0
 213.028823866 508.550330291 269.981166448 522.5 328 522.5 c 0
 380.609633607 522.5 434.141141051 512.230173465 482.76975339 491.556981589 c 0
 496.779225815 485.901717616 506.173589363 474.052552375 506.173589889 459.43927 c 0
 506.173589889 453.614796595 504.920594975 447.904413827 502.544027982 442.200653044 c 2
 492.575743118 418.276769371 l 2
 487.058043187 404.557406644 475.814641679 394.024782204 460.49229045 394.024782204 c 0
 455.068642799 394.024782204 449.775456549 395.24679612 444.559797925 397.311355022 c 0
 401.578405891 412.925333249 367.440242247 419.499999601 328 419.5 c 0
EndSplineSet
Validated: 33
PickledDataWithLists: "(dp0
Vcom.schriftgestaltung.Glyphs.lastChange
p1
V2016-06-09 18:35:34 +0000
p2
s."
EndChar

StartChar: caron
Encoding: 711 711 171
GlifName: caron
Width: 575
VWidth: 0
GlyphClass: 2
Flags: HMW
AnchorPoint: "top" 288 500 mark 0
LayerCount: 2
Fore
SplineSet
288 529.5 m 0
 261.543934343 529.5 239.040557199 539.989143396 217.315320692 553.438099329 c 2
 113.253549643 619.477554273 l 2
 102.544178832 626.362149795 94.6116066278 636.888198807 94.6116066278 649.777592546 c 0
 94.6116066278 658.017556233 97.835091966 665.748724263 103.008171085 672.509113321 c 0
 108.696825655 680.205528328 114.251927402 688.02626461 120.086722548 695.6114983 c 0
 127.461148628 705.198252204 137.576893715 712.022727273 149.615984222 712.022727273 c 0
 157.756281751 712.022727273 165.342005246 708.965158152 172.129257135 704.266291459 c 0
 206.247506197 680.511009668 240.380658254 656.770630872 274.489501205 633.00594297 c 0
 277.194816288 630.976956658 282.445532605 627.353825906 282.985747886 627.144928106 c 0
 283.818321818 626.822977084 284.941585062 626.5 288 626.5 c 0
 292.72286 626.5 292.189151578 626.684131996 297.264009737 630.195418047 c 0
 332.873724646 654.83372148 368.380208099 679.562063441 403.896960362 704.284491422 c 0
 410.680435104 708.980743166 418.210252762 712.022727273 426.315552216 712.022727273 c 0
 438.302070863 712.022727273 448.326791308 705.06602479 455.16570208 695.273873156 c 2
 471.991409811 672.509680343 l 2
 477.314621128 665.555929311 480.75 657.615005924 480.75 649.039351852 c 0
 480.75 636.636275882 473.382322816 626.123776671 462.611756235 619.392172558 c 2
 358.705122321 554.450526361 l 2
 337.943933207 540.966703384 314.712974916 529.5 288 529.5 c 0
EndSplineSet
Validated: 33
PickledDataWithLists: "(dp0
Vcom.schriftgestaltung.Glyphs.lastChange
p1
V2016-05-18 20:16:32 +0000
p2
s."
EndChar

StartChar: cedilla
Encoding: 184 184 175
GlifName: cedilla
Width: 575
VWidth: 0
GlyphClass: 2
Flags: HMW
LayerCount: 2
Fore
SplineSet
277.399272608 25.5 m 0
 283.377507366 25.5 289.355742124 25.5 295.333976883 25.5 c 2
 295.666354518 25.4825064402 l 2
 303.242698881 25.0837514738 310.293396335 23.4432168569 316.356541426 19.4884616919 c 0
 324.27998382 14.3203065067 328.759293918 5.4672372366 328.759293918 -3.83459943883 c 0
 328.759293918 -10.0101652905 327.093900157 -16.0700803289 324.401217509 -22.1286162856 c 2
 311.174984685 -51.4563499388 l 1
 325.453503553 -49.398374361 338.647463015 -48.5 351 -48.5 c 0
 429.205342278 -48.5 475.5 -86.3082578429 475.5 -135 c 0
 475.5 -197.852728078 402.541891341 -258.5 275 -258.5 c 0
 248.527157319 -258.5 222.249433532 -254.199461399 193.614461047 -247.040718277 c 0
 178.094120501 -242.190611857 166.217730657 -230.33648247 166.217730657 -213.840779379 c 0
 166.217730657 -204.435431318 170.430705789 -195.481670985 173.195559837 -187.878322352 c 0
 178.725177097 -171.498297789 192.085006213 -161.668990713 208.166998673 -161.668990713 c 0
 211.602707305 -161.668990713 214.913451703 -162.033659313 218.349212404 -162.720811453 c 0
 238.521885557 -166.563225387 260.015425254 -168.5 275 -168.5 c 0
 313.926543765 -168.5 337.938230706 -159.147077314 347.808879438 -150.639777855 c 0
 352.744235255 -146.386101019 353.5 -143.175000155 353.5 -142 c 0
 353.5 -141.161826523 350.627094968 -131.5 321 -131.5 c 0
 314.302593876 -131.5 304.522052771 -132.509142443 295.574136779 -133.405713342 c 0
 292.379609376 -133.884321974 285.818625861 -134.197924445 285.655486567 -134.196938457 c 0
 273.559760306 -134.196938457 261.563281038 -129.576001623 252.008069066 -119.67953208 c 2
 224.07983881 -90.7538650293 l 2
 216.199976824 -82.8403889853 211.125 -72.9397720723 211.125 -61.833984375 c 0
 211.125 -55.2653528216 212.830512506 -48.8682975249 215.659307208 -42.7392423372 c 2
 235.643901202 0.227506779072 l 2
 238.671200269 6.78665475736 242.709640593 12.7333266566 248.350888715 17.2667266396 c 0
 255.493447922 23.0066049595 264.409973116 25.6071428571 273.876457726 25.6071428571 c 0
 275.042473671 25.6071428571 276.216094287 25.5705907012 277.399272608 25.5 c 0
EndSplineSet
PickledDataWithLists: "(dp0
Vcom.schriftgestaltung.Glyphs.lastChange
p1
V2015-12-22 16:32:40 +0000
p2
s."
EndChar

StartChar: cent
Encoding: 162 162 176
GlifName: cent
Width: 575
VWidth: 0
Flags: HMW
LayerCount: 2
Fore
SplineSet
355.5 41.7350763881 m 1
 355.5 -153 l 2
 355.5 -164.43135984 351.73117335 -175.376804815 342.871981446 -182.55741299 c 0
 335.919189933 -188.19283348 327.163948788 -190.5 318 -190.5 c 2
 283 -190.5 l 2
 271.56864016 -190.5 260.623195185 -186.73117335 253.44258701 -177.871981446 c 0
 247.80716652 -170.919189933 245.5 -162.163948788 245.5 -153 c 2
 245.5 58.5586057999 l 1
 355.5 41.7350763881 l 1
245.5 452.4413942 m 1
 245.5 653 l 2
 245.5 662.163948788 247.80716652 670.919189933 253.44258701 677.871981446 c 0
 260.623195185 686.73117335 271.56864016 690.5 283 690.5 c 2
 318 690.5 l 2
 329.43135984 690.5 340.376804815 686.73117335 347.55741299 677.871981446 c 0
 353.19283348 670.919189933 355.5 662.163948788 355.5 653 c 2
 355.5 469.264923612 l 1
 245.5 452.4413942 l 1
EndSplineSet
Refer: 168 99 N 1 0 0 1 0 0 2
PickledDataWithLists: "(dp0
Vcom.schriftgestaltung.Glyphs.lastChange
p1
V2015-12-22 14:01:47 +0000
p2
s."
EndChar

StartChar: chi
Encoding: 967 967 177
GlifName: chi
Width: 575
VWidth: 0
Flags: W
LayerCount: 2
Fore
SplineSet
85.2126787581 501 m 1
 86 501 l 2
 94.78843381 501 102.763223781 502 112 502 c 0
 149.399915106 502 188.873412637 491.745386614 227.093884578 452.118565379 c 0
 256.813131962 421.305777271 285.718421821 373.552232716 314.753136831 299.88580498 c 1
 429.446462034 478.197838785 l 2
 438.717518923 492.766642468 453.47058084 500 470 500 c 2
 509 500 l 2
 516.659618673 500 523.763874882 498.579976157 529.873947612 494.899010383 c 0
 537.804536937 490.343756919 542.694242927 482.160985533 542.694242927 473.33932245 c 0
 542.694242927 466.102680895 539.870535346 459.216308393 535.460930042 452.718788153 c 2
 359.991920937 197.565172942 l 1
 391.651200726 120.326800495 l 2
 438.015818746 6.92954379134 470.120228244 -17 494 -17 c 0
 501.165691351 -17 507.592907983 -15.6979693856 514.663230237 -15.6979693856 c 0
 524.847971276 -15.6979693856 534.613344037 -19.352929257 541.335670509 -27.0865137409 c 0
 551.110657641 -38.3319790019 551.201923656 -55.3287700606 553.413900098 -73.0265253633 c 0
 553.686713287 -75.3454374647 553.833333333 -77.6213402704 553.833333333 -79.8717421125 c 0
 553.833333333 -89.8006008791 550.663508644 -99.5506885662 542.918893328 -106.248081036 c 0
 536.656466419 -111.663705843 529.119642127 -113.958459889 520.787321242 -115 c 1
 520 -115 l 2
 511.21156619 -115 503.236776219 -116 494 -116 c 0
 456.600084894 -116 417.126587363 -105.745386614 378.906115422 -66.1185653788 c 0
 348.176281674 -34.2580056674 316.202095772 20.1699423959 286.999474727 97.1586706075 c 1
 147.28763848 -115.605106161 l 2
 140.147595889 -125.918501014 129.477632421 -133.1732461 116.880275604 -133.1732461 c 0
 109.154651225 -133.1732461 101.756950164 -130.476983032 95.13080444 -125.945398878 c 0
 88.736541517 -121.906917032 82.1111873336 -118.086648556 75.8969603624 -113.784491422 c 0
 65.5835655091 -106.644448831 58.3267538997 -95.9776324211 58.3267538997 -83.3802756035 c 0
 58.3267538997 -75.633849923 61.0375559322 -68.2171158094 65.5912449947 -61.5772983871 c 2
 242.052227502 197.970353292 l 1
 214.348799274 266.321460956 l 2
 167.984181254 379.183417413 135.879771756 403 112 403 c 0
 105.370919529 403 99.9062366651 401.916320516 93.2237858684 401.916320516 c 0
 82.3927358837 401.916320516 72.2015073845 405.252808774 65.0775828484 413.01656381 c 0
 54.7686777414 424.251356308 54.8273547241 441.094517294 52.5860999018 459.026525363 c 0
 52.3132867134 461.345437465 52.1666666667 463.62134027 52.1666666667 465.871742112 c 0
 52.1666666667 475.800600879 55.3364913561 485.550688566 63.0811066722 492.248081036 c 0
 69.3435335812 497.663705843 76.8803578728 499.958459889 85.2126787581 501 c 1
EndSplineSet
Validated: 33
PickledDataWithLists: "(dp0
Vcom.schriftgestaltung.Glyphs.lastChange
p1
V2015-12-22 12:54:05 +0000
p2
s."
EndChar

StartChar: circumflex
Encoding: 710 710 178
GlifName: circumflex
Width: 575
VWidth: 0
GlyphClass: 2
Flags: HMW
AnchorPoint: "top" 288 500 mark 0
LayerCount: 2
Fore
SplineSet
149.258858405 528.906825286 m 0
 137.144709153 528.906825286 127.145943711 535.527441388 119.129115119 544.273072579 c 1
 113.651908469 552.488882555 108.174701818 560.704692531 102.697495168 568.920502507 c 0
 97.7818571771 575.854608538 94.6116066278 583.463730441 94.6116066278 591.655561573 c 0
 94.6116066278 604.65244659 102.867326634 614.845333062 113.315320692 621.561900671 c 2
 217.19764053 687.48721903 l 2
 239.068055543 702.051103544 261.569095538 712.5 288 712.5 c 0
 315.074707965 712.5 338.47054324 700.390151763 358.419909876 687.729928073 c 2
 462.746450357 621.522445727 l 2
 473.04141425 614.904254653 480.75 604.884510595 480.75 592.38599537 c 0
 480.75 583.808346908 477.291751826 575.661370618 472.058390754 568.580940932 c 2
 455.16570208 545.726126844 l 2
 448.326791308 535.93397521 438.302070863 528.977272727 426.315552216 528.977272727 c 0
 418.210252762 528.977272727 410.586687383 532.084793411 403.803212642 536.781045155 c 0
 368.313517212 561.83259487 333.023292159 587.062793002 297.264009737 611.804581953 c 0
 292.189151578 615.315868004 292.72286 615.5 288 615.5 c 0
 283.27714 615.5 283.810848422 615.315868004 278.735990263 611.804581953 c 0
 242.961061159 587.051967088 207.612444231 561.780748641 172.103039638 536.715508578 c 0
 165.173440776 531.918093982 157.469593975 528.906825286 149.258858405 528.906825286 c 0
EndSplineSet
Validated: 33
PickledDataWithLists: "(dp0
Vcom.schriftgestaltung.Glyphs.lastChange
p1
V2015-12-22 16:32:40 +0000
p2
s."
EndChar

StartChar: colon
Encoding: 58 58 179
GlifName: colon
Width: 575
VWidth: 0
Flags: HMW
LayerCount: 2
Fore
SplineSet
237 562.5 m 2
 337 562.5 l 2
 348.43135984 562.5 359.376804815 558.73117335 366.55741299 549.871981446 c 0
 372.19283348 542.919189933 374.5 534.163948788 374.5 525 c 2
 374.5 435 l 2
 374.5 423.56864016 370.73117335 412.623195185 361.871981446 405.44258701 c 0
 354.919189933 399.80716652 346.163948788 397.5 337 397.5 c 2
 237 397.5 l 2
 225.56864016 397.5 214.623195185 401.26882665 207.44258701 410.128018554 c 0
 201.80716652 417.080810067 199.5 425.836051212 199.5 435 c 2
 199.5 525 l 2
 199.5 534.163948788 201.80716652 542.919189933 207.44258701 549.871981446 c 0
 214.623195185 558.73117335 225.56864016 562.5 237 562.5 c 2
237 152.5 m 2
 337 152.5 l 2
 348.43135984 152.5 359.376804815 148.73117335 366.55741299 139.871981446 c 0
 372.19283348 132.919189933 374.5 124.163948788 374.5 115 c 2
 374.5 25 l 2
 374.5 15.8360512123 372.19283348 7.08081006687 366.55741299 0.128018553675 c 0
 359.376804815 -8.7311733501 348.43135984 -12.5 337 -12.5 c 2
 237 -12.5 l 2
 225.56864016 -12.5 214.623195185 -8.7311733501 207.44258701 0.128018553675 c 0
 201.80716652 7.08081006687 199.5 15.8360512123 199.5 25 c 2
 199.5 115 l 2
 199.5 126.43135984 203.26882665 137.376804815 212.128018554 144.55741299 c 0
 219.080810067 150.19283348 227.836051212 152.5 237 152.5 c 2
EndSplineSet
PickledDataWithLists: "(dp0
Vcom.schriftgestaltung.Glyphs.lastChange
p1
V2015-12-22 20:53:35 +0000
p2
s."
EndChar

StartChar: comma
Encoding: 44 44 180
GlifName: comma
Width: 575
VWidth: 0
Flags: HMW
LayerCount: 2
Fore
SplineSet
374.5 -2 m 2
 374.5 -102.698884218 353.956700454 -172.277823895 300.468513257 -213.655052613 c 0
 258.01360514 -246.497190951 197.718032298 -259.5 117 -259.5 c 0
 107.836051212 -259.5 99.0808100669 -257.19283348 92.1280185537 -251.55741299 c 0
 83.2688266499 -244.376804815 79.5 -233.43135984 79.5 -222 c 2
 79.5 -196 l 2
 79.5 -184.56864016 83.2688266499 -173.623195185 92.1280185537 -166.44258701 c 0
 99.0808100669 -160.80716652 107.836051212 -158.5 117 -158.5 c 0
 180.395389321 -158.5 217.452530047 -144.662904597 238.646812107 -116.058764795 c 0
 254.976333695 -94.0201830167 263.567925118 -60.5901891661 264.442635012 -12.5 c 1
 237 -12.5 l 2
 225.56864016 -12.5 214.623195185 -8.7311733501 207.44258701 0.128018553675 c 0
 201.80716652 7.08081006687 199.5 15.8360512123 199.5 25 c 2
 199.5 115 l 2
 199.5 126.43135984 203.26882665 137.376804815 212.128018554 144.55741299 c 0
 219.080810067 150.19283348 227.836051212 152.5 237 152.5 c 2
 337 152.5 l 2
 348.43135984 152.5 359.376804815 148.73117335 366.55741299 139.871981446 c 0
 372.19283348 132.919189933 374.5 124.163948788 374.5 115 c 2
 374.5 -2 l 2
EndSplineSet
PickledDataWithLists: "(dp0
Vcom.schriftgestaltung.Glyphs.lastChange
p1
V2015-12-22 20:53:49 +0000
p2
s."
EndChar

StartChar: copyright
Encoding: 169 169 181
GlifName: copyright
Width: 575
VWidth: 0
Flags: HMW
LayerCount: 2
Fore
SplineSet
397.75 485.875 m 0
 397.75 475.166038385 392.093150793 465.798865331 384.356825315 458.707233643 c 2
 374.584632337 449.912259962 l 2
 367.687690515 443.11511664 359.258898371 438.870081621 350.066186436 438.870081621 c 0
 340.583635897 438.870081621 332.496384203 442.74831256 324.715018507 447.194807244 c 0
 314.80596909 452.975086071 301.779095941 456.5 289 456.5 c 2
 288 456.5 l 2
 268.885586425 456.5 247.988382145 447.050508565 234.375136776 431.735607525 c 0
 221.561977706 417.214027246 213.5 395.926293531 213.5 375 c 0
 213.5 355.336468728 221.390501055 334.002145919 234.362096213 318.289262654 c 0
 247.945393249 304.017541089 268.94054365 294.419271331 288.28832528 293.5 c 2
 289 293.5 l 2
 301.213301277 293.5 314.432968748 297.806753892 324.811629282 303.860972537 c 0
 332.408081437 308.20180234 340.206766438 311.62994566 349.178576603 311.62994566 c 0
 358.817813057 311.62994566 367.474162621 307.103482779 374.586343118 300.086184261 c 2
 384.44192851 291.215467216 l 2
 392.178253988 284.123835527 397.75 274.833961615 397.75 264.125 c 0
 397.75 253.261753173 391.681855988 243.603525976 382.379380122 236.911548136 c 0
 358.606398383 219.117800177 294.453693607 206.042230278 289.455495249 206.042230278 c 2
 287 206.5 l 2
 286.894096264 206.5 286.788192529 206.5 286.682288793 206.5 c 0
 243.424862268 207.581435663 201.240049227 225.874992514 171.778437521 258.564113032 c 0
 142.699032579 289.83624275 125.500000917 331.691135218 125.5 375 c 0
 125.5 418.305481441 142.643671124 461.143039641 171.850761881 492.513618603 c 0
 200.691954181 523.491195517 241.923561559 542.878115401 284.919832684 543.485306345 c 0
 285.934526339 543.823537563 286.949219994 544.161768782 287.963913649 544.5 c 2
 290 544.5 l 2
 322.98370351 544.5 356.267102918 532.635926047 382.379384308 513.088451715 c 0
 391.681857898 506.396472995 397.75 496.73824665 397.75 485.875 c 0
13.5 375 m 0
 13.5 447.440093179 42.2727486661 518.947899386 93.1624252414 569.837574759 c 0
 144.052218451 620.727366766 215.559572747 649.5 288 649.5 c 0
 359.367279438 649.5 431.342926879 620.331276246 481.837101562 569.837101563 c 0
 533.248288442 518.425914683 562.5 447.369144731 562.5 375 c 0
 562.5 303.67473111 533.346166307 231.672049039 481.837755999 181.162653816 c 0
 431.328338603 129.653987818 359.325461891 100.5 288 100.5 c 0
 215.630855269 100.5 144.574085317 129.751711558 93.1628984375 181.162898437 c 0
 42.6687237545 231.657073121 13.5 303.632720562 13.5 375 c 0
474.5 375 m 0
 474.5 423.671160271 454.694006144 472.631790731 420.162898438 507.162898438 c 0
 385.530851579 541.794945296 336.503148041 562.5 288 562.5 c 0
 239.496851959 562.5 190.469148421 541.794945296 155.837101563 507.162898438 c 0
 121.205054704 472.530851579 100.5 423.503148041 100.5 375 c 0
 100.5 326.496851959 121.205054704 277.469148421 155.837101563 242.837101563 c 0
 190.368209269 208.305993856 239.328839729 188.5 288 188.5 c 0
 336.671160271 188.5 385.631790731 208.305993856 420.162898438 242.837101563 c 0
 454.694006144 277.368209269 474.5 326.328839729 474.5 375 c 0
EndSplineSet
Validated: 33
PickledDataWithLists: "(dp0
Vcom.schriftgestaltung.Glyphs.lastChange
p1
V2015-12-22 14:24:21 +0000
p2
s."
EndChar

StartChar: currency
Encoding: 164 164 182
GlifName: currency
Width: 575
VWidth: 0
Flags: HMW
LayerCount: 2
Fore
SplineSet
557.378751001 459.139859889 m 0
 557.378751001 448.870828245 552.13547903 439.915697645 544.656961625 432.9827585 c 2
 469.771658855 358.09745573 l 1
 488.716847611 325.306096471 499.5 288.227632453 499.5 250 c 0
 499.5 212.761322337 488.830098811 175.066565885 469.849643413 142.824559712 c 1
 544.837101563 67.8371015625 l 2
 552.054008977 60.6201941482 557.378751001 51.805475604 557.378751001 41.4777902318 c 0
 557.378751001 30.691628123 551.432807139 21.5962034655 543.259208716 14.6176687437 c 2
 520.44192851 -6.2154672158 l 2
 513.149947871 -12.8997828018 504.434371499 -17.6290773721 494.508509522 -17.6290773721 c 0
 484.134719218 -17.6290773721 475.088118177 -12.3252063164 467.982148905 -4.65635202976 c 2
 395.175440288 68.1503565874 l 1
 365.682437567 50.7882042538 292.460090084 38.1645986255 287.513106259 38.1645986255 c 1
 287.633202885 38.2067585445 287.795021452 38.4432921664 288 38.5 c 1
 249.793895106 38.5 212.735664723 49.2710109319 179.957946855 68.1963424561 c 1
 107.837101562 -4.8371015625 l 2
 100.26747778 -12.4067253453 91.0792946622 -17.6290773721 80.6085105507 -17.6290773721 c 0
 70.622967849 -17.6290773721 61.8777769069 -12.9251639596 54.576393266 -6.23222895548 c 2
 31.5580714902 14.7845327842 l 2
 23.7738355671 21.9200823804 18.3709226279 31.0383096796 18.3709226279 41.5085095219 c 0
 18.3709226279 51.5624056778 23.2444668128 60.3073110864 29.9694141778 67.6436173028 c 2
 105.162818286 142.837021411 l 1
 86.2434188127 175.220186214 76.5 212.957935692 76.5 250 c 0
 76.5 288.033004868 86.3538455998 325.150527144 105.24034521 358.085451665 c 1
 30.1628984375 433.162898438 l 2
 23.1050418736 440.220755001 18.3709226279 449.145942819 18.3709226279 459.108515695 c 0
 18.3709226279 469.509925772 23.6810544396 479.371614199 31.8041118764 486.435142405 c 2
 54.6870260673 506.333328658 l 2
 62.1393986793 513.12459326 71.0215411564 517.75 81 517.75 c 0
 91.1832959443 517.75 100.144015953 512.905220393 107.672824336 506.003812708 c 2
 179.970025371 432.79145723 l 1
 212.891151765 451.657216006 249.988348432 461.5 288 461.5 c 0
 325.042064308 461.5 362.779813786 451.756581187 395.162978589 432.837181714 c 1
 468.162898438 505.837101562 l 2
 475.424362851 513.098565976 484.472161534 517.879465974 494.545092156 517.879465974 c 0
 504.025683499 517.879465974 513.406205284 513.639421584 520.423606734 507.232228955 c 2
 543.259920925 486.381681216 l 2
 551.609697441 479.248852647 557.378751001 469.889573831 557.378751001 459.139859889 c 0
177.5 250 m 0
 177.5 188.987946353 226.753225542 140.5 288 140.5 c 0
 349.149378288 140.5 397.5 188.850621712 397.5 250 c 0
 397.5 311.246774458 349.012053647 360.5 288 360.5 c 0
 226.890706829 360.5 177.5 311.109293171 177.5 250 c 0
EndSplineSet
Validated: 33
PickledDataWithLists: "(dp0
Vcom.schriftgestaltung.Glyphs.lastChange
p1
V2015-12-22 14:02:18 +0000
p2
s."
EndChar

StartChar: d
Encoding: 100 100 183
GlifName: d
Width: 575
VWidth: 0
Flags: W
AnchorPoint: "mark-topright" 490 700 basechar 0
AnchorPoint: "mark-bottom" 288 0 basechar 0
LayerCount: 2
Back
SplineSet
490 725 m 258
 490 40 l 258
 490 31 485 23 477 19 c 257
 430 0 379 -10 328 -10 c 256
 202 -10 85 60 85 250 c 256
 85 440 202 510 328 510 c 256
 354 510 380 507 405 502 c 257
 405 725 l 258
 405 741 414 750 430 750 c 258
 465 750 l 258
 481 750 490 741 490 725 c 258
405 77 m 257
 405 429 l 257
 383 433 360 436 338 436 c 256
 250 436 171 395 171 250 c 256
 171 114 239 68 328 68 c 256
 355 68 379 71 405 77 c 257
EndSplineSet
Fore
Refer: 155 98 N -1 0 0 1 575 0 2
EndChar

StartChar: d.hex
Encoding: 65549 -1 184
GlifName: d.hex
Width: 575
VWidth: 0
Flags: W
AnchorPoint: "center" 288 250 basechar 0
AnchorPoint: "top" 409 520 basechar 0
AnchorPoint: "topright" 565 500 basechar 0
LayerCount: 2
Fore
SplineSet
113.871981446 892.05741299 m 0
 122.73117335 884.876804815 126.5 873.93135984 126.5 862.5 c 2
 126.5 816.5 l 2
 126.5 804.711960809 122.807914482 793.571005345 113.681479294 786.461992673 c 0
 106.587996051 780.936542567 97.8952918412 779 89 779 c 2
 54 779 l 2
 42.2119608085 779 31.071005345 782.692085518 23.9619926725 791.818520706 c 0
 18.4365425671 798.912003949 16.5 807.604708159 16.5 816.5 c 2
 16.5 862.5 l 2
 16.5 873.93135984 20.2688266499 884.876804815 29.1280185537 892.05741299 c 0
 36.0808100669 897.69283348 44.8360512123 900 54 900 c 2
 89 900 l 2
 98.1639487877 900 106.919189933 897.69283348 113.871981446 892.05741299 c 0
262.55741299 887.371981446 m 0
 268.19283348 880.419189933 270.5 871.663948788 270.5 862.5 c 2
 270.5 816.5 l 2
 270.5 804.711960809 266.807914482 793.571005345 257.681479294 786.461992673 c 0
 250.587996051 780.936542567 241.895291841 779 233 779 c 2
 198 779 l 2
 186.211960809 779 175.071005345 782.692085518 167.961992673 791.818520706 c 0
 162.436542567 798.912003949 160.5 807.604708159 160.5 816.5 c 2
 160.5 862.5 l 2
 160.5 871.663948788 162.80716652 880.419189933 168.44258701 887.371981446 c 0
 175.623195185 896.23117335 186.56864016 900 198 900 c 2
 233 900 l 2
 244.43135984 900 255.376804815 896.23117335 262.55741299 887.371981446 c 0
550.55741299 887.371981446 m 0
 556.19283348 880.419189933 558.5 871.663948788 558.5 862.5 c 2
 558.5 816.5 l 2
 558.5 804.711960809 554.807914482 793.571005345 545.681479294 786.461992673 c 0
 538.587996051 780.936542567 529.895291841 779 521 779 c 2
 486 779 l 2
 474.211960809 779 463.071005345 782.692085518 455.961992673 791.818520706 c 0
 450.436542567 798.912003949 448.5 807.604708159 448.5 816.5 c 2
 448.5 862.5 l 2
 448.5 871.663948788 450.80716652 880.419189933 456.44258701 887.371981446 c 0
 463.623195185 896.23117335 474.56864016 900 486 900 c 2
 521 900 l 2
 532.43135984 900 543.376804815 896.23117335 550.55741299 887.371981446 c 0
494.55741299 737.774147642 m 0
 500.19283348 731.04278261 502.5 722.566370801 502.5 713.694267516 c 2
 502.5 50.5095541401 l 2
 502.5 36.9231218361 494.862845291 24.3535187119 482.135498922 19.1327919892 c 0
 433.926327176 -0.642493754521 380.853575489 -10 328 -10 c 0
 269.981166448 -10 213.028823866 3.94966970913 167.352085239 37.2362578213 c 0
 109.986427611 79.0410598865 72.5 150.284513249 72.5 256.25 c 0
 72.5 362.215486751 109.986427611 433.458940113 167.352085239 475.263742179 c 0
 213.028823866 508.550330291 269.981166448 522.5 328 522.5 c 0
 349.782144984 522.5 371.444455946 520.475790355 392.5 516.99232131 c 1
 392.5 714.453125 l 2
 392.5 723.139784788 394.80716652 731.439023791 400.44258701 738.029690746 c 0
 407.623195185 746.427466405 418.56864016 750 430 750 c 2
 465 750 l 2
 476.43135984 750 487.376804815 746.351199677 494.55741299 737.774147642 c 0
239.56234431 397.110955359 m 0
 206.828468279 373.808312811 183.5 331.590835841 183.5 256.322886297 c 0
 183.5 150.136107736 228.272110248 93 328 93 c 0
 350.682493898 93 370.962496455 95.084244178 392.5 99.3308052826 c 1
 392.5 418.655307064 l 1
 374.17436098 421.53405422 355.563254547 423.5 338 423.5 c 0
 300.536683789 423.5 266.02451544 415.948886875 239.56234431 397.110955359 c 0
EndSplineSet
Validated: 1
PickledDataWithLists: "(dp0
Vcom.schriftgestaltung.Glyphs.lastChange
p1
V2016-06-09 18:35:34 +0000
p2
s."
EndChar

StartChar: dagger
Encoding: 8224 8224 185
GlifName: dagger
Width: 575
VWidth: 0
Flags: HMW
LayerCount: 2
Fore
SplineSet
536.5 564 m 2
 536.5 537 l 2
 536.5 528.104708159 534.563457433 519.412003949 529.038007327 512.318520706 c 0
 521.928994655 503.192085518 510.788039191 499.5 499 499.5 c 2
 342.5 499.5 l 1
 342.5 -124 l 2
 342.5 -132.895291841 340.563457433 -141.587996051 335.038007327 -148.681479294 c 0
 327.928994655 -157.807914482 316.788039191 -161.5 305 -161.5 c 2
 270 -161.5 l 2
 258.56864016 -161.5 247.623195185 -157.73117335 240.44258701 -148.871981446 c 0
 234.80716652 -141.919189933 232.5 -133.163948788 232.5 -124 c 2
 232.5 499.5 l 1
 76 499.5 l 2
 66.8360512123 499.5 58.0808100669 501.80716652 51.1280185537 507.44258701 c 0
 42.2688266499 514.623195185 38.5 525.56864016 38.5 537 c 2
 38.5 563 l 2
 38.5 572.470676747 40.7152215925 581.404376452 46.3189140988 588.545445636 c 0
 53.4948648267 597.690123106 64.5692122926 601.5 76 601.5 c 2
 232.5 601.5 l 1
 232.5 774 l 2
 232.5 783.163948788 234.80716652 791.919189933 240.44258701 798.871981446 c 0
 247.623195185 807.73117335 258.56864016 811.5 270 811.5 c 2
 305 811.5 l 2
 316.41506486 811.5 327.648192991 808.393631753 334.962716711 799.188699031 c 0
 340.643333014 792.039950473 342.5 783.197084736 342.5 774 c 2
 342.5 601.5 l 1
 499 601.5 l 2
 510.788039191 601.5 521.928994655 597.807914482 529.038007327 588.681479294 c 0
 534.563457433 581.587996051 536.5 572.895291841 536.5 564 c 2
EndSplineSet
Validated: 1
PickledDataWithLists: "(dp0
Vcom.schriftgestaltung.Glyphs.lastChange
p1
V2015-12-22 14:26:24 +0000
p2
s."
EndChar

StartChar: daggerdbl
Encoding: 8225 8225 186
GlifName: daggerdbl
Width: 575
VWidth: 0
Flags: HMW
LayerCount: 2
Fore
SplineSet
342.5 601.5 m 1
 499 601.5 l 2
 510.788039191 601.5 521.928994655 597.807914482 529.038007327 588.681479294 c 0
 534.563457433 581.587996051 536.5 572.895291841 536.5 564 c 2
 536.5 537 l 2
 536.5 528.104708159 534.563457433 519.412003949 529.038007327 512.318520706 c 0
 521.928994655 503.192085518 510.788039191 499.5 499 499.5 c 2
 342.5 499.5 l 1
 342.5 150.5 l 1
 499 150.5 l 2
 508.197084736 150.5 517.039950473 148.643333014 524.188699031 142.962716711 c 0
 533.393631753 135.648192991 536.5 124.41506486 536.5 113 c 2
 536.5 87 l 2
 536.5 78.1047081588 534.563457433 69.4120039494 529.038007327 62.3185207059 c 0
 521.928994655 53.1920855184 510.788039191 49.5 499 49.5 c 2
 342.5 49.5 l 1
 342.5 -124 l 2
 342.5 -133.197084736 340.643333014 -142.039950473 334.962716711 -149.188699031 c 0
 327.648192991 -158.393631753 316.41506486 -161.5 305 -161.5 c 2
 270 -161.5 l 2
 258.56864016 -161.5 247.623195185 -157.73117335 240.44258701 -148.871981446 c 0
 234.80716652 -141.919189933 232.5 -133.163948788 232.5 -124 c 2
 232.5 49.5 l 1
 76 49.5 l 2
 64.5686401598 49.5 53.6231951847 53.2688266499 46.4425870101 62.1280185537 c 0
 40.8071665204 69.0808100669 38.5 77.8360512123 38.5 87 c 2
 38.5 113 l 2
 38.5 124.788039191 42.1920855184 135.928994655 51.3185207059 143.038007327 c 0
 58.4120039494 148.563457433 67.1047081588 150.5 76 150.5 c 2
 232.5 150.5 l 1
 232.5 499.5 l 1
 76 499.5 l 2
 66.8360512123 499.5 58.0808100669 501.80716652 51.1280185537 507.44258701 c 0
 42.2688266499 514.623195185 38.5 525.56864016 38.5 537 c 2
 38.5 563 l 2
 38.5 572.470676747 40.7152215925 581.404376452 46.3189140988 588.545445636 c 0
 53.4948648267 597.690123106 64.5692122926 601.5 76 601.5 c 2
 232.5 601.5 l 1
 232.5 774 l 2
 232.5 783.163948788 234.80716652 791.919189933 240.44258701 798.871981446 c 0
 247.623195185 807.73117335 258.56864016 811.5 270 811.5 c 2
 305 811.5 l 2
 316.41506486 811.5 327.648192991 808.393631753 334.962716711 799.188699031 c 0
 340.643333014 792.039950473 342.5 783.197084736 342.5 774 c 2
 342.5 601.5 l 1
EndSplineSet
Validated: 1
PickledDataWithLists: "(dp0
Vcom.schriftgestaltung.Glyphs.lastChange
p1
V2015-12-22 14:32:11 +0000
p2
s."
EndChar

StartChar: degree
Encoding: 176 176 189
GlifName: degree
Width: 575
VWidth: 0
Flags: HMW
LayerCount: 2
Fore
SplineSet
92.5 528 m 0
 92.5 638.972522137 178.506667215 722.5 291 722.5 c 0
 399.897728279 722.5 482.5 638.568841395 482.5 528 c 0
 482.5 417.431158605 399.897728279 333.5 291 333.5 c 0
 178.506667215 333.5 92.5 417.027477863 92.5 528 c 0
202.5 528 m 0
 202.5 473.998370178 239.451599306 435.5 288 435.5 c 0
 335.449579885 435.5 372.5 473.93813747 372.5 528 c 0
 372.5 582.06186253 335.449579885 620.5 288 620.5 c 0
 239.451599306 620.5 202.5 582.001629822 202.5 528 c 0
EndSplineSet
Validated: 1
PickledDataWithLists: "(dp0
Vcom.schriftgestaltung.Glyphs.lastChange
p1
V2016-05-30 08:37:06 +0000
p2
s."
EndChar

StartChar: delta
Encoding: 948 948 190
GlifName: delta
Width: 575
VWidth: 0
Flags: W
LayerCount: 2
Fore
SplineSet
383.385565347 383.410241264 m 1
 350.199750804 389.554556249 317.995029949 392.999999988 285 393 c 0
 204.860609433 393 162.5 334.331420896 162.5 250.5 c 0
 162.5 146.146773742 211.023565289 87 285 87 c 0
 333.485092528 87 366.024348346 103.971277485 386.600076978 137.205233471 c 0
 403.319233196 164.210046364 412.5 203.551083816 412.5 255.5 c 0
 412.5 297.586022071 402.86892844 340.778144033 383.385565347 383.410241264 c 1
154.203636253 590.422159876 m 0
 138.77888044 598.222508095 129.5 612.288271629 129.5 630.5 c 2
 129.5 662.5 l 2
 129.5 671.663948788 131.80716652 680.419189933 137.44258701 687.371981446 c 0
 144.623195185 696.23117335 155.56864016 700 167 700 c 2
 477 700 l 2
 488.43135984 700 499.376804815 696.23117335 506.55741299 687.371981446 c 0
 512.19283348 680.419189933 514.5 671.663948788 514.5 662.5 c 2
 514.5 635.5 l 2
 514.5 626.336051212 512.19283348 617.580810067 506.55741299 610.628018554 c 0
 499.376804815 601.76882665 488.43135984 598 477 598 c 2
 303.164742022 598 l 1
 446.035074893 494.731044483 522.5 359.001714692 522.5 242.978840125 c 0
 522.5 169.279198146 507.262302149 110.096864294 475.454582954 66.6833156532 c 0
 435.420860319 12.0423036967 370.466414215 -15 285 -15 c 0
 206.013430271 -15 142.237342781 15.4454309742 101.77695511 70.051435121 c 0
 69.5346519525 113.566177347 52.5 171.487961701 52.5 239.971340917 c 0
 52.5 303.500423233 69.6584467566 357.261680777 102.074197317 397.524099877 c 0
 142.722863457 448.012322537 206.370156406 475.735801161 285 475.735801161 c 0
 293.039284137 475.735801161 300.675604386 475.585317322 308.023305865 475.21490283 c 1
 267.763860574 518.004728212 216.730067189 557.5711923 154.203636253 590.422159876 c 0
EndSplineSet
Validated: 1
PickledDataWithLists: "(dp0
Vcom.schriftgestaltung.Glyphs.lastChange
p1
V2016-05-30 08:32:37 +0000
p2
s."
EndChar

StartChar: dieresis
Encoding: 168 168 191
GlifName: dieresis
Width: 575
VWidth: 0
GlyphClass: 2
Flags: HMW
LayerCount: 2
Fore
SplineSet
239.5 675 m 2
 239.5 629 l 2
 239.5 619.836051212 237.19283348 611.080810067 231.55741299 604.128018554 c 0
 224.376804815 595.26882665 213.43135984 591.5 202 591.5 c 2
 167 591.5 l 2
 155.56864016 591.5 144.623195185 595.26882665 137.44258701 604.128018554 c 0
 131.80716652 611.080810067 129.5 619.836051212 129.5 629 c 2
 129.5 675 l 2
 129.5 684.163948788 131.80716652 692.919189933 137.44258701 699.871981446 c 0
 144.623195185 708.73117335 155.56864016 712.5 167 712.5 c 2
 202 712.5 l 2
 213.43135984 712.5 224.376804815 708.73117335 231.55741299 699.871981446 c 0
 237.19283348 692.919189933 239.5 684.163948788 239.5 675 c 2
446.5 675 m 2
 446.5 629 l 2
 446.5 619.836051212 444.19283348 611.080810067 438.55741299 604.128018554 c 0
 431.376804815 595.26882665 420.43135984 591.5 409 591.5 c 2
 374 591.5 l 2
 362.56864016 591.5 351.623195185 595.26882665 344.44258701 604.128018554 c 0
 338.80716652 611.080810067 336.5 619.836051212 336.5 629 c 2
 336.5 675 l 2
 336.5 684.163948788 338.80716652 692.919189933 344.44258701 699.871981446 c 0
 351.623195185 708.73117335 362.56864016 712.5 374 712.5 c 2
 409 712.5 l 2
 420.43135984 712.5 431.376804815 708.73117335 438.55741299 699.871981446 c 0
 444.19283348 692.919189933 446.5 684.163948788 446.5 675 c 2
EndSplineSet
PickledDataWithLists: "(dp0
Vcom.schriftgestaltung.Glyphs.lastChange
p1
V2015-12-22 16:32:41 +0000
p2
s."
EndChar

StartChar: divide
Encoding: 247 247 192
GlifName: divide
Width: 575
VWidth: 0
Flags: HMW
LayerCount: 2
Fore
SplineSet
342.5 545 m 2
 342.5 499 l 2
 342.5 487.56864016 338.73117335 476.623195185 329.871981446 469.44258701 c 0
 322.919189933 463.80716652 314.163948788 461.5 305 461.5 c 2
 270 461.5 l 2
 258.56864016 461.5 247.623195185 465.26882665 240.44258701 474.128018554 c 0
 234.80716652 481.080810067 232.5 489.836051212 232.5 499 c 2
 232.5 545 l 2
 232.5 554.163948788 234.80716652 562.919189933 240.44258701 569.871981446 c 0
 247.623195185 578.73117335 258.56864016 582.5 270 582.5 c 2
 305 582.5 l 2
 316.43135984 582.5 327.376804815 578.73117335 334.55741299 569.871981446 c 0
 340.19283348 562.919189933 342.5 554.163948788 342.5 545 c 2
342.5 122 m 2
 342.5 75 l 2
 342.5 65.8360512123 340.19283348 57.0808100669 334.55741299 50.1280185537 c 0
 327.376804815 41.2688266499 316.43135984 37.5 305 37.5 c 2
 270 37.5 l 2
 258.56864016 37.5 247.623195185 41.2688266499 240.44258701 50.1280185537 c 0
 234.80716652 57.0808100669 232.5 65.8360512123 232.5 75 c 2
 232.5 122 l 2
 232.5 133.43135984 236.26882665 144.376804815 245.128018554 151.55741299 c 0
 252.080810067 157.19283348 260.836051212 159.5 270 159.5 c 2
 305 159.5 l 2
 316.43135984 159.5 327.376804815 155.73117335 334.55741299 146.871981446 c 0
 340.19283348 139.919189933 342.5 131.163948788 342.5 122 c 2
72.5 297 m 2
 72.5 323 l 2
 72.5 332.173331651 74.7887773336 340.952793594 80.2481752463 348.042920754 c 0
 87.2254685785 357.104340665 98.1949845715 361.5 110 361.5 c 2
 465 361.5 l 2
 476.43135984 361.5 487.376804815 357.73117335 494.55741299 348.871981446 c 0
 500.19283348 341.919189933 502.5 333.163948788 502.5 324 c 2
 502.5 297 l 2
 502.5 285.56864016 498.73117335 274.623195185 489.871981446 267.44258701 c 0
 482.919189933 261.80716652 474.163948788 259.5 465 259.5 c 2
 110 259.5 l 2
 100.836051212 259.5 92.0808100669 261.80716652 85.1280185537 267.44258701 c 0
 76.2688266499 274.623195185 72.5 285.56864016 72.5 297 c 2
EndSplineSet
PickledDataWithLists: "(dp0
Vcom.schriftgestaltung.Glyphs.lastChange
p1
V2015-12-22 14:06:58 +0000
p2
s."
EndChar

StartChar: dkshade
Encoding: 9619 9619 193
GlifName: dkshade
Width: 575
VWidth: 0
Flags: HMW
LayerCount: 2
Fore
SplineSet
-12.5 -262.5 m 1
 -12.5 -141.046716109 l 1
 48.2266419456 -262.5 l 1
 -12.5 -262.5 l 1
-12.5 -110.953283891 m 1
 -12.5 0.953283891277 l 1
 119.226641946 -262.5 l 1
 63.2733580544 -262.5 l 1
 -12.5 -110.953283891 l 1
-12.5 31.0467161087 m 1
 -12.5 142.953283891 l 1
 190.226641946 -262.5 l 1
 134.273358054 -262.5 l 1
 -12.5 31.0467161087 l 1
-12.5 173.046716109 m 1
 -12.5 284.953283891 l 1
 261.226641946 -262.5 l 1
 205.273358054 -262.5 l 1
 -12.5 173.046716109 l 1
-12.5 315.046716109 m 1
 -12.5 426.953283891 l 1
 332.226641946 -262.5 l 1
 312 -262.5 l 1
 284 -262.5 l 1
 276.273358054 -262.5 l 1
 -12.5 315.046716109 l 1
-12.5 457.046716109 m 1
 -12.5 568.953283891 l 1
 403.226641946 -262.5 l 1
 383 -262.5 l 1
 355 -262.5 l 1
 347.273358054 -262.5 l 1
 -12.5 457.046716109 l 1
-12.5 599.046716109 m 1
 -12.5 710.953283891 l 1
 474.226641946 -262.5 l 1
 454 -262.5 l 1
 426 -262.5 l 1
 418.273358054 -262.5 l 1
 -12.5 599.046716109 l 1
-12.5 741.046716109 m 1
 -12.5 852.953283891 l 1
 545.226641946 -262.5 l 1
 525 -262.5 l 1
 497 -262.5 l 1
 489.273358054 -262.5 l 1
 -12.5 741.046716109 l 1
0 912.5 m 1
 28 912.5 l 1
 35.7266419456 912.5 l 1
 587.5 -191.046716109 l 1
 587.5 -302.953283891 l 1
 -20.2266419456 912.5 l 1
 0 912.5 l 1
71 912.5 m 1
 99 912.5 l 1
 106.726641946 912.5 l 1
 587.5 -49.0467161087 l 1
 587.5 -160.953283891 l 1
 50.7733580544 912.5 l 1
 71 912.5 l 1
142 912.5 m 1
 170 912.5 l 1
 177.726641946 912.5 l 1
 587.5 92.9532838913 l 1
 587.5 -18.9532838913 l 1
 121.773358054 912.5 l 1
 142 912.5 l 1
213 912.5 m 1
 241 912.5 l 1
 248.726641946 912.5 l 1
 587.5 234.953283891 l 1
 587.5 123.046716109 l 1
 192.773358054 912.5 l 1
 213 912.5 l 1
263.773358054 912.5 m 1
 319.726641946 912.5 l 1
 587.5 376.953283891 l 1
 587.5 265.046716109 l 1
 263.773358054 912.5 l 1
334.773358054 912.5 m 1
 390.726641946 912.5 l 1
 587.5 518.953283891 l 1
 587.5 407.046716109 l 1
 334.773358054 912.5 l 1
405.773358054 912.5 m 1
 461.726641946 912.5 l 1
 587.5 660.953283891 l 1
 587.5 549.046716109 l 1
 405.773358054 912.5 l 1
476.773358054 912.5 m 1
 492.84890537 912.5 508.924452685 912.5 525 912.5 c 2
 532.726641946 912.5 l 1
 587.5 802.953283891 l 1
 587.5 691.046716109 l 1
 476.773358054 912.5 l 1
EndSplineSet
Validated: 1
PickledDataWithLists: "(dp0
Vcom.schriftgestaltung.Glyphs.lastChange
p1
V2016-06-10 08:26:49 +0000
p2
s."
EndChar

StartChar: dnblock
Encoding: 9604 9604 194
GlifName: dnblock
Width: 575
VWidth: 0
Flags: HMW
LayerCount: 2
Fore
SplineSet
-12.5 -262.5 m 1
 -12.5 337.5 l 1
 587.5 337.5 l 1
 587.5 -262.5 l 1
 -12.5 -262.5 l 1
EndSplineSet
Validated: 1
PickledDataWithLists: "(dp0
Vcom.schriftgestaltung.Glyphs.lastChange
p1
V2016-06-10 08:26:49 +0000
p2
s."
EndChar

StartChar: dollar
Encoding: 36 36 195
GlifName: dollar
Width: 575
VWidth: 0
Flags: W
LayerCount: 2
Back
SplineSet
288 343 m 256
 437 326 518 270 518 166 c 256
 518 69 452 10 330 -6 c 257
 330 -175 l 258
 330 -191 321 -200 305 -200 c 258
 270 -200 l 258
 254 -200 245 -191 245 -175 c 258
 245 -10 l 257
 206 -9 140 -7 82 3 c 256
 66 6 59 17 62 33 c 257
 68 59 l 258
 72 75 82 81 98 79 c 257
 159 68 230 67 259 67 c 256
 371 67 432 104 432 172 c 256
 432 224 381 256 288 266 c 256
 141 282 60 323 60 438 c 256
 60 537 124 595 245 607 c 257
 245 775 l 258
 245 791 254 800 270 800 c 258
 305 800 l 258
 321 800 330 791 330 775 c 258
 330 609 l 257
 365 608 412 605 454 598 c 257
 470 594 477 583 473 567 c 258
 466 541 l 258
 462 526 452 520 436 523 c 256
 385 532 321 534 297 534 c 256
 198 534 145 502 145 439 c 256
 145 376 200 353 288 343 c 256
EndSplineSet
Fore
SplineSet
232.5 53 m 1
 342.5 53 l 1
 342.5 -127.5 l 2
 342.5 -138.93135984 338.73117335 -149.876804815 329.871981446 -157.05741299 c 0
 322.919189933 -162.69283348 314.163948788 -165 305 -165 c 2
 270 -165 l 2
 258.56864016 -165 247.623195185 -161.23117335 240.44258701 -152.371981446 c 0
 234.80716652 -145.419189933 232.5 -136.663948788 232.5 -127.5 c 2
 232.5 53 l 1
342.5 762.5 m 2
 342.5 576 l 1
 232.5 576 l 1
 232.5 762.5 l 2
 232.5 771.663948788 234.80716652 780.419189933 240.44258701 787.371981446 c 0
 247.623195185 796.23117335 258.56864016 800 270 800 c 2
 305 800 l 2
 316.43135984 800 327.376804815 796.23117335 334.55741299 787.371981446 c 0
 340.19283348 780.419189933 342.5 771.663948788 342.5 762.5 c 2
86.3889130391 95.1351113864 m 2
 91.8938552487 108.89746691 103.152569522 119.475217796 118.50770955 119.475217796 c 0
 123.998930245 119.475217796 129.457817123 118.181485575 134.736510049 116.070008405 c 0
 171.458293306 101.004661428 222.595567444 94 255 94 c 0
 345.785081796 94 415.5 136.337075907 415.5 202.5 c 0
 415.5 217.598292504 410.157544337 228.137014283 400.018363927 237.50095126 c 0
 379.169735524 256.755490043 335.991018879 268.602822892 286.729604195 281.021458183 c 0
 192.269383896 304.834558821 69.5 334.958037735 69.5 471.5 c 0
 69.5 606.228362317 192.675680285 673 316 673 c 0
 360.732254666 673 417.844305584 663.904761859 461.145842189 644.894331155 c 0
 473.234615454 639.252903631 482.649105056 629.505728957 482.649105056 615.844713459 c 0
 482.649105056 609.670864449 481.032660973 603.983526135 478.750299672 598.214812666 c 0
 475.728417136 589.149165057 473.153087043 579.719888818 469.611086961 570.864888614 c 0
 464.296804232 557.57918179 453.745618613 546.524782204 438.305578111 546.524782204 c 0
 432.860796744 546.524782204 427.591270613 547.798360241 422.364720658 549.888980223 c 0
 388.865201508 563.289354056 351.971653797 572 316 572 c 0
 241.860038197 572 180.5 533.067814751 180.5 474.5 c 0
 180.5 419.42641821 241.758090809 400.545657699 324.236621139 378.295543904 c 0
 414.617351405 353.913665066 526.5 325.030401627 526.5 207.5 c 0
 526.5 66.5576229259 392.208388553 -10 250 -10 c 0
 200.339170995 -10 144.040291754 0.18582640048 96.1825015593 20.962321856 c 0
 82.1994337398 26.6252164871 72.8264101959 38.4640536074 72.8264101108 53.0607300001 c 0
 72.8264101108 58.885203405 74.1599450172 64.5626913316 76.3889130391 70.1351113864 c 2
 86.3889130391 95.1351113864 l 2
EndSplineSet
EndChar

StartChar: dotaccent
Encoding: 729 729 196
GlifName: dotaccent
Width: 575
VWidth: 0
GlyphClass: 2
Flags: MW
AnchorPoint: "top" 285 500 mark 0
LayerCount: 2
Fore
SplineSet
339.5 675 m 2
 339.5 629 l 2
 339.5 619.802915264 337.643333014 610.960049527 331.962716711 603.811300969 c 0
 324.648192991 594.606368247 313.41506486 591.5 302 591.5 c 2
 267 591.5 l 2
 255.56864016 591.5 244.623195185 595.26882665 237.44258701 604.128018554 c 0
 231.80716652 611.080810067 229.5 619.836051212 229.5 629 c 2
 229.5 675 l 2
 229.5 684.163948788 231.80716652 692.919189933 237.44258701 699.871981446 c 0
 244.623195185 708.73117335 255.56864016 712.5 267 712.5 c 2
 302 712.5 l 2
 313.788039191 712.5 324.928994655 708.807914482 332.038007327 699.681479294 c 0
 337.563457433 692.587996051 339.5 683.895291841 339.5 675 c 2
EndSplineSet
Validated: 1
PickledDataWithLists: "(dp0
Vcom.schriftgestaltung.Glyphs.lastChange
p1
V2015-12-22 16:32:41 +0000
p2
s."
EndChar

StartChar: dotlessi
Encoding: 305 305 198
GlifName: dotlessi
Width: 575
VWidth: 0
Flags: W
AnchorPoint: "mark-bottom" 288 0 basechar 0
AnchorPoint: "mark-ogonek" 460 25 basechar 0
AnchorPoint: "mark-top" 268 550 basechar 0
LayerCount: 2
Back
SplineSet
330 77 m 257
 465 77 l 258
 481 77 490 68 490 52 c 258
 490 25 l 258
 490 9 481 0 465 0 c 258
 110 0 l 258
 94 0 85 9 85 25 c 258
 85 52 l 258
 85 68 94 77 110 77 c 258
 245 77 l 257
 245 424 l 257
 143 424 l 258
 127 424 118 433 118 449 c 258
 118 475 l 258
 118 492 127 500 143 500 c 258
 305 500 l 258
 321 500 330 492 330 475 c 258
 330 77 l 257
EndSplineSet
Fore
SplineSet
505.933635479 45.4052984266 m 2
 507.44092177 40.8159652451 508.344866494 36.2468055876 508.344866494 31.5897759646 c 0
 508.344866494 23.5279161405 505.233660309 15.4628838558 498.632335687 9.6508956257 c 0
 493.480147213 4.88349644823 487.103407695 2.03396553095 479.960504203 0.353282356503 c 0
 441.635640904 -8.96898168939 409.469257655 -10 389 -10 c 0
 336.831962286 -10 295.797359069 -0.51978854408 266.04779633 21.2152428411 c 0
 228.526120086 48.6285805746 212.5 93.2196039266 212.5 152.563364055 c 2
 212.5 399 l 1
 113 399 l 2
 103.836051212 399 95.0808100669 401.30716652 88.1280185537 406.94258701 c 0
 79.2688266499 414.123195185 75.5 425.06864016 75.5 436.5 c 2
 75.5 462.5 l 2
 75.5 473.93135984 79.2688266499 484.876804815 88.1280185537 492.05741299 c 0
 95.0808100669 497.69283348 103.836051212 500 113 500 c 2
 285 500 l 2
 296.43135984 500 307.376804815 496.414002165 314.55741299 487.984576794 c 0
 320.19283348 481.369070795 322.5 473.038553448 322.5 464.319155194 c 2
 322.5 155.085166876 l 2
 322.5 131.075849044 326.386950389 115.578040558 333.373333962 106.259990263 c 0
 341.691474501 95.1657165114 357.13792855 88.5261476811 389.106841752 88.0051914965 c 0
 404.560228842 88.0094529521 427.446290496 88.941290596 450.962798905 94.3114613355 c 0
 455.225559011 95.3254538808 459.447520618 95.9141094252 463.699056603 95.9141094252 c 0
 472.237060177 95.9141094252 480.73511673 93.2670610562 487.239556195 87.3985891256 c 0
 492.35464178 82.7836278616 495.7612052 76.7581777647 497.949738101 70.094608459 c 2
 505.933635479 45.4052984266 l 2
EndSplineSet
EndChar

StartChar: e
Encoding: 101 101 199
GlifName: e
Width: 575
VWidth: 0
Flags: W
AnchorPoint: "mark-top" 288 500 basechar 0
AnchorPoint: "mark-bottom" 288 0 basechar 0
AnchorPoint: "mark-ogonek" 464 25 basechar 0
LayerCount: 2
Fore
SplineSet
236.059376699 117.534326187 m 0
 263.895056777 100.404666179 298.399355307 93 332 93 c 0
 363.739422873 93 406.221568554 97.853758937 449.364888614 115.111086961 c 0
 454.64358154 117.222564131 460.001069755 118.475217796 465.49229045 118.475217796 c 0
 480.814641679 118.475217796 492.058043187 107.942593356 497.575743118 94.2232306291 c 2
 497.575743118 94.2232306291 507.544027982 70.299346956 507.611086961 70.1351113864 c 0
 509.840054983 64.5626913316 511.173589889 58.885203405 511.173589889 53.0607300001 c 0
 511.173589889 38.4472752411 501.779006291 26.5980035992 487.769262354 20.9428168318 c 0
 438.880100009 0.162117996224 380.578758638 -9.99999835342 328 -10 c 0
 269.97934589 -10 211.220065627 3.59918716332 163.422569416 35.9604157169 c 0
 103.38370203 76.6096476562 62.5 146.205346042 62.5 250 c 0
 62.5 415.700610698 173.390800843 510 292 510 c 0
 399.453122422 510 512.5 429.048114771 512.5 282.462248322 c 2
 512.5 260.427013423 l 2
 512.5 249.475156932 508.73117335 238.988832971 499.871981446 232.109424803 c 0
 492.919189933 226.710389401 484.163948788 224.5 475 224.5 c 2
 174.223160355 224.5 l 1
 179.084205692 170.585893721 203.838314161 137.362684782 236.059376699 117.534326187 c 0
401.680401547 326.5 m 1
 394.150405465 381.395835082 336.942574399 409 293 409 c 0
 248.998884728 409 194.572160511 380.455967411 182.383936519 326.5 c 1
 401.680401547 326.5 l 1
EndSplineSet
PickledDataWithLists: "(dp0
Vcom.schriftgestaltung.Glyphs.lastChange
p1
V2016-06-09 18:35:33 +0000
p2
s."
EndChar

StartChar: e.hex
Encoding: 65550 -1 200
GlifName: e.hex
Width: 575
VWidth: 0
Flags: W
AnchorPoint: "ogonek" 518 5 basechar 0
AnchorPoint: "bottom" 288 0 basechar 0
AnchorPoint: "top" 288 550 basechar 0
LayerCount: 2
Fore
SplineSet
113.871981446 892.05741299 m 0
 122.73117335 884.876804815 126.5 873.93135984 126.5 862.5 c 2
 126.5 816.5 l 2
 126.5 804.711960809 122.807914482 793.571005345 113.681479294 786.461992673 c 0
 106.587996051 780.936542567 97.8952918412 779 89 779 c 2
 54 779 l 2
 42.2119608085 779 31.071005345 782.692085518 23.9619926725 791.818520706 c 0
 18.4365425671 798.912003949 16.5 807.604708159 16.5 816.5 c 2
 16.5 862.5 l 2
 16.5 873.93135984 20.2688266499 884.876804815 29.1280185537 892.05741299 c 0
 36.0808100669 897.69283348 44.8360512123 900 54 900 c 2
 89 900 l 2
 98.1639487877 900 106.919189933 897.69283348 113.871981446 892.05741299 c 0
262.55741299 887.371981446 m 0
 268.19283348 880.419189933 270.5 871.663948788 270.5 862.5 c 2
 270.5 816.5 l 2
 270.5 804.711960809 266.807914482 793.571005345 257.681479294 786.461992673 c 0
 250.587996051 780.936542567 241.895291841 779 233 779 c 2
 198 779 l 2
 186.211960809 779 175.071005345 782.692085518 167.961992673 791.818520706 c 0
 162.436542567 798.912003949 160.5 807.604708159 160.5 816.5 c 2
 160.5 862.5 l 2
 160.5 871.663948788 162.80716652 880.419189933 168.44258701 887.371981446 c 0
 175.623195185 896.23117335 186.56864016 900 198 900 c 2
 233 900 l 2
 244.43135984 900 255.376804815 896.23117335 262.55741299 887.371981446 c 0
406.55741299 887.371981446 m 0
 412.19283348 880.419189933 414.5 871.663948788 414.5 862.5 c 2
 414.5 816.5 l 2
 414.5 804.711960809 410.807914482 793.571005345 401.681479294 786.461992673 c 0
 394.587996051 780.936542567 385.895291841 779 377 779 c 2
 342 779 l 2
 330.211960809 779 319.071005345 782.692085518 311.961992673 791.818520706 c 0
 306.436542567 798.912003949 304.5 807.604708159 304.5 816.5 c 2
 304.5 862.5 l 2
 304.5 871.663948788 306.80716652 880.419189933 312.44258701 887.371981446 c 0
 319.623195185 896.23117335 330.56864016 900 342 900 c 2
 377 900 l 2
 388.43135984 900 399.376804815 896.23117335 406.55741299 887.371981446 c 0
502.611086961 70.1351113864 m 0
 504.840054983 64.5626913316 506.173589889 58.885203405 506.173589889 53.0607300001 c 0
 506.173589889 38.4474454992 496.779225198 26.598279706 482.769750867 20.9430173662 c 0
 437.627722142 1.75205502286 334.208970691 -10.2163751399 327.701893676 -10.2163751399 c 1
 327.7848758 -10.196960191 327.884147384 -10.0231623396 328 -10 c 1
 269.981166448 -10 213.028823866 3.94966970913 167.352085239 37.2362578213 c 0
 109.986427611 79.0410598865 72.5 150.284513249 72.5 256.25 c 0
 72.5 425.21650694 172.865998476 522.5 292 522.5 c 0
 400.019114805 522.5 502.5 437.242240934 502.5 285 c 2
 502.5 262 l 2
 502.5 250.56864016 498.73117335 239.623195185 489.871981446 232.44258701 c 0
 482.919189933 226.80716652 474.163948788 224.5 465 224.5 c 2
 184.185183938 224.5 l 1
 188.72816004 170.165972034 211.023816613 136.913368994 240.590910937 117.303358993 c 0
 266.118384154 100.372577781 298.397591089 93 332 93 c 0
 363.154813394 93 400.743419684 99.6329171873 444.603849015 115.206062562 c 0
 449.452472865 117.120761258 459.99552531 118.497404938 460.560428022 118.494467155 c 0
 460.560428022 118.491059145 460.538230077 118.484670187 460.49229045 118.475217796 c 1
 475.814641679 118.475217796 487.058043187 107.942593356 492.575743118 94.2232306291 c 0
 495.920164536 86.1966192253 499.381378603 78.2093822802 502.611086961 70.1351113864 c 0
391.794542295 326.5 m 1
 385.305864151 390.767950421 336.059384228 421.5 293 421.5 c 0
 249.817833878 421.5 203.400602506 389.668401586 192.250767116 326.5 c 1
 391.794542295 326.5 l 1
EndSplineSet
Validated: 33
PickledDataWithLists: "(dp0
Vcom.schriftgestaltung.Glyphs.lastChange
p1
V2016-06-09 18:35:34 +0000
p2
s."
EndChar

StartChar: eight
Encoding: 56 56 207
GlifName: eight
Width: 575
VWidth: 0
Flags: W
LayerCount: 2
Fore
SplineSet
67.5 534.590604027 m 0
 67.5 642.824493914 165.874287259 710 288 710 c 0
 409.800236588 710 508.5 644.189811056 508.5 541.355704698 c 0
 508.5 471.567499368 467.238447636 410.229337866 395.538306844 359.787874438 c 1
 466.444007666 320.143900721 531.5 267.422844047 531.5 175.073825503 c 0
 531.5 51.9197310151 424.147615772 -10 288 -10 c 0
 161.810695135 -10 44.5 57.9368337881 44.5 169.275167785 c 0
 44.5 240.659925427 94.5552003798 302.244760985 186.647710931 356.422413053 c 1
 122.425413971 392.326380771 67.500000038 443.635730073 67.5 534.590604027 c 0
397.5 530.5 m 0
 397.5 571.774260838 354.240899882 609 288 609 c 0
 220.885302588 609 177.5 572.047884086 177.5 527.5 c 0
 177.5 479.605642882 225.054494619 434.073325817 306.786412221 394.897485325 c 1
 369.305090191 439.678085689 397.499999882 496.506218534 397.5 530.5 c 0
154.5 183.5 m 0
 154.5 126.814096215 207.437549904 92 288 92 c 0
 363.109819014 92 421.5 123.305656011 421.5 183.5 c 0
 421.5 245.396535794 357.736427682 288.699182415 277.722670306 324.50526457 c 1
 200.175314178 279.607550665 154.500000009 234.12514812 154.5 183.5 c 0
EndSplineSet
EndChar

StartChar: eight.dnom
Encoding: 65551 -1 208
GlifName: eight.dnom
Width: 250
VWidth: 0
Flags: HMW
LayerCount: 2
Fore
SplineSet
144 377.5 m 0
 178.500800703 377.5 207.457047044 370.752913748 229.527111737 356.698096346 c 0
 257.48234082 338.895446211 272.5 309.781607022 272.5 274 c 0
 272.5 239.085052148 255.075588852 207.764881404 226.847909643 182.10988422 c 1
 257.391910064 160.342959506 284.5 130.614774875 284.5 85 c 0
 284.5 46.4124298573 268.239506131 14.8626632289 237.844119599 -4.57788219293 c 0
 213.809697397 -19.9500267787 182.078143226 -27.5 144 -27.5 c 0
 106.392883669 -27.5 74.9322242447 -20.16301668 51.0311120362 -5.02461494999 c 0
 20.7877917606 14.1307920448 4.5 45.4031253252 4.5 84 c 0
 4.5 123.794533591 26.755083077 153.089610676 62.8310401212 179.100889737 c 1
 36.5707526368 199.440758058 15.5 229.040483834 15.5 273 c 0
 15.5 308.767558331 30.4724692278 338.132853201 58.3883834385 356.226794197 c 0
 80.4482922436 370.525114692 109.445991206 377.5 144 377.5 c 0
144 294.5 m 0
 130.13122606 294.5 120.918538845 292.161614168 115.782435151 289.21455329 c 0
 109.972544988 285.880878383 107.5 281.828021815 107.5 273 c 0
 107.5 252.994372678 121.741068315 240.443416554 150.402434923 224.186303685 c 1
 170.456418383 242.380787304 180.499999996 258.776156468 180.5 273 c 0
 180.5 281.828021815 178.027455012 285.880878383 172.217564849 289.21455329 c 0
 167.081461155 292.161614168 157.86877394 294.5 144 294.5 c 0
144 56.5 m 0
 161.409227963 56.5 173.364514641 59.4238238634 180.471508415 63.5388125243 c 0
 188.754476627 68.3346968812 192.5 74.8110955707 192.5 87 c 0
 192.5 110.438090821 174.415132769 121.730402529 140.567304397 137.046306574 c 1
 107.493510687 118.523117064 95.500000138 105.121210747 95.5 88 c 0
 95.5 75.1023183827 99.3814189624 68.4161376438 107.599682221 63.5850701813 c 0
 114.668209068 59.4298698693 126.584770416 56.5 144 56.5 c 0
EndSplineSet
Validated: 1
PickledDataWithLists: "(dp0
Vcom.schriftgestaltung.Glyphs.Export
p1
L0L
sVcom.schriftgestaltung.Glyphs.lastChange
p2
V2015-12-22 13:07:21 +0000
p3
s."
EndChar

StartChar: eight.hex
Encoding: 65552 -1 209
GlifName: eight.hex
Width: 575
VWidth: 0
Flags: HMW
LayerCount: 2
Fore
SplineSet
126.5 875 m 2
 126.5 829 l 2
 126.5 817.211960809 122.807914482 806.071005345 113.681479294 798.961992673 c 0
 106.587996051 793.436542567 97.8952918412 791.5 89 791.5 c 2
 54 791.5 l 2
 42.2119608085 791.5 31.071005345 795.192085518 23.9619926725 804.318520706 c 0
 18.4365425671 811.412003949 16.5 820.104708159 16.5 829 c 2
 16.5 875 l 2
 16.5 886.43135984 20.2688266499 897.376804815 29.1280185537 904.55741299 c 0
 36.0808100669 910.19283348 44.8360512123 912.5 54 912.5 c 2
 89 912.5 l 2
 98.1639487877 912.5 106.919189933 910.19283348 113.871981446 904.55741299 c 0
 122.73117335 897.376804815 126.5 886.43135984 126.5 875 c 2
EndSplineSet
Refer: 207 56 N 1 0 0 1 0 0 2
PickledDataWithLists: "(dp0
Vcom.schriftgestaltung.Glyphs.lastChange
p1
V2016-02-10 13:40:53 +0000
p2
s."
EndChar

StartChar: emdash
Encoding: 8212 8212 213
GlifName: emdash
Width: 575
VWidth: 0
Flags: HMW
LayerCount: 2
Fore
SplineSet
-12.5 237 m 2
 -12.5 263 l 2
 -12.5 272.470676747 -10.2847784075 281.404376452 -4.68108590118 288.545445636 c 0
 2.49486482668 297.690123106 13.5692122926 301.5 25 301.5 c 2
 550 301.5 l 2
 559.163948788 301.5 567.919189933 299.19283348 574.871981446 293.55741299 c 0
 583.73117335 286.376804815 587.5 275.43135984 587.5 264 c 2
 587.5 237 l 2
 587.5 225.56864016 583.73117335 214.623195185 574.871981446 207.44258701 c 0
 567.919189933 201.80716652 559.163948788 199.5 550 199.5 c 2
 25 199.5 l 2
 15.8360512123 199.5 7.08081006687 201.80716652 0.128018553675 207.44258701 c 0
 -8.7311733501 214.623195185 -12.5 225.56864016 -12.5 237 c 2
EndSplineSet
Validated: 1
PickledDataWithLists: "(dp0
Vcom.schriftgestaltung.Glyphs.lastChange
p1
V2016-05-22 17:00:36 +0000
p2
s."
EndChar

StartChar: emptyset
Encoding: 8709 8709 214
GlifName: emptyset
Width: 575
VWidth: 0
Flags: HMW
LayerCount: 2
Fore
SplineSet
580.5 498.875 m 0
 580.5 488.511264088 575.217643808 479.543440683 567.837101563 472.162898438 c 2
 490.735326331 395.061123206 l 1
 510.815719839 359.935174439 522.5 318.831304625 522.5 275 c 0
 522.5 142.299368509 418.966865238 37.5 288 37.5 c 0
 243.334784387 37.5 201.978175225 49.1802873366 166.672317873 70.9981147475 c 1
 94.0179533889 -1.6562497361 l 2
 87.0817257623 -9.14251805596 78.2071223323 -14.5 67.875 -14.5 c 0
 57.5112640876 -14.5 48.5434406826 -9.21764380761 41.1628984375 -1.8371015625 c 0
 31.7650703509 7.56072652405 22.3672422644 16.9585546106 12.9694141778 26.3563826972 c 0
 6.08331983175 33.8684856202 1.25 42.7766796767 1.25 52.875 c 0
 1.25 62.8979460563 6.08765744947 71.7618605745 13.1628984375 78.8371015625 c 2
 86.0044115783 151.678614703 l 1
 64.1358543225 187.192625971 52.5 229.459284665 52.5 275 c 0
 52.5 407.726501078 156.076483895 512.5 288 512.5 c 0
 333.687979944 512.5 375.999523072 499.928688361 411.463183152 477.137386277 c 1
 487.162898438 552.837101563 l 2
 494.543440683 560.217643808 503.511264088 565.5 513.875 565.5 c 0
 524.207122332 565.5 533.081725762 560.142518056 540.017953389 552.656249736 c 2
 567.656249736 525.017953389 l 2
 575.142518056 518.081725762 580.5 509.207122332 580.5 498.875 c 0
288 402.5 m 0
 217.921957316 402.5 161.5 346.188417129 161.5 275 c 0
 161.5 260.227398004 163.719037754 246.551036872 168.131523164 233.805726289 c 1
 329.350229336 395.024432461 l 1
 316.391031681 399.825789927 302.64327713 402.5 288 402.5 c 0
288 148.5 m 0
 358.113244984 148.5 413.5 203.775814796 413.5 275 c 0
 413.5 288.231765682 411.525868295 300.673789499 408.059611827 312.385408702 c 1
 249.338993657 153.664790532 l 1
 261.234981388 150.182128771 274.306262356 148.5 288 148.5 c 0
EndSplineSet
Validated: 33
PickledDataWithLists: "(dp0
Vcom.schriftgestaltung.Glyphs.lastChange
p1
V2015-12-22 14:07:55 +0000
p2
s."
EndChar

StartChar: endash
Encoding: 8211 8211 215
GlifName: endash
Width: 575
VWidth: 0
Flags: HMW
LayerCount: 2
Fore
SplineSet
137.5 237 m 2
 137.5 263 l 2
 137.5 272.470676747 139.715221593 281.404376452 145.318914099 288.545445636 c 0
 152.494864827 297.690123106 163.569212293 301.5 175 301.5 c 2
 400 301.5 l 2
 411.43135984 301.5 422.376804815 297.73117335 429.55741299 288.871981446 c 0
 435.19283348 281.919189933 437.5 273.163948788 437.5 264 c 2
 437.5 237 l 2
 437.5 225.56864016 433.73117335 214.623195185 424.871981446 207.44258701 c 0
 417.919189933 201.80716652 409.163948788 199.5 400 199.5 c 2
 175 199.5 l 2
 163.56864016 199.5 152.623195185 203.26882665 145.44258701 212.128018554 c 0
 139.80716652 219.080810067 137.5 227.836051212 137.5 237 c 2
EndSplineSet
Validated: 1
PickledDataWithLists: "(dp0
Vcom.schriftgestaltung.Glyphs.lastChange
p1
V2016-05-22 12:19:24 +0000
p2
s."
EndChar

StartChar: epsilon
Encoding: 949 949 217
GlifName: epsilon
Width: 575
VWidth: 0
Flags: W
LayerCount: 2
Fore
SplineSet
510.207611343 41.2312359639 m 0
 510.837870636 37.8698530681 511.240988809 34.3949181216 511.240988809 30.9907494986 c 0
 511.240988809 23.612053053 509.468161451 16.1713543004 504.917240179 9.8613561424 c 0
 499.171632061 1.89488639553 490.01171115 -2.61008371972 479.762478036 -3.87901108777 c 0
 441.767324495 -10.0184026142 392.413533733 -12.999999581 342 -13 c 0
 171.865221306 -13 72.5 32.6726644162 72.5 132.542883212 c 0
 72.5 188.267038707 112.090232281 226.744987825 174.934510059 248.873515016 c 1
 155.257944044 255.915485302 138.586715833 264.746512381 124.933822014 275.527342465 c 0
 96.4741087514 298.000184953 82.5 328.559380727 82.5 364.457116788 c 0
 82.5 457.578344638 183.187797032 510 342 510 c 0
 392.413533997 510 441.76732496 507.018403008 479.762478499 500.879011021 c 0
 490.011711484 499.610083996 499.171632211 495.105113896 504.917240179 487.138643858 c 0
 509.468161451 480.8286457 511.240988809 473.387946947 511.240988809 466.009250501 c 0
 511.240988809 462.544860705 510.957375641 458.660712043 510.101196598 455.358307163 c 2
 503.079350823 428.275230595 l 2
 501.100836931 420.855803499 497.660490878 414.073868752 492.153298577 408.901942819 c 0
 485.168198167 402.342080737 476.009918581 399.626930588 466.676903958 399.626930588 c 0
 464.049025294 399.626930588 461.070809547 399.736273757 458.538902966 400.242655074 c 0
 435.090342322 404.932367202 393.411468213 408.005358855 341.878192605 408.999986406 c 0
 272.298459243 408.987381559 226.433533982 398.174313089 206.096592806 383.550994756 c 0
 196.165617076 376.702003678 192.5 369.848566623 192.5 362.175494836 c 0
 192.5 353.535245239 196.873958133 344.010364192 207.308408141 334.677770448 c 0
 228.259926452 315.938688987 273.32881653 299.5 342 299.5 c 0
 353.43135984 299.5 364.376804815 295.73117335 371.55741299 286.871981446 c 0
 377.19283348 279.919189933 379.5 271.163948788 379.5 262 c 2
 379.5 235 l 2
 379.5 223.56864016 375.73117335 212.623195185 366.871981446 205.44258701 c 0
 359.919189933 199.80716652 351.163948788 197.5 342 197.5 c 0
 273.378599084 197.5 223.378745819 181.026147651 199.379862265 161.88199923 c 0
 187.390623257 152.31806387 182.5 142.818952815 182.5 134.824505164 c 0
 182.5 126.159325407 186.370840103 119.200504994 196.683239485 112.417342121 c 0
 217.995324261 97.7751241073 266.692974643 88.0105438406 341.878192468 88.0000122368 c 0
 393.737585345 89.0009323675 435.238373735 92.0972390804 458.984677625 96.8464998583 c 0
 461.52352333 97.1638555715 464.146906159 97.3730694119 466.676903958 97.3730694119 c 0
 476.009918581 97.3730694119 485.168198167 94.6579192626 492.153298577 88.0980571814 c 0
 497.660490878 82.9261312485 501.122682706 76.0611199332 503.101196598 68.6416928374 c 0
 505.470001513 59.5048738796 507.838806428 50.3680549217 510.207611343 41.2312359639 c 0
EndSplineSet
Validated: 33
PickledDataWithLists: "(dp0
Vcom.schriftgestaltung.Glyphs.lastChange
p1
V2016-05-30 08:32:45 +0000
p2
s."
EndChar

StartChar: equal
Encoding: 61 61 218
GlifName: equal
Width: 575
VWidth: 0
Flags: HMW
LayerCount: 2
Fore
SplineSet
38.5 412 m 2
 38.5 439 l 2
 38.5 450.43135984 42.2688266499 461.376804815 51.1280185537 468.55741299 c 0
 58.0808100669 474.19283348 66.8360512123 476.5 76 476.5 c 2
 499 476.5 l 2
 508.163948788 476.5 516.919189933 474.19283348 523.871981446 468.55741299 c 0
 532.73117335 461.376804815 536.5 450.43135984 536.5 439 c 2
 536.5 412 l 2
 536.5 400.56864016 532.73117335 389.623195185 523.871981446 382.44258701 c 0
 516.919189933 376.80716652 508.163948788 374.5 499 374.5 c 2
 76 374.5 l 2
 66.8360512123 374.5 58.0808100669 376.80716652 51.1280185537 382.44258701 c 0
 42.2688266499 389.623195185 38.5 400.56864016 38.5 412 c 2
38.5 182 m 2
 38.5 209 l 2
 38.5 220.43135984 42.2688266499 231.376804815 51.1280185537 238.55741299 c 0
 58.0808100669 244.19283348 66.8360512123 246.5 76 246.5 c 2
 499 246.5 l 2
 508.163948788 246.5 516.919189933 244.19283348 523.871981446 238.55741299 c 0
 532.73117335 231.376804815 536.5 220.43135984 536.5 209 c 2
 536.5 182 l 2
 536.5 170.56864016 532.73117335 159.623195185 523.871981446 152.44258701 c 0
 516.919189933 146.80716652 508.163948788 144.5 499 144.5 c 2
 76 144.5 l 2
 66.8360512123 144.5 58.0808100669 146.80716652 51.1280185537 152.44258701 c 0
 42.2688266499 159.623195185 38.5 170.56864016 38.5 182 c 2
EndSplineSet
EndChar

